<svg width="375" height="100" viewBox="0 0 375 100" fill="none" xmlns="http://www.w3.org/2000/svg">
<rect width="375" height="100" fill="#6562FC"/>
<path d="M358.965 57.415H356.175V60.28H354.705V57.415H351.915V56.095H354.705V53.23H356.175V56.095H358.965V57.415Z" fill="white"/>
<path d="M302.965 23.415H300.175V26.28H298.705V23.415H295.915V22.095H298.705V19.23H300.175V22.095H302.965V23.415Z" fill="white"/>
<path d="M264.965 74.415H262.175V77.28H260.705V74.415H257.915V73.095H260.705V70.23H262.175V73.095H264.965V74.415Z" fill="white"/>
<rect opacity="0.2" x="18" y="36" width="257" height="13" rx="6.5" fill="black"/>
<path d="M37.164 56.456H40.748L49.568 72.136H47.132L39.46 58.304H38.452L30.78 72.136H28.344L37.164 56.456ZM37.976 77.988V68.188H39.936V77.988H50.24V79.836H27.644V77.988H37.976ZM74.1664 67.068V68.916H63.8064V71.94C64.3478 71.94 64.8984 71.94 65.4584 71.94C66.0371 71.94 66.6531 71.9493 67.3064 71.968C68.2211 71.968 69.0144 72.0707 69.6864 72.276C70.3584 72.4813 70.8998 72.7707 71.3104 73.144C71.7398 73.5173 72.0571 73.9653 72.2624 74.488C72.4678 75.0107 72.5704 75.5893 72.5704 76.224C72.5704 77.4747 72.1318 78.4733 71.2544 79.22C70.3771 79.9853 69.0704 80.396 67.3344 80.452C66.4758 80.4707 65.6824 80.48 64.9544 80.48C64.2451 80.4987 63.5358 80.508 62.8264 80.508C62.1358 80.508 61.4264 80.4987 60.6984 80.48C59.9704 80.48 59.1771 80.4707 58.3184 80.452C56.6011 80.396 55.3038 79.9853 54.4264 79.22C53.5491 78.4733 53.1104 77.4747 53.1104 76.224C53.1104 75.5893 53.2131 75.02 53.4184 74.516C53.6238 73.9933 53.9318 73.5453 54.3424 73.172C54.7718 72.7987 55.3131 72.5093 55.9664 72.304C56.6384 72.0987 57.4411 71.9867 58.3744 71.968C59.0278 71.9493 59.6344 71.94 60.1944 71.94C60.7544 71.94 61.3051 71.94 61.8464 71.94V68.916H51.5424V67.068H74.1664ZM65.7944 58.304L72.7664 65.64H70.0784L63.1904 58.304H62.5184L55.6584 65.64H52.9424L59.9424 58.304H53.6984V56.456H72.0104V58.304H65.7944ZM58.5424 78.604C59.8678 78.6227 61.2958 78.632 62.8264 78.632C64.3758 78.632 65.8131 78.6227 67.1384 78.604C68.4451 78.5667 69.3504 78.352 69.8544 77.96C70.3584 77.5867 70.6104 77.0173 70.6104 76.252C70.6104 75.86 70.5544 75.5147 70.4424 75.216C70.3491 74.9173 70.1718 74.6653 69.9104 74.46C69.6491 74.2547 69.2851 74.1053 68.8184 74.012C68.3704 73.9 67.8011 73.844 67.1104 73.844C65.7851 73.8253 64.3571 73.816 62.8264 73.816C61.3144 73.816 59.8958 73.8253 58.5704 73.844C57.8611 73.844 57.2824 73.9 56.8344 74.012C56.3864 74.124 56.0318 74.2827 55.7704 74.488C55.5091 74.6933 55.3224 74.9453 55.2104 75.244C55.1171 75.524 55.0704 75.86 55.0704 76.252C55.0704 77.0173 55.3224 77.5867 55.8264 77.96C56.3304 78.352 57.2358 78.5667 58.5424 78.604ZM80.0889 71.128C79.3795 71.1093 78.7635 70.9693 78.2409 70.708C77.7182 70.4467 77.2795 70.1107 76.9249 69.7C76.5889 69.2893 76.3275 68.832 76.1409 68.328C75.9729 67.8053 75.8889 67.292 75.8889 66.788C75.8889 66.284 75.9635 65.78 76.1129 65.276C76.2809 64.772 76.5329 64.324 76.8689 63.932C77.2049 63.5213 77.6435 63.1947 78.1849 62.952C78.7262 62.6907 79.3795 62.5507 80.1449 62.532C80.7049 62.5133 81.1902 62.504 81.6009 62.504C82.0302 62.504 82.4409 62.504 82.8329 62.504C83.2249 62.504 83.6262 62.5133 84.0369 62.532C84.4475 62.532 84.9235 62.532 85.4649 62.532C86.2302 62.532 86.8835 62.6627 87.4249 62.924C87.9662 63.1667 88.4049 63.4933 88.7409 63.904C89.0769 64.3147 89.3195 64.772 89.4689 65.276C89.6369 65.78 89.7209 66.284 89.7209 66.788C89.7209 67.292 89.6275 67.8053 89.4409 68.328C89.2729 68.832 89.0115 69.2893 88.6569 69.7C88.3209 70.1107 87.8822 70.4467 87.3409 70.708C86.8182 70.9693 86.2115 71.1093 85.5209 71.128C84.8862 71.1467 84.3635 71.1653 83.9529 71.184C83.5422 71.184 83.1595 71.184 82.8049 71.184C82.4502 71.184 82.0675 71.184 81.6569 71.184C81.2462 71.1653 80.7235 71.1467 80.0889 71.128ZM77.6529 73.032H79.6129V78.604H96.8329V80.452H77.6529V73.032ZM85.5769 69.252C86.1555 69.2147 86.6409 68.9813 87.0329 68.552C87.4435 68.1227 87.6489 67.5347 87.6489 66.788C87.6489 66.004 87.4435 65.4067 87.0329 64.996C86.6409 64.5667 86.1555 64.3427 85.5769 64.324C84.5689 64.2867 83.6449 64.268 82.8049 64.268C81.9649 64.268 81.0409 64.2867 80.0329 64.324C79.4542 64.3427 78.9595 64.5667 78.5489 64.996C78.1569 65.4067 77.9609 66.004 77.9609 66.788C77.9609 67.5347 78.1569 68.1227 78.5489 68.552C78.9595 68.9813 79.4542 69.2147 80.0329 69.252C81.0409 69.308 81.9649 69.336 82.8049 69.336C83.6449 69.336 84.5689 69.308 85.5769 69.252ZM99.6609 65.752H95.6569V73.648H93.6969V56.428H95.6569V63.904H99.6609V65.752ZM75.3569 60.88V59.032H81.7129L82.5249 55.784H84.6529L83.8689 59.032H90.2249V60.88H75.3569ZM132.419 68.02H128.191V79.836H126.231V56.428H128.191V66.172H132.419V68.02ZM110.635 79.556H108.675L113.379 56.736H118.587L123.291 79.556H121.331L116.907 58.584H115.059L110.635 79.556ZM157.63 63.932H153.626V70.54H151.666V56.428H153.626V62.084H157.63V63.932ZM153.626 80.452H135.482V71.744H153.626V80.452ZM151.666 73.592H137.442V78.604H151.666V73.592ZM134.698 56.596H146.822V63.932H136.658V67.628H147.886V69.476H134.698V62.084H144.862V58.444H134.698V56.596Z" fill="#FFE927"/>
<path d="M163.213 73.592H178.053V70.372H180.013V80.452H161.253V70.372H163.213V73.592ZM172.033 60.852C171.995 61.6733 171.93 62.448 171.837 63.176C171.743 63.8853 171.631 64.492 171.501 64.996C171.314 65.724 171.015 66.3213 170.605 66.788C170.194 67.236 169.699 67.6 169.121 67.88C168.561 68.1413 167.935 68.328 167.245 68.44C166.554 68.5333 165.845 68.58 165.117 68.58C163.082 68.58 161.57 68.1507 160.581 67.292C159.591 66.4147 159.171 65.192 159.321 63.624C159.358 63.1573 159.414 62.6067 159.489 61.972C159.582 61.3187 159.713 60.6933 159.881 60.096C160.105 59.312 160.431 58.6773 160.861 58.192C161.29 57.688 161.794 57.296 162.373 57.016C162.951 56.7173 163.577 56.512 164.249 56.4C164.921 56.288 165.593 56.232 166.265 56.232C167.273 56.232 168.141 56.3627 168.869 56.624C169.615 56.8667 170.222 57.2027 170.689 57.632C171.174 58.0427 171.529 58.528 171.753 59.088C171.977 59.648 172.07 60.236 172.033 60.852ZM169.401 64.604C169.457 64.436 169.513 64.2213 169.569 63.96C169.643 63.68 169.709 63.3813 169.765 63.064C169.821 62.728 169.867 62.4013 169.905 62.084C169.942 61.748 169.961 61.44 169.961 61.16C169.979 60.5067 169.886 59.984 169.681 59.592C169.475 59.1813 169.195 58.864 168.841 58.64C168.505 58.416 168.103 58.2667 167.637 58.192C167.17 58.1173 166.675 58.08 166.153 58.08C165.761 58.08 165.341 58.108 164.893 58.164C164.463 58.22 164.053 58.332 163.661 58.5C163.269 58.668 162.914 58.9107 162.597 59.228C162.279 59.5453 162.037 59.9747 161.869 60.516C161.813 60.684 161.757 60.908 161.701 61.188C161.645 61.468 161.589 61.7573 161.533 62.056C161.495 62.3547 161.458 62.6533 161.421 62.952C161.383 63.2507 161.365 63.4933 161.365 63.68C161.346 64.3333 161.439 64.856 161.645 65.248C161.85 65.64 162.13 65.948 162.485 66.172C162.858 66.396 163.278 66.5453 163.745 66.62C164.23 66.6947 164.725 66.732 165.229 66.732C165.583 66.732 165.966 66.7133 166.377 66.676C166.806 66.62 167.217 66.5173 167.609 66.368C168.001 66.2187 168.355 66.004 168.673 65.724C168.99 65.444 169.233 65.0707 169.401 64.604ZM178.053 75.44H163.213V78.604H178.053V75.44ZM180.013 68.804H178.053V56.428H180.013V68.804ZM198.56 79.556H185.848V56.596H187.864V77.708H198.56V79.556ZM204.944 79.836H202.984V56.428H204.944V79.836ZM222.762 79.556H210.33V56.736H222.37V58.584H212.29V77.708H222.762V79.556ZM233.262 68.02H228.754V79.836H226.794V56.428H228.754V66.172H233.262V68.02Z" fill="white"/>
<path d="M28.95 27.39C28.95 26.35 29.0973 25.4833 29.392 24.79C29.704 24.0967 30.12 23.5333 30.64 23.1C31.1773 22.6667 31.81 22.346 32.538 22.138C33.266 21.93 34.0547 21.8087 34.904 21.774C35.6493 21.7393 36.2907 21.7133 36.828 21.696C37.3827 21.6787 37.894 21.67 38.362 21.67C38.8473 21.67 39.3153 21.6787 39.766 21.696C40.2167 21.7133 40.7193 21.7393 41.274 21.774C42.106 21.826 42.886 21.956 43.614 22.164C44.342 22.372 44.9747 22.6927 45.512 23.126C46.0493 23.542 46.474 24.0967 46.786 24.79C47.098 25.4833 47.254 26.35 47.254 27.39C47.254 28.43 47.098 29.3053 46.786 30.016C46.474 30.7093 46.0493 31.2727 45.512 31.706C44.992 32.1393 44.368 32.46 43.64 32.668C42.912 32.8587 42.132 32.98 41.3 33.032C40.6067 33.0667 40.0173 33.1013 39.532 33.136C39.064 33.1533 38.6047 33.162 38.154 33.162C37.7207 33.162 37.2527 33.1533 36.75 33.136C36.2647 33.1013 35.6493 33.0667 34.904 33.032C34.0373 32.98 33.24 32.8587 32.512 32.668C31.784 32.46 31.1513 32.1393 30.614 31.706C30.094 31.2727 29.6867 30.7093 29.392 30.016C29.0973 29.3053 28.95 28.43 28.95 27.39ZM30.77 27.39C30.77 28.0833 30.8567 28.6727 31.03 29.158C31.2207 29.626 31.4893 30.016 31.836 30.328C32.2 30.6227 32.6333 30.8567 33.136 31.03C33.6387 31.186 34.202 31.29 34.826 31.342C35.3287 31.394 35.8573 31.4287 36.412 31.446C36.984 31.4633 37.556 31.472 38.128 31.472C38.7 31.472 39.2633 31.4633 39.818 31.446C40.3727 31.4113 40.9013 31.3767 41.404 31.342C41.9587 31.29 42.4787 31.186 42.964 31.03C43.4493 30.874 43.874 30.64 44.238 30.328C44.602 30.016 44.888 29.626 45.096 29.158C45.304 28.6727 45.408 28.0833 45.408 27.39C45.408 26.6967 45.304 26.116 45.096 25.648C44.9053 25.1627 44.6367 24.764 44.29 24.452C43.9433 24.14 43.5187 23.906 43.016 23.75C42.5133 23.594 41.9673 23.4987 41.378 23.464C40.91 23.4467 40.3987 23.4293 39.844 23.412C39.3067 23.3773 38.7433 23.36 38.154 23.36C37.582 23.36 37.01 23.3687 36.438 23.386C35.866 23.4033 35.3287 23.4293 34.826 23.464C34.254 23.516 33.7167 23.62 33.214 23.776C32.7287 23.932 32.304 24.166 31.94 24.478C31.576 24.7727 31.29 25.1627 31.082 25.648C30.874 26.116 30.77 26.6967 30.77 27.39ZM48.606 35.71V37.426H38.986V44.03H37.166V37.426H27.624V35.71H48.606ZM63.2834 43.302H51.0634V31.238H60.3194V23.828H51.1154V22.112H62.1394V32.954H52.8834V41.586H63.2834V43.302ZM69.3934 43.562H67.5734V21.826H69.3934V43.562ZM89.7754 41.846V35.216H82.2614V21.852H99.1354V35.216H91.5954V41.846H101.189V43.562H80.2074V41.846H89.7754ZM84.0814 33.5H97.3154V23.568H84.0814V33.5ZM121.691 32.824H104.453V21.852H121.483V23.568H106.273V31.108H121.691V32.824ZM123.407 35.71V37.426H113.787V44.03H111.967V37.426H102.425V35.71H123.407Z" fill="#FFE927"/>
<path d="M145.598 33.032V34.748H124.59V33.032H145.598ZM126.644 36.88H128.464V42.392H143.908V44.108H126.644V36.88ZM143.648 29.964H126.644V21.852H128.464V28.248H143.648V29.964ZM174.797 35.71V37.426H165.177V44.03H163.357V37.426H153.815V35.71H174.797ZM172.847 32.512H155.843V21.852H157.663V30.796H172.847V32.512ZM196.989 31.68V33.396H187.889V38.934H186.069V33.396H175.981V31.68H196.989ZM192.361 29.938L192.933 23.646H177.541V21.93H194.987L194.285 29.938H192.361ZM178.035 36.516H179.855V42.392H195.299V44.108H178.035V36.516ZM198.614 22.112H210.418L206.882 43.302H204.932L208.156 23.828H198.614V22.112ZM220.662 32.59H216.944V43.562H215.124V21.826H216.944V30.874H220.662V32.59ZM237.26 43.562H235.44V32.59H231.93C231.792 33.8727 231.636 35.1033 231.462 36.282C231.289 37.4607 231.107 38.6827 230.916 39.948C230.778 40.676 230.561 41.274 230.266 41.742C229.989 42.21 229.651 42.574 229.252 42.834C228.854 43.1113 228.394 43.2933 227.874 43.38C227.372 43.484 226.834 43.536 226.262 43.536C225.309 43.536 224.529 43.406 223.922 43.146C223.316 42.9033 222.839 42.548 222.492 42.08C222.163 41.612 221.946 41.04 221.842 40.364C221.756 39.7053 221.756 38.96 221.842 38.128C222.033 36.1173 222.241 34.1413 222.466 32.2C222.709 30.2413 222.952 28.2047 223.194 26.09C223.316 25.2407 223.524 24.5473 223.818 24.01C224.113 23.4553 224.477 23.0133 224.91 22.684C225.344 22.3547 225.829 22.1293 226.366 22.008C226.921 21.8693 227.51 21.8 228.134 21.8C229.053 21.8 229.798 21.9213 230.37 22.164C230.942 22.4067 231.384 22.7447 231.696 23.178C232.026 23.594 232.242 24.0967 232.346 24.686C232.45 25.258 232.485 25.882 232.45 26.558C232.398 27.3553 232.346 28.1093 232.294 28.82C232.242 29.5307 232.182 30.2153 232.112 30.874H235.44V21.826H237.26V43.562ZM229.278 38.674C229.521 36.906 229.746 35.0773 229.954 33.188C230.18 31.2987 230.388 29.2273 230.578 26.974C230.63 26.246 230.613 25.6567 230.526 25.206C230.44 24.7553 230.292 24.4087 230.084 24.166C229.876 23.906 229.599 23.7327 229.252 23.646C228.923 23.5593 228.516 23.516 228.03 23.516C227.649 23.516 227.294 23.5593 226.964 23.646C226.635 23.7153 226.332 23.88 226.054 24.14C225.794 24.3827 225.56 24.738 225.352 25.206C225.162 25.674 225.014 26.298 224.91 27.078C224.754 28.2047 224.616 29.2533 224.494 30.224C224.39 31.1773 224.286 32.1047 224.182 33.006C224.096 33.9073 224.009 34.8087 223.922 35.71C223.853 36.594 223.784 37.5127 223.714 38.466C223.662 39.142 223.671 39.6967 223.74 40.13C223.827 40.5807 223.966 40.9273 224.156 41.17C224.364 41.4127 224.633 41.5773 224.962 41.664C225.309 41.768 225.734 41.82 226.236 41.82C226.618 41.82 226.973 41.7853 227.302 41.716C227.632 41.664 227.926 41.534 228.186 41.326C228.446 41.118 228.672 40.806 228.862 40.39C229.053 39.974 229.192 39.402 229.278 38.674ZM242.148 43.562H240.328V21.826H242.148V43.562ZM260.671 43.562H258.851V31.862H253.469L251.519 43.302H249.543L252.871 23.828H245.435V22.112H255.159L253.781 30.146H258.851V21.826H260.671V43.562ZM265.559 43.562H263.739V21.826H265.559V43.562Z" fill="white"/>
<circle r="24" transform="matrix(1 0 0 -1 306 60)" fill="white" fill-opacity="0.5"/>
<circle r="17" transform="matrix(1 0 0 -1 330 35)" fill="white" fill-opacity="0.7"/>
<circle opacity="0.9" r="10" transform="matrix(1 0 0 -1 350 77)" fill="white"/>
</svg>
