<svg width="375" height="100" viewBox="0 0 375 100" fill="none" xmlns="http://www.w3.org/2000/svg">
<rect width="375" height="100" fill="#FBEC64"/>
<rect x="245" y="38" width="32" height="24" rx="12" fill="#ADD2F9"/>
<circle cx="297" cy="45" r="29" fill="#F6C358"/>
<circle cx="297.5" cy="45.5" r="23.5" fill="#FF9B53"/>
<path d="M358.582 47.2884L356.61 45.3156L358.635 43.2897L357.596 42.2503L355.57 44.2761L353.597 42.3033L352.664 43.2367L354.637 45.2095L352.611 47.2354L353.65 48.2748L355.676 46.249L357.649 48.2218L358.582 47.2884Z" fill="#FBBC05"/>
<path d="M234.582 28.2884L232.61 26.3156L234.635 24.2897L233.596 23.2503L231.57 25.2761L229.597 23.3033L228.664 24.2367L230.637 26.2095L228.611 28.2354L229.65 29.2748L231.676 27.249L233.649 29.2218L234.582 28.2884Z" fill="#FBBC05"/>
<path d="M273.582 83.2884L271.61 81.3156L273.635 79.2897L272.596 78.2503L270.57 80.2761L268.597 78.3033L267.664 79.2367L269.637 81.2095L267.611 83.2354L268.65 84.2748L270.676 82.249L272.649 84.2218L273.582 83.2884Z" fill="white"/>
<rect x="305" y="52" width="34" height="34" rx="17" fill="#C4E2FF"/>
<rect x="326" y="57" width="27" height="27" rx="13.5" fill="#C4E2FF"/>
<circle cx="326" cy="26" r="10" fill="white" fill-opacity="0.5"/>
<circle cx="316" cy="32" r="5" fill="white" fill-opacity="0.7"/>
<path d="M32.932 33.936V22.596H34.892V26.572H43.376V22.596H45.336V33.936H32.932ZM48.304 39.872L53.764 46.424H51.244L45.644 39.872H43.628L36.88 46.424H33.744L40.632 39.872H33.94V38.024H42.872L44.356 35.168H46.876L45.392 38.024H53.26V39.872H48.304ZM43.376 32.088V28.42H34.892V32.088H43.376ZM53.036 35.14H51.076V22.428H53.036V35.14ZM70.5189 45.556H58.6469V22.596H60.6629V43.708H70.5189V45.556ZM81.0749 34.02H76.5109V45.836H74.5509V22.428H76.5109V32.172H81.0749V34.02ZM104.69 34.496V36.344H82.0659V34.496H104.69ZM84.2779 38.64H86.2379V44.576H102.87V46.424H84.2779V38.64ZM102.59 31.192H84.2779V22.456H86.2379V29.344H102.59V31.192ZM120.679 46.424C119.821 46.4053 119.065 46.2467 118.411 45.948C117.777 45.668 117.235 45.2947 116.787 44.828C116.358 44.3613 116.031 43.8293 115.807 43.232C115.583 42.6533 115.471 42.056 115.471 41.44C115.471 40.8053 115.574 40.1893 115.779 39.592C115.985 38.9947 116.293 38.472 116.703 38.024C117.133 37.5573 117.674 37.184 118.327 36.904C118.999 36.6053 119.802 36.4467 120.735 36.428C121.594 36.4093 122.378 36.4 123.087 36.4C123.815 36.4 124.515 36.4 125.187 36.4C125.878 36.4 126.578 36.4 127.287 36.4C128.015 36.4 128.809 36.4093 129.667 36.428C130.582 36.428 131.375 36.5773 132.047 36.876C132.719 37.156 133.261 37.5293 133.671 37.996C134.101 38.4627 134.418 38.9947 134.623 39.592C134.829 40.1893 134.931 40.8053 134.931 41.44C134.931 42.056 134.819 42.6533 134.595 43.232C134.371 43.8293 134.035 44.3613 133.587 44.828C133.158 45.2947 132.617 45.668 131.963 45.948C131.31 46.2467 130.554 46.4053 129.695 46.424C128.837 46.4427 128.043 46.452 127.315 46.452C126.606 46.4707 125.897 46.48 125.187 46.48C124.497 46.48 123.787 46.4707 123.059 46.452C122.331 46.452 121.538 46.4427 120.679 46.424ZM137.731 29.456H133.727V35H131.767V22.428H133.727V27.608H137.731V29.456ZM120.903 44.576C122.229 44.5947 123.657 44.604 125.187 44.604C126.737 44.604 128.174 44.5947 129.499 44.576C130.153 44.5573 130.694 44.4547 131.123 44.268C131.571 44.0813 131.926 43.8387 132.187 43.54C132.467 43.26 132.663 42.9333 132.775 42.56C132.906 42.2053 132.971 41.8413 132.971 41.468C132.971 41.076 132.915 40.6933 132.803 40.32C132.71 39.9467 132.533 39.6107 132.271 39.312C132.01 39.0133 131.646 38.7707 131.179 38.584C130.731 38.3973 130.162 38.304 129.471 38.304C128.146 38.2853 126.718 38.276 125.187 38.276C123.675 38.276 122.257 38.2853 120.931 38.304C120.222 38.304 119.643 38.3973 119.195 38.584C118.747 38.7707 118.393 39.0133 118.131 39.312C117.87 39.6107 117.683 39.9467 117.571 40.32C117.478 40.6933 117.431 41.076 117.431 41.468C117.431 41.8413 117.487 42.2053 117.599 42.56C117.73 42.9333 117.926 43.26 118.187 43.54C118.467 43.8387 118.822 44.0813 119.251 44.268C119.699 44.4547 120.25 44.5573 120.903 44.576ZM127.483 34.132H114.799V22.736H126.783V24.584H116.759V32.284H127.483V34.132ZM160.114 39.396H158.154V22.428H160.114V39.396ZM141.326 37.996H143.286V44.604H160.702V46.452H141.326V37.996ZM141.046 35.728H138.946L143.65 22.596H148.858L153.562 35.728H151.462L147.486 24.444H145.106L141.046 35.728ZM185.101 45.836H183.141V22.428H185.101V45.836ZM180.621 43.708V45.556H163.933V43.708H180.621ZM178.241 27.524C178.222 27.972 178.185 28.56 178.129 29.288C178.092 29.9973 178.045 30.7253 177.989 31.472C177.933 32.2187 177.868 32.9187 177.793 33.572C177.718 34.2067 177.644 34.692 177.569 35.028C177.382 35.8307 177.074 36.4933 176.645 37.016C176.216 37.52 175.702 37.9213 175.105 38.22C174.526 38.5187 173.882 38.724 173.173 38.836C172.482 38.948 171.773 39.004 171.045 39.004C170.037 39.004 169.141 38.8827 168.357 38.64C167.573 38.3787 166.92 38.0147 166.397 37.548C165.874 37.0813 165.482 36.512 165.221 35.84C164.978 35.1493 164.894 34.3653 164.969 33.488C164.988 33.2267 165.016 32.788 165.053 32.172C165.09 31.556 165.128 30.9027 165.165 30.212C165.221 29.5027 165.277 28.8213 165.333 28.168C165.389 27.5147 165.464 27.02 165.557 26.684C165.781 25.8253 166.126 25.1253 166.593 24.584C167.06 24.0427 167.592 23.6227 168.189 23.324C168.805 23.0067 169.458 22.792 170.149 22.68C170.84 22.568 171.521 22.512 172.193 22.512C173.257 22.512 174.172 22.6427 174.937 22.904C175.721 23.1653 176.356 23.5293 176.841 23.996C177.345 24.444 177.709 24.976 177.933 25.592C178.176 26.1893 178.278 26.8333 178.241 27.524ZM175.525 34.776C175.6 34.5147 175.674 34.076 175.749 33.46C175.824 32.8253 175.889 32.1533 175.945 31.444C176.001 30.716 176.048 30.0253 176.085 29.372C176.122 28.7 176.15 28.2053 176.169 27.888C176.188 27.104 176.085 26.488 175.861 26.04C175.637 25.5733 175.329 25.2187 174.937 24.976C174.545 24.7147 174.097 24.5467 173.593 24.472C173.108 24.3973 172.604 24.36 172.081 24.36C171.689 24.36 171.26 24.388 170.793 24.444C170.345 24.5 169.897 24.6307 169.449 24.836C169.02 25.0227 168.628 25.3027 168.273 25.676C167.937 26.0307 167.694 26.5253 167.545 27.16C167.489 27.4213 167.424 27.8693 167.349 28.504C167.293 29.1387 167.237 29.8107 167.181 30.52C167.144 31.2107 167.106 31.8733 167.069 32.508C167.032 33.124 167.013 33.572 167.013 33.852C166.994 34.58 167.097 35.1587 167.321 35.588C167.564 36.0173 167.881 36.3533 168.273 36.596C168.684 36.82 169.141 36.9693 169.645 37.044C170.149 37.1187 170.653 37.156 171.157 37.156C171.512 37.156 171.904 37.1373 172.333 37.1C172.781 37.044 173.21 36.9413 173.621 36.792C174.05 36.624 174.433 36.3813 174.769 36.064C175.105 35.7467 175.357 35.3173 175.525 34.776ZM53.792 79.836H51.832V68.328H47.464V79.836H45.504V56.428H47.464V66.48H51.832V56.428H53.792V79.836ZM42.788 79.556H33.436V56.456H35.452V77.708H42.788V79.556ZM70.2669 60.768C70.2483 61.1787 70.2203 61.5333 70.1829 61.832C70.1643 62.112 70.1363 62.3733 70.0989 62.616C70.0616 62.8587 70.0149 63.092 69.9589 63.316C69.9216 63.5213 69.8749 63.7453 69.8189 63.988C69.6323 64.716 69.3336 65.3133 68.9229 65.78C68.5123 66.228 68.0176 66.592 67.4389 66.872C66.8789 67.1333 66.2536 67.32 65.5629 67.432C64.8723 67.5253 64.1629 67.572 63.4349 67.572C61.4003 67.572 59.8883 67.1427 58.8989 66.284C57.9096 65.4067 57.4896 64.184 57.6389 62.616C57.6576 62.392 57.6763 62.1867 57.6949 62C57.7136 61.7947 57.7416 61.5987 57.7789 61.412C57.8163 61.2067 57.8536 61.0013 57.8909 60.796C57.9469 60.572 58.0216 60.3107 58.1149 60.012C58.3389 59.228 58.6656 58.5933 59.0949 58.108C59.5243 57.6227 60.0283 57.24 60.6069 56.96C61.1856 56.68 61.8109 56.4933 62.4829 56.4C63.1549 56.288 63.8269 56.232 64.4989 56.232C65.5069 56.232 66.3749 56.3533 67.1029 56.596C67.8496 56.8387 68.4563 57.1653 68.9229 57.576C69.4083 57.9867 69.7629 58.472 69.9869 59.032C70.2109 59.5733 70.3043 60.152 70.2669 60.768ZM78.2469 75.44H61.8669V78.604H78.6669V80.452H59.9069V73.592H76.2869V70.82H59.9069V68.972H78.2469V75.44ZM67.7189 63.596C67.8309 63.2787 67.9336 62.9147 68.0269 62.504C68.1203 62.0933 68.1763 61.6173 68.1949 61.076C68.2136 60.4227 68.1203 59.9 67.9149 59.508C67.7096 59.116 67.4296 58.8173 67.0749 58.612C66.7389 58.388 66.3376 58.248 65.8709 58.192C65.4043 58.1173 64.9096 58.08 64.3869 58.08C63.9949 58.08 63.5749 58.108 63.1269 58.164C62.6976 58.2013 62.2869 58.304 61.8949 58.472C61.5029 58.6213 61.1483 58.8547 60.8309 59.172C60.5136 59.4707 60.2709 59.8907 60.1029 60.432C60.0096 60.768 59.9163 61.132 59.8229 61.524C59.7483 61.8973 59.7016 62.28 59.6829 62.672C59.6643 63.3253 59.7576 63.848 59.9629 64.24C60.1683 64.632 60.4483 64.94 60.8029 65.164C61.1763 65.388 61.5963 65.5373 62.0629 65.612C62.5483 65.6867 63.0429 65.724 63.5469 65.724C63.9016 65.724 64.2843 65.7053 64.6949 65.668C65.1243 65.612 65.5349 65.5093 65.9269 65.36C66.3189 65.2107 66.6736 64.996 66.9909 64.716C67.3083 64.436 67.5509 64.0627 67.7189 63.596ZM78.2469 67.516H76.2869V56.428H78.2469V67.516ZM83.8579 60.32C83.8579 59.1253 84.2592 58.22 85.0619 57.604C85.8832 56.9693 87.0592 56.5867 88.5899 56.456C89.2805 56.4 90.0272 56.3627 90.8299 56.344C91.6512 56.3067 92.4725 56.288 93.2939 56.288C94.1152 56.288 94.9272 56.3067 95.7299 56.344C96.5512 56.3627 97.3072 56.4 97.9979 56.456C99.5472 56.5867 100.723 56.9693 101.526 57.604C102.347 58.22 102.758 59.1253 102.758 60.32C102.758 61.5147 102.347 62.4293 101.526 63.064C100.723 63.6987 99.5472 64.0813 97.9979 64.212C97.3072 64.268 96.5512 64.3147 95.7299 64.352C94.9272 64.3707 94.1152 64.38 93.2939 64.38C92.4725 64.38 91.6512 64.3707 90.8299 64.352C90.0272 64.3147 89.2805 64.268 88.5899 64.212C87.0592 64.0813 85.8832 63.6987 85.0619 63.064C84.2592 62.4293 83.8579 61.5147 83.8579 60.32ZM102.45 76.084H86.2379V78.576H102.87V80.424H84.2779V74.236H100.49V72.08H84.2779V70.232H102.45V76.084ZM85.8179 60.32C85.8179 60.9733 86.0419 61.4587 86.4899 61.776C86.9565 62.0933 87.6939 62.2893 88.7019 62.364C89.3552 62.4013 90.0832 62.4387 90.8859 62.476C91.6885 62.4947 92.5005 62.504 93.3219 62.504C94.1619 62.504 94.9739 62.4947 95.7579 62.476C96.5605 62.4573 97.2885 62.42 97.9419 62.364C98.9499 62.2707 99.6779 62.0653 100.126 61.748C100.574 61.4307 100.798 60.9547 100.798 60.32C100.798 59.6853 100.574 59.2187 100.126 58.92C99.6779 58.6027 98.9499 58.3973 97.9419 58.304C97.2885 58.248 96.5605 58.2107 95.7579 58.192C94.9739 58.1547 94.1619 58.136 93.3219 58.136C92.5005 58.136 91.6885 58.1547 90.8859 58.192C90.0832 58.2107 89.3552 58.248 88.7019 58.304C87.6939 58.3787 86.9565 58.5747 86.4899 58.892C86.0419 59.1907 85.8179 59.6667 85.8179 60.32ZM104.69 66.284V68.132H82.0659V66.284H104.69ZM136.135 67.684V69.532H113.511V67.684H136.135ZM120.287 80.452C118.57 80.396 117.273 79.9573 116.395 79.136C115.518 78.3333 115.079 77.3067 115.079 76.056C115.079 75.4213 115.182 74.8427 115.387 74.32C115.593 73.7787 115.901 73.312 116.311 72.92C116.741 72.528 117.282 72.22 117.935 71.996C118.607 71.772 119.41 71.6507 120.343 71.632C121.202 71.6133 121.986 71.604 122.695 71.604C123.423 71.604 124.123 71.604 124.795 71.604C125.486 71.604 126.186 71.604 126.895 71.604C127.623 71.604 128.417 71.6133 129.275 71.632C130.19 71.632 130.983 71.744 131.655 71.968C132.327 72.192 132.869 72.5 133.279 72.892C133.709 73.284 134.026 73.7507 134.231 74.292C134.437 74.8333 134.539 75.4213 134.539 76.056C134.539 77.3067 134.101 78.3333 133.223 79.136C132.346 79.9573 131.039 80.396 129.303 80.452C128.445 80.4707 127.651 80.48 126.923 80.48C126.214 80.4987 125.505 80.508 124.795 80.508C124.105 80.508 123.395 80.4987 122.667 80.48C121.939 80.48 121.146 80.4707 120.287 80.452ZM120.511 78.604C121.837 78.6227 123.265 78.632 124.795 78.632C126.345 78.632 127.782 78.6227 129.107 78.604C130.414 78.5667 131.319 78.324 131.823 77.876C132.327 77.4467 132.579 76.8493 132.579 76.084C132.579 75.692 132.523 75.3373 132.411 75.02C132.318 74.7027 132.141 74.432 131.879 74.208C131.618 73.984 131.254 73.816 130.787 73.704C130.339 73.5733 129.77 73.508 129.079 73.508C127.754 73.4893 126.326 73.48 124.795 73.48C123.283 73.48 121.865 73.4893 120.539 73.508C119.83 73.508 119.251 73.5733 118.803 73.704C118.355 73.8347 118.001 74.012 117.739 74.236C117.478 74.46 117.291 74.7307 117.179 75.048C117.086 75.3467 117.039 75.692 117.039 76.084C117.039 76.8493 117.291 77.4467 117.795 77.876C118.299 78.324 119.205 78.5667 120.511 78.604ZM115.303 60.88C115.303 59.536 115.705 58.5 116.507 57.772C117.329 57.044 118.505 56.6147 120.035 56.484C120.726 56.428 121.473 56.3907 122.275 56.372C123.097 56.3347 123.918 56.316 124.739 56.316C125.561 56.316 126.373 56.3347 127.175 56.372C127.997 56.3907 128.753 56.428 129.443 56.484C130.993 56.6147 132.169 57.044 132.971 57.772C133.793 58.5 134.203 59.536 134.203 60.88C134.203 62.224 133.793 63.26 132.971 63.988C132.169 64.716 130.993 65.1453 129.443 65.276C128.753 65.332 127.997 65.3787 127.175 65.416C126.373 65.4347 125.561 65.444 124.739 65.444C123.918 65.444 123.097 65.4347 122.275 65.416C121.473 65.3787 120.726 65.332 120.035 65.276C118.505 65.1453 117.329 64.716 116.507 63.988C115.705 63.26 115.303 62.224 115.303 60.88ZM117.263 60.88C117.263 61.664 117.487 62.2707 117.935 62.7C118.402 63.1107 119.139 63.3533 120.147 63.428C120.801 63.4653 121.529 63.5027 122.331 63.54C123.134 63.5587 123.946 63.568 124.767 63.568C125.607 63.568 126.419 63.5587 127.203 63.54C128.006 63.5213 128.734 63.484 129.387 63.428C130.395 63.3347 131.123 63.0827 131.571 62.672C132.019 62.2613 132.243 61.664 132.243 60.88C132.243 60.096 132.019 59.4987 131.571 59.088C131.123 58.6773 130.395 58.4253 129.387 58.332C128.734 58.276 128.006 58.2387 127.203 58.22C126.419 58.1827 125.607 58.164 124.767 58.164C123.946 58.164 123.134 58.1827 122.331 58.22C121.529 58.2387 120.801 58.276 120.147 58.332C119.139 58.4067 118.402 58.6587 117.935 59.088C117.487 59.4987 117.263 60.096 117.263 60.88ZM138.194 61.216C138.194 60.264 138.352 59.48 138.67 58.864C138.987 58.2293 139.398 57.7347 139.902 57.38C140.424 57.0067 141.012 56.7453 141.666 56.596C142.319 56.4467 142.982 56.372 143.654 56.372H146.622C147.238 56.3907 147.844 56.4653 148.442 56.596C149.058 56.7267 149.618 56.9507 150.122 57.268C150.626 57.5667 151.046 57.9773 151.382 58.5C151.736 59.004 151.96 59.648 152.054 60.432H156.618V56.428H158.578V73.956H156.618V62.28H152.026C151.914 63.008 151.68 63.6147 151.326 64.1C150.971 64.5853 150.542 64.968 150.038 65.248C149.552 65.528 149.011 65.7333 148.414 65.864C147.816 65.976 147.228 66.0413 146.65 66.06H143.654C142.963 66.0413 142.291 65.9573 141.638 65.808C140.984 65.6587 140.396 65.4067 139.874 65.052C139.37 64.6787 138.959 64.184 138.642 63.568C138.343 62.952 138.194 62.168 138.194 61.216ZM140.238 61.216C140.238 62.1867 140.518 62.9333 141.078 63.456C141.638 63.9787 142.636 64.268 144.074 64.324H146.258C147.658 64.2867 148.638 64.0067 149.198 63.484C149.758 62.9427 150.038 62.1867 150.038 61.216C150.038 60.2453 149.748 59.4893 149.17 58.948C148.61 58.388 147.62 58.108 146.202 58.108H144.074C142.636 58.164 141.638 58.4533 141.078 58.976C140.518 59.4987 140.238 60.2453 140.238 61.216ZM139.622 72.836H141.582V78.604H159.082V80.452H139.622V72.836ZM153.818 67.908V69.756H146.51V73.844H144.55V69.756H137.438V67.908H153.818ZM166.653 73.816H180.877V70.876H182.837V80.452H164.693V70.876H166.653V73.816ZM167.185 69.336C166.475 69.3173 165.859 69.2053 165.337 69C164.833 68.7947 164.413 68.524 164.077 68.188C163.741 67.852 163.489 67.46 163.321 67.012C163.153 66.564 163.069 66.088 163.069 65.584C163.069 65.08 163.143 64.6133 163.293 64.184C163.442 63.736 163.675 63.3533 163.993 63.036C164.329 62.7 164.758 62.4387 165.281 62.252C165.822 62.0467 166.475 61.9347 167.241 61.916C167.801 61.8973 168.295 61.888 168.725 61.888C169.173 61.888 169.602 61.888 170.013 61.888C170.423 61.888 170.843 61.8973 171.273 61.916C171.702 61.916 172.187 61.916 172.729 61.916C173.494 61.916 174.138 62.0187 174.661 62.224C175.202 62.4107 175.631 62.672 175.949 63.008C176.285 63.3253 176.527 63.708 176.677 64.156C176.826 64.604 176.901 65.08 176.901 65.584C176.901 66.088 176.817 66.564 176.649 67.012C176.481 67.46 176.229 67.852 175.893 68.188C175.557 68.524 175.127 68.7947 174.605 69C174.082 69.2053 173.475 69.3173 172.785 69.336C172.15 69.3547 171.618 69.3733 171.189 69.392C170.759 69.392 170.358 69.392 169.985 69.392C169.611 69.392 169.21 69.392 168.781 69.392C168.351 69.3733 167.819 69.3547 167.185 69.336ZM180.877 75.664H166.653V78.604H180.877V75.664ZM172.841 67.46C173.419 67.4227 173.895 67.2547 174.269 66.956C174.642 66.6387 174.829 66.1813 174.829 65.584C174.829 64.9493 174.642 64.4827 174.269 64.184C173.895 63.8853 173.419 63.7267 172.841 63.708C171.833 63.6707 170.881 63.652 169.985 63.652C169.089 63.652 168.137 63.6707 167.129 63.708C166.55 63.7267 166.074 63.8853 165.701 64.184C165.327 64.4827 165.141 64.9493 165.141 65.584C165.141 66.1813 165.327 66.6387 165.701 66.956C166.074 67.2547 166.55 67.4227 167.129 67.46C168.137 67.516 169.089 67.544 169.985 67.544C170.881 67.544 171.833 67.516 172.841 67.46ZM186.841 63.792H182.837V69.7H180.877V56.428H182.837V61.944H186.841V63.792ZM162.537 60.348V58.5H169.005L169.705 55.784H171.833L171.189 58.5H177.405V60.348H162.537ZM202.56 79.556H189.848V56.596H191.864V77.708H202.56V79.556ZM208.944 79.836H206.984V56.428H208.944V79.836ZM226.762 79.556H214.33V56.736H226.37V58.584H216.29V77.708H226.762V79.556ZM237.262 68.02H232.754V79.836H230.794V56.428H232.754V66.172H237.262V68.02Z" fill="black"/>
</svg>
