<svg width="375" height="100" viewBox="0 0 375 100" fill="none" xmlns="http://www.w3.org/2000/svg">
<rect width="375" height="100" fill="#6562FC"/>
<path d="M362.965 44.585H360.175V41.72H358.705V44.585H355.915V45.905H358.705V48.77H360.175V45.905H362.965V44.585Z" fill="white"/>
<path d="M306.965 78.585H304.175V75.72H302.705V78.585H299.915V79.905H302.705V82.77H304.175V79.905H306.965V78.585Z" fill="white"/>
<path d="M268.965 27.585H266.175V24.72H264.705V27.585H261.915V28.905H264.705V31.77H266.175V28.905H268.965V27.585Z" fill="white"/>
<path d="M41.752 55.584L46.4 76.556H44.412L39.764 55.584H38.756L34.108 76.556H32.12L36.768 55.584H31.756V53.736H46.484V55.584H41.752ZM52.756 76.836H50.796V53.428H52.756V76.836ZM79.4789 63.48V65.328H56.8549V63.48H79.4789ZM74.5509 61.632L75.1109 55.388H58.5349V53.54H77.3229L76.5669 61.632H74.5509ZM77.2389 77.424H59.0669V68.38H77.2389V77.424ZM75.2789 70.228H61.0269V75.576H75.2789V70.228ZM201.327 65.72C201.327 66.0933 201.3 66.6067 201.244 67.26C201.188 67.9133 201.113 68.604 201.02 69.332C200.926 70.06 200.814 70.7693 200.684 71.46C200.572 72.1507 200.45 72.7293 200.32 73.196C200.077 73.98 199.75 74.6053 199.34 75.072C198.929 75.5387 198.453 75.8933 197.912 76.136C197.389 76.3973 196.82 76.5747 196.204 76.668C195.606 76.7613 195 76.808 194.383 76.808C193.189 76.808 192.19 76.6587 191.388 76.36C190.604 76.0613 189.978 75.632 189.512 75.072C189.045 74.5307 188.737 73.8867 188.588 73.14C188.438 72.412 188.42 71.6093 188.532 70.732C188.588 70.2653 188.644 69.752 188.7 69.192C188.756 68.632 188.812 68.0907 188.868 67.568C188.942 67.0267 189.008 66.5227 189.064 66.056C189.138 65.5707 189.213 65.1693 189.288 64.852C189.474 63.956 189.782 63.228 190.212 62.668C190.66 62.108 191.173 61.6693 191.752 61.352C192.33 61.0347 192.956 60.82 193.628 60.708C194.3 60.596 194.972 60.54 195.644 60.54C196.633 60.54 197.492 60.6707 198.22 60.932C198.948 61.1933 199.545 61.5573 200.012 62.024C200.497 62.4907 200.842 63.0413 201.048 63.676C201.272 64.3107 201.365 64.992 201.327 65.72ZM198.668 71.684C198.836 70.8253 198.976 69.9013 199.088 68.912C199.2 67.9227 199.274 66.9893 199.312 66.112C199.349 65.328 199.265 64.6933 199.06 64.208C198.873 63.7227 198.602 63.3493 198.248 63.088C197.893 62.808 197.482 62.6213 197.016 62.528C196.549 62.4347 196.054 62.388 195.532 62.388C195.158 62.388 194.757 62.416 194.328 62.472C193.917 62.528 193.516 62.6493 193.124 62.836C192.732 63.0227 192.377 63.312 192.06 63.704C191.742 64.0773 191.5 64.5813 191.332 65.216C191.238 65.5893 191.145 66.0467 191.052 66.588C190.977 67.1107 190.902 67.6613 190.828 68.24C190.772 68.8 190.716 69.3507 190.66 69.892C190.604 70.4333 190.566 70.8907 190.548 71.264C190.492 71.992 190.557 72.5893 190.744 73.056C190.949 73.5413 191.229 73.924 191.584 74.204C191.957 74.484 192.386 74.68 192.872 74.792C193.357 74.904 193.852 74.96 194.356 74.96C194.766 74.96 195.196 74.9227 195.644 74.848C196.092 74.7733 196.512 74.6147 196.904 74.372C197.314 74.148 197.678 73.8213 197.996 73.392C198.313 72.9627 198.537 72.3933 198.668 71.684ZM212.052 66.224H208.048V76.836H206.088V53.428H208.048V64.376H212.052V66.224ZM188 59.224V57.376H194.412L195.252 53.064H197.38L196.54 57.376H202.644V59.224H188ZM215.198 76.556H213.238L216.962 53.736H221.33L225.054 76.556H223.094L219.65 55.584H218.642L215.198 76.556ZM223.794 62.92H227.966V53.428H229.926V76.836H227.966V64.768H223.794V62.92ZM235.022 76.836H233.062V53.428H235.022V76.836ZM243.937 74.988V67.344C242.649 66.896 241.623 66.112 240.857 64.992C240.092 63.872 239.709 62.416 239.709 60.624C239.709 59.504 239.868 58.5147 240.185 57.656C240.521 56.7973 240.969 56.0693 241.529 55.472C242.108 54.8747 242.789 54.4173 243.573 54.1C244.357 53.764 245.207 53.5773 246.121 53.54C246.924 53.5027 247.615 53.4747 248.193 53.456C248.791 53.4373 249.341 53.428 249.845 53.428C250.368 53.428 250.872 53.4373 251.357 53.456C251.843 53.4747 252.384 53.5027 252.981 53.54C253.877 53.596 254.717 53.792 255.501 54.128C256.285 54.4453 256.967 54.9027 257.545 55.5C258.124 56.0973 258.581 56.8253 258.917 57.684C259.253 58.524 259.421 59.504 259.421 60.624C259.421 62.3973 259.02 63.844 258.217 64.964C257.433 66.084 256.425 66.868 255.193 67.316V74.988H260.849V76.836H238.253V74.988H243.937ZM241.669 60.624C241.669 62.1173 242.052 63.34 242.817 64.292C243.601 65.244 244.675 65.7853 246.037 65.916C246.579 65.972 247.148 66.0093 247.745 66.028C248.361 66.0467 248.977 66.056 249.593 66.056C250.209 66.056 250.816 66.0467 251.413 66.028C252.011 65.9907 252.58 65.9533 253.121 65.916C253.719 65.86 254.279 65.692 254.801 65.412C255.324 65.132 255.781 64.768 256.173 64.32C256.565 63.8533 256.873 63.312 257.097 62.696C257.321 62.0613 257.433 61.3707 257.433 60.624C257.433 59.8773 257.321 59.196 257.097 58.58C256.892 57.9453 256.603 57.3947 256.229 56.928C255.856 56.4613 255.399 56.0973 254.857 55.836C254.316 55.556 253.728 55.3973 253.093 55.36C252.589 55.3413 252.039 55.3227 251.441 55.304C250.863 55.2667 250.256 55.248 249.621 55.248C249.005 55.248 248.389 55.2573 247.773 55.276C247.157 55.2947 246.579 55.3227 246.037 55.36C245.421 55.416 244.843 55.584 244.301 55.864C243.779 56.1253 243.321 56.4893 242.929 56.956C242.537 57.4227 242.229 57.964 242.005 58.58C241.781 59.196 241.669 59.8773 241.669 60.624ZM245.897 67.736V74.988H253.233V67.736H253.009C252.263 67.7733 251.628 67.8107 251.105 67.848C250.601 67.8667 250.107 67.876 249.621 67.876C249.155 67.876 248.651 67.8667 248.109 67.848C247.587 67.8107 246.924 67.7733 246.121 67.736H245.897ZM268.004 52.924L267.668 71.544H265.876L265.54 52.924H268.004ZM265.316 73.7H268.312V77.424H265.316V73.7ZM278.285 52.924L277.949 71.544H276.157L275.821 52.924H278.285ZM275.597 73.7H278.593V77.424H275.597V73.7Z" fill="white"/>
<path d="M95.2723 77.452C93.5549 77.396 92.2576 76.9573 91.3803 76.136C90.5029 75.3147 90.0643 74.2787 90.0643 73.028C90.0643 72.3933 90.1669 71.8147 90.3723 71.292C90.5776 70.7507 90.8856 70.284 91.2963 69.892C91.7256 69.4813 92.2669 69.164 92.9203 68.94C93.5923 68.716 94.3949 68.5947 95.3283 68.576C96.1869 68.5573 96.9616 68.548 97.6523 68.548C98.3429 68.548 99.0056 68.548 99.6403 68.548C100.294 68.548 100.966 68.548 101.656 68.548C102.347 68.548 103.122 68.5573 103.98 68.576C104.895 68.576 105.688 68.688 106.36 68.912C107.032 69.136 107.574 69.4533 107.984 69.864C108.414 70.256 108.731 70.7227 108.936 71.264C109.142 71.8053 109.244 72.3933 109.244 73.028C109.244 74.2787 108.806 75.3147 107.928 76.136C107.051 76.9573 105.744 77.396 104.008 77.452C103.15 77.4707 102.375 77.48 101.684 77.48C100.994 77.4987 100.312 77.508 99.6403 77.508C98.9869 77.508 98.3056 77.4987 97.5963 77.48C96.9056 77.48 96.1309 77.4707 95.2723 77.452ZM95.4963 75.604C96.8216 75.6227 98.2029 75.632 99.6403 75.632C101.096 75.632 102.487 75.6227 103.812 75.604C105.119 75.5667 106.024 75.324 106.528 74.876C107.032 74.428 107.284 73.8213 107.284 73.056C107.284 72.664 107.228 72.3093 107.116 71.992C107.023 71.6747 106.846 71.404 106.584 71.18C106.323 70.956 105.959 70.7787 105.492 70.648C105.044 70.5173 104.475 70.452 103.784 70.452C102.459 70.4333 101.078 70.424 99.6403 70.424C98.2216 70.424 96.8496 70.4333 95.5243 70.452C94.8149 70.452 94.2363 70.5173 93.7883 70.648C93.3403 70.7787 92.9856 70.956 92.7243 71.18C92.4629 71.404 92.2763 71.6747 92.1643 71.992C92.0709 72.3093 92.0243 72.664 92.0243 73.056C92.0243 73.8213 92.2763 74.428 92.7803 74.876C93.2843 75.324 94.1896 75.5667 95.4963 75.604ZM95.6083 58.86V64.012H104.26V65.86H88.3003V64.012H93.6483V58.86H95.6083ZM100.34 61.996L100.9 55.584H89.5042V53.736H103.084L102.356 61.996H100.34ZM112.52 61.296H108.628V67.232H106.668V53.428H108.628V59.448H112.52V61.296ZM124.039 61.128V74.988H136.107V76.836H113.511V74.988H122.079V61.128H124.039ZM114.995 53.54H134.231L132.327 69.192H130.255L131.935 55.388H114.995V53.54ZM158.802 70.396H156.842V53.428H158.802V70.396ZM140.014 68.996H141.974V75.604H159.39V77.452H140.014V68.996ZM139.734 66.728H137.634L142.338 53.596H147.546L152.25 66.728H150.15L146.174 55.444H143.794L139.734 66.728ZM169.873 77.424C169.014 77.4053 168.258 77.256 167.605 76.976C166.97 76.7147 166.429 76.36 165.981 75.912C165.551 75.4827 165.225 74.9787 165.001 74.4C164.777 73.84 164.665 73.252 164.665 72.636C164.665 72.0013 164.767 71.404 164.973 70.844C165.178 70.2653 165.486 69.752 165.897 69.304C166.326 68.856 166.867 68.5013 167.521 68.24C168.193 67.9787 168.995 67.8387 169.929 67.82C170.787 67.8013 171.59 67.792 172.337 67.792C173.083 67.792 173.811 67.792 174.521 67.792C175.23 67.792 175.958 67.792 176.705 67.792C177.451 67.792 178.254 67.8013 179.113 67.82C180.027 67.82 180.821 67.9507 181.493 68.212C182.165 68.4733 182.706 68.828 183.117 69.276C183.546 69.724 183.863 70.2373 184.069 70.816C184.274 71.3947 184.377 72.0013 184.377 72.636C184.377 73.252 184.265 73.84 184.041 74.4C183.817 74.9787 183.481 75.4827 183.033 75.912C182.603 76.36 182.062 76.7147 181.409 76.976C180.755 77.256 179.999 77.4053 179.141 77.424C178.282 77.4427 177.479 77.452 176.733 77.452C175.986 77.4707 175.249 77.48 174.521 77.48C173.793 77.48 173.046 77.4707 172.281 77.452C171.534 77.452 170.731 77.4427 169.873 77.424ZM170.097 75.576C170.75 75.576 171.45 75.576 172.197 75.576C172.962 75.5947 173.737 75.604 174.521 75.604C175.305 75.604 176.07 75.5947 176.817 75.576C177.582 75.576 178.291 75.576 178.945 75.576C179.598 75.5573 180.139 75.464 180.569 75.296C181.017 75.128 181.371 74.9133 181.633 74.652C181.913 74.3907 182.109 74.0827 182.221 73.728C182.351 73.392 182.417 73.0373 182.417 72.664C182.417 72.272 182.361 71.8987 182.249 71.544C182.155 71.1893 181.978 70.8813 181.717 70.62C181.455 70.34 181.091 70.116 180.625 69.948C180.177 69.78 179.607 69.696 178.917 69.696C178.263 69.696 177.554 69.696 176.789 69.696C176.042 69.6773 175.286 69.668 174.521 69.668C173.755 69.668 172.99 69.6773 172.225 69.696C171.478 69.696 170.778 69.696 170.125 69.696C169.415 69.696 168.837 69.78 168.389 69.948C167.941 70.116 167.586 70.34 167.325 70.62C167.063 70.8813 166.877 71.1893 166.765 71.544C166.671 71.8987 166.625 72.272 166.625 72.664C166.625 73.0373 166.681 73.392 166.793 73.728C166.923 74.0827 167.119 74.3907 167.381 74.652C167.661 74.9133 168.015 75.128 168.445 75.296C168.893 75.464 169.443 75.5573 170.097 75.576ZM172.785 57.684L176.901 65.944H174.549L170.517 57.684H170.013L165.841 66.112H163.489L167.661 57.684H163.321V55.836H169.173L169.929 52.812H172.057L171.329 55.836H177.125V57.684H172.785ZM176.621 60.344H182.053V53.428H184.013V66.7H182.053V62.192H176.621V60.344Z" fill="#FFE927"/>
<g opacity="0.5">
<rect x="31" y="19" width="191" height="25" rx="12.5" fill="black"/>
</g>
<path d="M52.415 24.75V27.96H50.255L50.36 29.355H52.415V32.595H50.36L50.255 33.99H52.415V37.56H53.885V24.75H52.415ZM46.1 25.05C43.85 25.05 42.305 26.94 42.305 31.005C42.305 35.07 43.85 36.96 46.1 36.96C48.335 36.96 49.88 35.07 49.88 31.005C49.88 26.94 48.335 25.05 46.1 25.05ZM46.1 35.595C44.765 35.595 43.775 34.26 43.775 31.005C43.775 27.765 44.765 26.415 46.1 26.415C47.42 26.415 48.395 27.765 48.395 31.005C48.395 34.26 47.42 35.595 46.1 35.595ZM66.7237 37.56H68.2087V24.75H66.7237V37.56ZM56.8537 36.765C61.2337 36.765 63.9637 33.435 63.9637 28.305V25.215H56.8537V26.58H62.4487V28.335C62.4487 32.625 60.3487 35.34 56.8537 35.355V36.765ZM81.5874 24.75V37.56H82.9974V24.75H81.5874ZM78.4974 30.09H76.7874C76.6374 26.595 75.6174 25.05 73.8324 25.05C71.8974 25.05 70.8474 26.865 70.8474 31.005C70.8474 35.145 71.8974 36.96 73.8324 36.96C75.6924 36.96 76.7124 35.295 76.8024 31.5H78.4974V37.335H79.8924V24.825H78.4974V30.09ZM73.8324 35.61C72.7674 35.61 72.2574 34.155 72.2574 31.005C72.2574 27.855 72.7674 26.4 73.8324 26.4C74.8974 26.4 75.3924 27.855 75.3924 31.005C75.3924 34.155 74.8974 35.61 73.8324 35.61ZM100.94 27.615V24.75H99.4552V32.58H100.94V28.995H102.71V27.615H100.94ZM95.6752 29.445H97.1602V24.96H89.9302V26.205H95.6752V29.445ZM98.3902 31.11V29.895C97.5052 30.27 95.9452 30.405 94.1902 30.405H93.2902V27.735H91.8202V30.405H89.3152V31.62H94.1452C95.9752 31.62 97.5802 31.47 98.3902 31.11ZM95.6152 32.64C92.4202 32.64 90.0652 33.39 90.0652 35.13C90.0652 36.855 92.4202 37.605 95.6152 37.605C98.8102 37.605 101.165 36.855 101.165 35.13C101.165 33.39 98.8102 32.64 95.6152 32.64ZM95.6152 36.45C93.3502 36.45 91.6252 36.075 91.6252 35.13C91.6252 34.185 93.3502 33.795 95.6152 33.795C97.8802 33.795 99.6052 34.185 99.6052 35.13C99.6052 36.075 97.8802 36.45 95.6152 36.45ZM114.139 33.66H115.684V25.2H104.524V26.595H114.139V33.66ZM110.044 35.55V29.835H108.514V35.55H103.744V36.945H116.539V35.55H110.044ZM131.568 29.94H129.768V24.75H128.283V37.56H129.768V31.365H131.568V29.94ZM118.638 26.58H124.098V28.335C124.098 32.625 122.118 35.34 118.638 35.355V36.765C122.988 36.765 125.613 33.405 125.613 28.305V25.215H118.638V26.58ZM146.405 35.58V32.58H148.925V31.23H146.66V26.655H148.79V25.29H137.6V26.655H139.73V31.23H137.465V32.58H140V35.58H136.805V36.945H149.6V35.58H146.405ZM141.23 26.655H145.16V31.23H141.23V26.655ZM141.485 32.58H144.92V35.58H141.485V32.58ZM161.704 24.75V37.56H163.189V24.75H161.704ZM156.964 25.125L155.449 25.065C155.434 30.45 154.024 34.89 151.459 35.295V36.795C153.484 36.645 155.044 34.935 155.989 32.115L159.394 36.765L160.594 35.91L156.454 30.39C156.784 28.86 156.949 27.09 156.964 25.125ZM176.163 24.75V32.13H177.648V24.75H176.163ZM175.098 31.515V30.33C174.213 30.72 172.653 30.84 170.898 30.84H170.838V29.415H173.988V28.26H167.868V26.145H173.838V24.99H166.413V29.415H169.368V30.84H165.663V32.025H170.853C172.683 32.025 174.288 31.875 175.098 31.515ZM176.178 33.915H168.303V32.835H166.818V37.395H177.648V32.835H176.178V33.915ZM168.303 36.24V35.055H176.178V36.24H168.303ZM190.562 37.575L192.047 37.56V24.75H190.562V37.575ZM180.827 36.795H186.062C187.292 36.795 188.597 36.555 189.377 36.165V34.8C188.597 35.175 187.277 35.43 186.062 35.43H182.342V25.14H180.827V36.795ZM207.915 29.94H206.115V24.75H204.63V37.56H206.115V31.365H207.915V29.94ZM196.635 35.445V26.565H202.515V25.215H195.12V36.795H200.13C201.36 36.795 202.74 36.57 203.52 36.18V34.83C202.74 35.205 201.42 35.445 200.205 35.445H196.635ZM210.059 37.44C210.659 37.44 211.109 36.975 211.109 36.375C211.109 35.775 210.659 35.31 210.059 35.31C209.459 35.31 208.994 35.775 208.994 36.375C208.994 36.975 209.459 37.44 210.059 37.44Z" fill="white"/>
<circle cx="310" cy="42" r="24" fill="white" fill-opacity="0.5"/>
<circle cx="334" cy="67" r="17" fill="white" fill-opacity="0.8"/>
<circle cx="354" cy="25" r="10" fill="white"/>
</svg>
