<svg width="568" height="100" viewBox="0 0 568 100" fill="none" xmlns="http://www.w3.org/2000/svg">
<rect width="568" height="100" fill="#6562FC"/>
<path d="M190.164 56.456H193.748L202.568 72.136H200.132L192.46 58.304H191.452L183.78 72.136H181.344L190.164 56.456ZM190.976 77.988V68.188H192.936V77.988H203.24V79.836H180.644V77.988H190.976ZM227.166 67.068V68.916H216.806V71.94C217.348 71.94 217.898 71.94 218.458 71.94C219.037 71.94 219.653 71.9493 220.306 71.968C221.221 71.968 222.014 72.0707 222.686 72.276C223.358 72.4813 223.9 72.7707 224.31 73.144C224.74 73.5173 225.057 73.9653 225.262 74.488C225.468 75.0107 225.57 75.5893 225.57 76.224C225.57 77.4747 225.132 78.4733 224.254 79.22C223.377 79.9853 222.07 80.396 220.334 80.452C219.476 80.4707 218.682 80.48 217.954 80.48C217.245 80.4987 216.536 80.508 215.826 80.508C215.136 80.508 214.426 80.4987 213.698 80.48C212.97 80.48 212.177 80.4707 211.318 80.452C209.601 80.396 208.304 79.9853 207.426 79.22C206.549 78.4733 206.11 77.4747 206.11 76.224C206.11 75.5893 206.213 75.02 206.418 74.516C206.624 73.9933 206.932 73.5453 207.342 73.172C207.772 72.7987 208.313 72.5093 208.966 72.304C209.638 72.0987 210.441 71.9867 211.374 71.968C212.028 71.9493 212.634 71.94 213.194 71.94C213.754 71.94 214.305 71.94 214.846 71.94V68.916H204.542V67.068H227.166ZM218.794 58.304L225.766 65.64H223.078L216.19 58.304H215.518L208.658 65.64H205.942L212.942 58.304H206.698V56.456H225.01V58.304H218.794ZM211.542 78.604C212.868 78.6227 214.296 78.632 215.826 78.632C217.376 78.632 218.813 78.6227 220.138 78.604C221.445 78.5667 222.35 78.352 222.854 77.96C223.358 77.5867 223.61 77.0173 223.61 76.252C223.61 75.86 223.554 75.5147 223.442 75.216C223.349 74.9173 223.172 74.6653 222.91 74.46C222.649 74.2547 222.285 74.1053 221.818 74.012C221.37 73.9 220.801 73.844 220.11 73.844C218.785 73.8253 217.357 73.816 215.826 73.816C214.314 73.816 212.896 73.8253 211.57 73.844C210.861 73.844 210.282 73.9 209.834 74.012C209.386 74.124 209.032 74.2827 208.77 74.488C208.509 74.6933 208.322 74.9453 208.21 75.244C208.117 75.524 208.07 75.86 208.07 76.252C208.07 77.0173 208.322 77.5867 208.826 77.96C209.33 78.352 210.236 78.5667 211.542 78.604ZM233.089 71.128C232.38 71.1093 231.764 70.9693 231.241 70.708C230.718 70.4467 230.28 70.1107 229.925 69.7C229.589 69.2893 229.328 68.832 229.141 68.328C228.973 67.8053 228.889 67.292 228.889 66.788C228.889 66.284 228.964 65.78 229.113 65.276C229.281 64.772 229.533 64.324 229.869 63.932C230.205 63.5213 230.644 63.1947 231.185 62.952C231.726 62.6907 232.38 62.5507 233.145 62.532C233.705 62.5133 234.19 62.504 234.601 62.504C235.03 62.504 235.441 62.504 235.833 62.504C236.225 62.504 236.626 62.5133 237.037 62.532C237.448 62.532 237.924 62.532 238.465 62.532C239.23 62.532 239.884 62.6627 240.425 62.924C240.966 63.1667 241.405 63.4933 241.741 63.904C242.077 64.3147 242.32 64.772 242.469 65.276C242.637 65.78 242.721 66.284 242.721 66.788C242.721 67.292 242.628 67.8053 242.441 68.328C242.273 68.832 242.012 69.2893 241.657 69.7C241.321 70.1107 240.882 70.4467 240.341 70.708C239.818 70.9693 239.212 71.1093 238.521 71.128C237.886 71.1467 237.364 71.1653 236.953 71.184C236.542 71.184 236.16 71.184 235.805 71.184C235.45 71.184 235.068 71.184 234.657 71.184C234.246 71.1653 233.724 71.1467 233.089 71.128ZM230.653 73.032H232.613V78.604H249.833V80.452H230.653V73.032ZM238.577 69.252C239.156 69.2147 239.641 68.9813 240.033 68.552C240.444 68.1227 240.649 67.5347 240.649 66.788C240.649 66.004 240.444 65.4067 240.033 64.996C239.641 64.5667 239.156 64.3427 238.577 64.324C237.569 64.2867 236.645 64.268 235.805 64.268C234.965 64.268 234.041 64.2867 233.033 64.324C232.454 64.3427 231.96 64.5667 231.549 64.996C231.157 65.4067 230.961 66.004 230.961 66.788C230.961 67.5347 231.157 68.1227 231.549 68.552C231.96 68.9813 232.454 69.2147 233.033 69.252C234.041 69.308 234.965 69.336 235.805 69.336C236.645 69.336 237.569 69.308 238.577 69.252ZM252.661 65.752H248.657V73.648H246.697V56.428H248.657V63.904H252.661V65.752ZM228.357 60.88V59.032H234.713L235.525 55.784H237.653L236.869 59.032H243.225V60.88H228.357ZM285.419 68.02H281.191V79.836H279.231V56.428H281.191V66.172H285.419V68.02ZM263.635 79.556H261.675L266.379 56.736H271.587L276.291 79.556H274.331L269.907 58.584H268.059L263.635 79.556ZM310.63 63.932H306.626V70.54H304.666V56.428H306.626V62.084H310.63V63.932ZM306.626 80.452H288.482V71.744H306.626V80.452ZM304.666 73.592H290.442V78.604H304.666V73.592ZM287.698 56.596H299.822V63.932H289.658V67.628H300.886V69.476H287.698V62.084H297.862V58.444H287.698V56.596Z" fill="#FFE927"/>
<path d="M316.213 73.592H331.053V70.372H333.013V80.452H314.253V70.372H316.213V73.592ZM325.033 60.852C324.995 61.6733 324.93 62.448 324.837 63.176C324.743 63.8853 324.631 64.492 324.501 64.996C324.314 65.724 324.015 66.3213 323.605 66.788C323.194 67.236 322.699 67.6 322.121 67.88C321.561 68.1413 320.935 68.328 320.245 68.44C319.554 68.5333 318.845 68.58 318.117 68.58C316.082 68.58 314.57 68.1507 313.581 67.292C312.591 66.4147 312.171 65.192 312.321 63.624C312.358 63.1573 312.414 62.6067 312.489 61.972C312.582 61.3187 312.713 60.6933 312.881 60.096C313.105 59.312 313.431 58.6773 313.861 58.192C314.29 57.688 314.794 57.296 315.373 57.016C315.951 56.7173 316.577 56.512 317.249 56.4C317.921 56.288 318.593 56.232 319.265 56.232C320.273 56.232 321.141 56.3627 321.869 56.624C322.615 56.8667 323.222 57.2027 323.689 57.632C324.174 58.0427 324.529 58.528 324.753 59.088C324.977 59.648 325.07 60.236 325.033 60.852ZM322.401 64.604C322.457 64.436 322.513 64.2213 322.569 63.96C322.643 63.68 322.709 63.3813 322.765 63.064C322.821 62.728 322.867 62.4013 322.905 62.084C322.942 61.748 322.961 61.44 322.961 61.16C322.979 60.5067 322.886 59.984 322.681 59.592C322.475 59.1813 322.195 58.864 321.841 58.64C321.505 58.416 321.103 58.2667 320.637 58.192C320.17 58.1173 319.675 58.08 319.153 58.08C318.761 58.08 318.341 58.108 317.893 58.164C317.463 58.22 317.053 58.332 316.661 58.5C316.269 58.668 315.914 58.9107 315.597 59.228C315.279 59.5453 315.037 59.9747 314.869 60.516C314.813 60.684 314.757 60.908 314.701 61.188C314.645 61.468 314.589 61.7573 314.533 62.056C314.495 62.3547 314.458 62.6533 314.421 62.952C314.383 63.2507 314.365 63.4933 314.365 63.68C314.346 64.3333 314.439 64.856 314.645 65.248C314.85 65.64 315.13 65.948 315.485 66.172C315.858 66.396 316.278 66.5453 316.745 66.62C317.23 66.6947 317.725 66.732 318.229 66.732C318.583 66.732 318.966 66.7133 319.377 66.676C319.806 66.62 320.217 66.5173 320.609 66.368C321.001 66.2187 321.355 66.004 321.673 65.724C321.99 65.444 322.233 65.0707 322.401 64.604ZM331.053 75.44H316.213V78.604H331.053V75.44ZM333.013 68.804H331.053V56.428H333.013V68.804ZM351.56 79.556H338.848V56.596H340.864V77.708H351.56V79.556ZM357.944 79.836H355.984V56.428H357.944V79.836ZM375.762 79.556H363.33V56.736H375.37V58.584H365.29V77.708H375.762V79.556ZM386.262 68.02H381.754V79.836H379.794V56.428H381.754V66.172H386.262V68.02Z" fill="white"/>
<rect opacity="0.2" x="155" y="35" width="257" height="13" rx="6.5" fill="black"/>
<path d="M164.95 26.39C164.95 25.35 165.097 24.4833 165.392 23.79C165.704 23.0967 166.12 22.5333 166.64 22.1C167.177 21.6667 167.81 21.346 168.538 21.138C169.266 20.93 170.055 20.8087 170.904 20.774C171.649 20.7393 172.291 20.7133 172.828 20.696C173.383 20.6787 173.894 20.67 174.362 20.67C174.847 20.67 175.315 20.6787 175.766 20.696C176.217 20.7133 176.719 20.7393 177.274 20.774C178.106 20.826 178.886 20.956 179.614 21.164C180.342 21.372 180.975 21.6927 181.512 22.126C182.049 22.542 182.474 23.0967 182.786 23.79C183.098 24.4833 183.254 25.35 183.254 26.39C183.254 27.43 183.098 28.3053 182.786 29.016C182.474 29.7093 182.049 30.2727 181.512 30.706C180.992 31.1393 180.368 31.46 179.64 31.668C178.912 31.8587 178.132 31.98 177.3 32.032C176.607 32.0667 176.017 32.1013 175.532 32.136C175.064 32.1533 174.605 32.162 174.154 32.162C173.721 32.162 173.253 32.1533 172.75 32.136C172.265 32.1013 171.649 32.0667 170.904 32.032C170.037 31.98 169.24 31.8587 168.512 31.668C167.784 31.46 167.151 31.1393 166.614 30.706C166.094 30.2727 165.687 29.7093 165.392 29.016C165.097 28.3053 164.95 27.43 164.95 26.39ZM166.77 26.39C166.77 27.0833 166.857 27.6727 167.03 28.158C167.221 28.626 167.489 29.016 167.836 29.328C168.2 29.6227 168.633 29.8567 169.136 30.03C169.639 30.186 170.202 30.29 170.826 30.342C171.329 30.394 171.857 30.4287 172.412 30.446C172.984 30.4633 173.556 30.472 174.128 30.472C174.7 30.472 175.263 30.4633 175.818 30.446C176.373 30.4113 176.901 30.3767 177.404 30.342C177.959 30.29 178.479 30.186 178.964 30.03C179.449 29.874 179.874 29.64 180.238 29.328C180.602 29.016 180.888 28.626 181.096 28.158C181.304 27.6727 181.408 27.0833 181.408 26.39C181.408 25.6967 181.304 25.116 181.096 24.648C180.905 24.1627 180.637 23.764 180.29 23.452C179.943 23.14 179.519 22.906 179.016 22.75C178.513 22.594 177.967 22.4987 177.378 22.464C176.91 22.4467 176.399 22.4293 175.844 22.412C175.307 22.3773 174.743 22.36 174.154 22.36C173.582 22.36 173.01 22.3687 172.438 22.386C171.866 22.4033 171.329 22.4293 170.826 22.464C170.254 22.516 169.717 22.62 169.214 22.776C168.729 22.932 168.304 23.166 167.94 23.478C167.576 23.7727 167.29 24.1627 167.082 24.648C166.874 25.116 166.77 25.6967 166.77 26.39ZM184.606 34.71V36.426H174.986V43.03H173.166V36.426H163.624V34.71H184.606ZM199.283 42.302H187.063V30.238H196.319V22.828H187.115V21.112H198.139V31.954H188.883V40.586H199.283V42.302ZM205.393 42.562H203.573V20.826H205.393V42.562ZM225.775 40.846V34.216H218.261V20.852H235.135V34.216H227.595V40.846H237.189V42.562H216.207V40.846H225.775ZM220.081 32.5H233.315V22.568H220.081V32.5ZM257.691 31.824H240.453V20.852H257.483V22.568H242.273V30.108H257.691V31.824ZM259.407 34.71V36.426H249.787V43.03H247.967V36.426H238.425V34.71H259.407Z" fill="#FFE927"/>
<path d="M281.598 32.032V33.748H260.59V32.032H281.598ZM262.644 35.88H264.464V41.392H279.908V43.108H262.644V35.88ZM279.648 28.964H262.644V20.852H264.464V27.248H279.648V28.964ZM310.797 34.71V36.426H301.177V43.03H299.357V36.426H289.815V34.71H310.797ZM308.847 31.512H291.843V20.852H293.663V29.796H308.847V31.512ZM332.989 30.68V32.396H323.889V37.934H322.069V32.396H311.981V30.68H332.989ZM328.361 28.938L328.933 22.646H313.541V20.93H330.987L330.285 28.938H328.361ZM314.035 35.516H315.855V41.392H331.299V43.108H314.035V35.516ZM334.614 21.112H346.418L342.882 42.302H340.932L344.156 22.828H334.614V21.112ZM356.662 31.59H352.944V42.562H351.124V20.826H352.944V29.874H356.662V31.59ZM373.26 42.562H371.44V31.59H367.93C367.792 32.8727 367.636 34.1033 367.462 35.282C367.289 36.4607 367.107 37.6827 366.916 38.948C366.778 39.676 366.561 40.274 366.266 40.742C365.989 41.21 365.651 41.574 365.252 41.834C364.854 42.1113 364.394 42.2933 363.874 42.38C363.372 42.484 362.834 42.536 362.262 42.536C361.309 42.536 360.529 42.406 359.922 42.146C359.316 41.9033 358.839 41.548 358.492 41.08C358.163 40.612 357.946 40.04 357.842 39.364C357.756 38.7053 357.756 37.96 357.842 37.128C358.033 35.1173 358.241 33.1413 358.466 31.2C358.709 29.2413 358.952 27.2047 359.194 25.09C359.316 24.2407 359.524 23.5473 359.818 23.01C360.113 22.4553 360.477 22.0133 360.91 21.684C361.344 21.3547 361.829 21.1293 362.366 21.008C362.921 20.8693 363.51 20.8 364.134 20.8C365.053 20.8 365.798 20.9213 366.37 21.164C366.942 21.4067 367.384 21.7447 367.696 22.178C368.026 22.594 368.242 23.0967 368.346 23.686C368.45 24.258 368.485 24.882 368.45 25.558C368.398 26.3553 368.346 27.1093 368.294 27.82C368.242 28.5307 368.182 29.2153 368.112 29.874H371.44V20.826H373.26V42.562ZM365.278 37.674C365.521 35.906 365.746 34.0773 365.954 32.188C366.18 30.2987 366.388 28.2273 366.578 25.974C366.63 25.246 366.613 24.6567 366.526 24.206C366.44 23.7553 366.292 23.4087 366.084 23.166C365.876 22.906 365.599 22.7327 365.252 22.646C364.923 22.5593 364.516 22.516 364.03 22.516C363.649 22.516 363.294 22.5593 362.964 22.646C362.635 22.7153 362.332 22.88 362.054 23.14C361.794 23.3827 361.56 23.738 361.352 24.206C361.162 24.674 361.014 25.298 360.91 26.078C360.754 27.2047 360.616 28.2533 360.494 29.224C360.39 30.1773 360.286 31.1047 360.182 32.006C360.096 32.9073 360.009 33.8087 359.922 34.71C359.853 35.594 359.784 36.5127 359.714 37.466C359.662 38.142 359.671 38.6967 359.74 39.13C359.827 39.5807 359.966 39.9273 360.156 40.17C360.364 40.4127 360.633 40.5773 360.962 40.664C361.309 40.768 361.734 40.82 362.236 40.82C362.618 40.82 362.973 40.7853 363.302 40.716C363.632 40.664 363.926 40.534 364.186 40.326C364.446 40.118 364.672 39.806 364.862 39.39C365.053 38.974 365.192 38.402 365.278 37.674ZM378.148 42.562H376.328V20.826H378.148V42.562ZM396.671 42.562H394.851V30.862H389.469L387.519 42.302H385.543L388.871 22.828H381.435V21.112H391.159L389.781 29.146H394.851V20.826H396.671V42.562ZM401.559 42.562H399.739V20.826H401.559V42.562Z" fill="white"/>
<circle cx="113" cy="59" r="24" transform="rotate(-180 113 59)" fill="white" fill-opacity="0.5"/>
<circle r="24" transform="matrix(1 8.74228e-08 8.74228e-08 -1 456 59)" fill="white" fill-opacity="0.5"/>
<circle cx="89" cy="34" r="17" transform="rotate(-180 89 34)" fill="white" fill-opacity="0.7"/>
<circle r="17" transform="matrix(1 8.74228e-08 8.74228e-08 -1 480 34)" fill="white" fill-opacity="0.7"/>
<circle cx="66" cy="75" r="10" transform="rotate(-180 66 75)" fill="white" fill-opacity="0.85"/>
<circle r="10" transform="matrix(1 8.74228e-08 8.74228e-08 -1 504 75)" fill="white" fill-opacity="0.85"/>
<path d="M48.035 55.415L50.825 55.415L50.825 58.28L52.295 58.28L52.295 55.415L55.085 55.415L55.085 54.095L52.295 54.095L52.295 51.23L50.825 51.23L50.825 54.095L48.035 54.095L48.035 55.415Z" fill="white"/>
<path d="M517.965 52.415L515.175 52.415L515.175 55.28L513.705 55.28L513.705 52.415L510.915 52.415L510.915 51.095L513.705 51.095L513.705 48.23L515.175 48.23L515.175 51.095L517.965 51.095L517.965 52.415Z" fill="white"/>
<path d="M110.035 22.415L112.825 22.415L112.825 25.28L114.295 25.28L114.295 22.415L117.085 22.415L117.085 21.095L114.295 21.095L114.295 18.23L112.825 18.23L112.825 21.095L110.035 21.095L110.035 22.415Z" fill="white"/>
<path d="M457.965 19.415L455.175 19.415L455.175 22.28L453.705 22.28L453.705 19.415L450.915 19.415L450.915 18.095L453.705 18.095L453.705 15.23L455.175 15.23L455.175 18.095L457.965 18.095L457.965 19.415Z" fill="white"/>
<path d="M148.035 73.415L150.825 73.415L150.825 76.28L152.295 76.28L152.295 73.415L155.085 73.415L155.085 72.095L152.295 72.095L152.295 69.23L150.825 69.23L150.825 72.095L148.035 72.095L148.035 73.415Z" fill="white"/>
<path d="M419.965 70.415L417.175 70.415L417.175 73.28L415.705 73.28L415.705 70.415L412.915 70.415L412.915 69.095L415.705 69.095L415.705 66.23L417.175 66.23L417.175 69.095L419.965 69.095L419.965 70.415Z" fill="white"/>
</svg>
