<svg width="568" height="100" viewBox="0 0 568 100" fill="none" xmlns="http://www.w3.org/2000/svg">
<rect width="568" height="100" fill="#6562FC"/>
<path d="M169.752 55.584L174.4 76.556H172.412L167.764 55.584H166.756L162.108 76.556H160.12L164.768 55.584H159.756V53.736H174.484V55.584H169.752ZM180.756 76.836H178.796V53.428H180.756V76.836ZM207.479 63.48V65.328H184.855V63.48H207.479ZM202.551 61.632L203.111 55.388H186.535V53.54H205.323L204.567 61.632H202.551ZM205.239 77.424H187.067V68.38H205.239V77.424ZM203.279 70.228H189.027V75.576H203.279V70.228ZM329.327 65.72C329.327 66.0933 329.3 66.6067 329.244 67.26C329.188 67.9133 329.113 68.604 329.02 69.332C328.926 70.06 328.814 70.7693 328.684 71.46C328.572 72.1507 328.45 72.7293 328.32 73.196C328.077 73.98 327.75 74.6053 327.34 75.072C326.929 75.5387 326.453 75.8933 325.912 76.136C325.389 76.3973 324.82 76.5747 324.204 76.668C323.606 76.7613 323 76.808 322.383 76.808C321.189 76.808 320.19 76.6587 319.388 76.36C318.604 76.0613 317.978 75.632 317.512 75.072C317.045 74.5307 316.737 73.8867 316.588 73.14C316.438 72.412 316.42 71.6093 316.532 70.732C316.588 70.2653 316.644 69.752 316.7 69.192C316.756 68.632 316.812 68.0907 316.868 67.568C316.942 67.0267 317.008 66.5227 317.064 66.056C317.138 65.5707 317.213 65.1693 317.288 64.852C317.474 63.956 317.782 63.228 318.212 62.668C318.66 62.108 319.173 61.6693 319.752 61.352C320.33 61.0347 320.956 60.82 321.628 60.708C322.3 60.596 322.972 60.54 323.644 60.54C324.633 60.54 325.492 60.6707 326.22 60.932C326.948 61.1933 327.545 61.5573 328.012 62.024C328.497 62.4907 328.842 63.0413 329.048 63.676C329.272 64.3107 329.365 64.992 329.327 65.72ZM326.668 71.684C326.836 70.8253 326.976 69.9013 327.088 68.912C327.2 67.9227 327.274 66.9893 327.312 66.112C327.349 65.328 327.265 64.6933 327.06 64.208C326.873 63.7227 326.602 63.3493 326.248 63.088C325.893 62.808 325.482 62.6213 325.016 62.528C324.549 62.4347 324.054 62.388 323.532 62.388C323.158 62.388 322.757 62.416 322.328 62.472C321.917 62.528 321.516 62.6493 321.124 62.836C320.732 63.0227 320.377 63.312 320.06 63.704C319.742 64.0773 319.5 64.5813 319.332 65.216C319.238 65.5893 319.145 66.0467 319.052 66.588C318.977 67.1107 318.902 67.6613 318.828 68.24C318.772 68.8 318.716 69.3507 318.66 69.892C318.604 70.4333 318.566 70.8907 318.548 71.264C318.492 71.992 318.557 72.5893 318.744 73.056C318.949 73.5413 319.229 73.924 319.584 74.204C319.957 74.484 320.386 74.68 320.872 74.792C321.357 74.904 321.852 74.96 322.356 74.96C322.766 74.96 323.196 74.9227 323.644 74.848C324.092 74.7733 324.512 74.6147 324.904 74.372C325.314 74.148 325.678 73.8213 325.996 73.392C326.313 72.9627 326.537 72.3933 326.668 71.684ZM340.052 66.224H336.048V76.836H334.088V53.428H336.048V64.376H340.052V66.224ZM316 59.224V57.376H322.412L323.252 53.064H325.38L324.54 57.376H330.644V59.224H316ZM343.198 76.556H341.238L344.962 53.736H349.33L353.054 76.556H351.094L347.65 55.584H346.642L343.198 76.556ZM351.794 62.92H355.966V53.428H357.926V76.836H355.966V64.768H351.794V62.92ZM363.022 76.836H361.062V53.428H363.022V76.836ZM371.937 74.988V67.344C370.649 66.896 369.623 66.112 368.857 64.992C368.092 63.872 367.709 62.416 367.709 60.624C367.709 59.504 367.868 58.5147 368.185 57.656C368.521 56.7973 368.969 56.0693 369.529 55.472C370.108 54.8747 370.789 54.4173 371.573 54.1C372.357 53.764 373.207 53.5773 374.121 53.54C374.924 53.5027 375.615 53.4747 376.193 53.456C376.791 53.4373 377.341 53.428 377.845 53.428C378.368 53.428 378.872 53.4373 379.357 53.456C379.843 53.4747 380.384 53.5027 380.981 53.54C381.877 53.596 382.717 53.792 383.501 54.128C384.285 54.4453 384.967 54.9027 385.545 55.5C386.124 56.0973 386.581 56.8253 386.917 57.684C387.253 58.524 387.421 59.504 387.421 60.624C387.421 62.3973 387.02 63.844 386.217 64.964C385.433 66.084 384.425 66.868 383.193 67.316V74.988H388.849V76.836H366.253V74.988H371.937ZM369.669 60.624C369.669 62.1173 370.052 63.34 370.817 64.292C371.601 65.244 372.675 65.7853 374.037 65.916C374.579 65.972 375.148 66.0093 375.745 66.028C376.361 66.0467 376.977 66.056 377.593 66.056C378.209 66.056 378.816 66.0467 379.413 66.028C380.011 65.9907 380.58 65.9533 381.121 65.916C381.719 65.86 382.279 65.692 382.801 65.412C383.324 65.132 383.781 64.768 384.173 64.32C384.565 63.8533 384.873 63.312 385.097 62.696C385.321 62.0613 385.433 61.3707 385.433 60.624C385.433 59.8773 385.321 59.196 385.097 58.58C384.892 57.9453 384.603 57.3947 384.229 56.928C383.856 56.4613 383.399 56.0973 382.857 55.836C382.316 55.556 381.728 55.3973 381.093 55.36C380.589 55.3413 380.039 55.3227 379.441 55.304C378.863 55.2667 378.256 55.248 377.621 55.248C377.005 55.248 376.389 55.2573 375.773 55.276C375.157 55.2947 374.579 55.3227 374.037 55.36C373.421 55.416 372.843 55.584 372.301 55.864C371.779 56.1253 371.321 56.4893 370.929 56.956C370.537 57.4227 370.229 57.964 370.005 58.58C369.781 59.196 369.669 59.8773 369.669 60.624ZM373.897 67.736V74.988H381.233V67.736H381.009C380.263 67.7733 379.628 67.8107 379.105 67.848C378.601 67.8667 378.107 67.876 377.621 67.876C377.155 67.876 376.651 67.8667 376.109 67.848C375.587 67.8107 374.924 67.7733 374.121 67.736H373.897ZM396.004 52.924L395.668 71.544H393.876L393.54 52.924H396.004ZM393.316 73.7H396.312V77.424H393.316V73.7ZM406.285 52.924L405.949 71.544H404.157L403.821 52.924H406.285ZM403.597 73.7H406.593V77.424H403.597V73.7Z" fill="white"/>
<path d="M223.272 77.452C221.555 77.396 220.258 76.9573 219.38 76.136C218.503 75.3147 218.064 74.2787 218.064 73.028C218.064 72.3933 218.167 71.8147 218.372 71.292C218.578 70.7507 218.886 70.284 219.296 69.892C219.726 69.4813 220.267 69.164 220.92 68.94C221.592 68.716 222.395 68.5947 223.328 68.576C224.187 68.5573 224.962 68.548 225.652 68.548C226.343 68.548 227.006 68.548 227.64 68.548C228.294 68.548 228.966 68.548 229.656 68.548C230.347 68.548 231.122 68.5573 231.98 68.576C232.895 68.576 233.688 68.688 234.36 68.912C235.032 69.136 235.574 69.4533 235.984 69.864C236.414 70.256 236.731 70.7227 236.936 71.264C237.142 71.8053 237.244 72.3933 237.244 73.028C237.244 74.2787 236.806 75.3147 235.928 76.136C235.051 76.9573 233.744 77.396 232.008 77.452C231.15 77.4707 230.375 77.48 229.684 77.48C228.994 77.4987 228.312 77.508 227.64 77.508C226.987 77.508 226.306 77.4987 225.596 77.48C224.906 77.48 224.131 77.4707 223.272 77.452ZM223.496 75.604C224.822 75.6227 226.203 75.632 227.64 75.632C229.096 75.632 230.487 75.6227 231.812 75.604C233.119 75.5667 234.024 75.324 234.528 74.876C235.032 74.428 235.284 73.8213 235.284 73.056C235.284 72.664 235.228 72.3093 235.116 71.992C235.023 71.6747 234.846 71.404 234.584 71.18C234.323 70.956 233.959 70.7787 233.492 70.648C233.044 70.5173 232.475 70.452 231.784 70.452C230.459 70.4333 229.078 70.424 227.64 70.424C226.222 70.424 224.85 70.4333 223.524 70.452C222.815 70.452 222.236 70.5173 221.788 70.648C221.34 70.7787 220.986 70.956 220.724 71.18C220.463 71.404 220.276 71.6747 220.164 71.992C220.071 72.3093 220.024 72.664 220.024 73.056C220.024 73.8213 220.276 74.428 220.78 74.876C221.284 75.324 222.19 75.5667 223.496 75.604ZM223.608 58.86V64.012H232.26V65.86H216.3V64.012H221.648V58.86H223.608ZM228.34 61.996L228.9 55.584H217.504V53.736H231.084L230.356 61.996H228.34ZM240.52 61.296H236.628V67.232H234.668V53.428H236.628V59.448H240.52V61.296ZM252.039 61.128V74.988H264.107V76.836H241.511V74.988H250.079V61.128H252.039ZM242.995 53.54H262.231L260.327 69.192H258.255L259.935 55.388H242.995V53.54ZM286.802 70.396H284.842V53.428H286.802V70.396ZM268.014 68.996H269.974V75.604H287.39V77.452H268.014V68.996ZM267.734 66.728H265.634L270.338 53.596H275.546L280.25 66.728H278.15L274.174 55.444H271.794L267.734 66.728ZM297.873 77.424C297.014 77.4053 296.258 77.256 295.605 76.976C294.97 76.7147 294.429 76.36 293.981 75.912C293.551 75.4827 293.225 74.9787 293.001 74.4C292.777 73.84 292.665 73.252 292.665 72.636C292.665 72.0013 292.767 71.404 292.973 70.844C293.178 70.2653 293.486 69.752 293.897 69.304C294.326 68.856 294.867 68.5013 295.521 68.24C296.193 67.9787 296.995 67.8387 297.929 67.82C298.787 67.8013 299.59 67.792 300.337 67.792C301.083 67.792 301.811 67.792 302.521 67.792C303.23 67.792 303.958 67.792 304.705 67.792C305.451 67.792 306.254 67.8013 307.113 67.82C308.027 67.82 308.821 67.9507 309.493 68.212C310.165 68.4733 310.706 68.828 311.117 69.276C311.546 69.724 311.863 70.2373 312.069 70.816C312.274 71.3947 312.377 72.0013 312.377 72.636C312.377 73.252 312.265 73.84 312.041 74.4C311.817 74.9787 311.481 75.4827 311.033 75.912C310.603 76.36 310.062 76.7147 309.409 76.976C308.755 77.256 307.999 77.4053 307.141 77.424C306.282 77.4427 305.479 77.452 304.733 77.452C303.986 77.4707 303.249 77.48 302.521 77.48C301.793 77.48 301.046 77.4707 300.281 77.452C299.534 77.452 298.731 77.4427 297.873 77.424ZM298.097 75.576C298.75 75.576 299.45 75.576 300.197 75.576C300.962 75.5947 301.737 75.604 302.521 75.604C303.305 75.604 304.07 75.5947 304.817 75.576C305.582 75.576 306.291 75.576 306.945 75.576C307.598 75.5573 308.139 75.464 308.569 75.296C309.017 75.128 309.371 74.9133 309.633 74.652C309.913 74.3907 310.109 74.0827 310.221 73.728C310.351 73.392 310.417 73.0373 310.417 72.664C310.417 72.272 310.361 71.8987 310.249 71.544C310.155 71.1893 309.978 70.8813 309.717 70.62C309.455 70.34 309.091 70.116 308.625 69.948C308.177 69.78 307.607 69.696 306.917 69.696C306.263 69.696 305.554 69.696 304.789 69.696C304.042 69.6773 303.286 69.668 302.521 69.668C301.755 69.668 300.99 69.6773 300.225 69.696C299.478 69.696 298.778 69.696 298.125 69.696C297.415 69.696 296.837 69.78 296.389 69.948C295.941 70.116 295.586 70.34 295.325 70.62C295.063 70.8813 294.877 71.1893 294.765 71.544C294.671 71.8987 294.625 72.272 294.625 72.664C294.625 73.0373 294.681 73.392 294.793 73.728C294.923 74.0827 295.119 74.3907 295.381 74.652C295.661 74.9133 296.015 75.128 296.445 75.296C296.893 75.464 297.443 75.5573 298.097 75.576ZM300.785 57.684L304.901 65.944H302.549L298.517 57.684H298.013L293.841 66.112H291.489L295.661 57.684H291.321V55.836H297.173L297.929 52.812H300.057L299.329 55.836H305.125V57.684H300.785ZM304.621 60.344H310.053V53.428H312.013V66.7H310.053V62.192H304.621V60.344Z" fill="#FFE927"/>
<g opacity="0.5">
<rect x="182" y="19" width="191" height="25" rx="12.5" fill="black"/>
</g>
<path d="M203.415 24.75V27.96H201.255L201.36 29.355H203.415V32.595H201.36L201.255 33.99H203.415V37.56H204.885V24.75H203.415ZM197.1 25.05C194.85 25.05 193.305 26.94 193.305 31.005C193.305 35.07 194.85 36.96 197.1 36.96C199.335 36.96 200.88 35.07 200.88 31.005C200.88 26.94 199.335 25.05 197.1 25.05ZM197.1 35.595C195.765 35.595 194.775 34.26 194.775 31.005C194.775 27.765 195.765 26.415 197.1 26.415C198.42 26.415 199.395 27.765 199.395 31.005C199.395 34.26 198.42 35.595 197.1 35.595ZM217.724 37.56H219.209V24.75H217.724V37.56ZM207.854 36.765C212.234 36.765 214.964 33.435 214.964 28.305V25.215H207.854V26.58H213.449V28.335C213.449 32.625 211.349 35.34 207.854 35.355V36.765ZM232.587 24.75V37.56H233.997V24.75H232.587ZM229.497 30.09H227.787C227.637 26.595 226.617 25.05 224.832 25.05C222.897 25.05 221.847 26.865 221.847 31.005C221.847 35.145 222.897 36.96 224.832 36.96C226.692 36.96 227.712 35.295 227.802 31.5H229.497V37.335H230.892V24.825H229.497V30.09ZM224.832 35.61C223.767 35.61 223.257 34.155 223.257 31.005C223.257 27.855 223.767 26.4 224.832 26.4C225.897 26.4 226.392 27.855 226.392 31.005C226.392 34.155 225.897 35.61 224.832 35.61ZM251.94 27.615V24.75H250.455V32.58H251.94V28.995H253.71V27.615H251.94ZM246.675 29.445H248.16V24.96H240.93V26.205H246.675V29.445ZM249.39 31.11V29.895C248.505 30.27 246.945 30.405 245.19 30.405H244.29V27.735H242.82V30.405H240.315V31.62H245.145C246.975 31.62 248.58 31.47 249.39 31.11ZM246.615 32.64C243.42 32.64 241.065 33.39 241.065 35.13C241.065 36.855 243.42 37.605 246.615 37.605C249.81 37.605 252.165 36.855 252.165 35.13C252.165 33.39 249.81 32.64 246.615 32.64ZM246.615 36.45C244.35 36.45 242.625 36.075 242.625 35.13C242.625 34.185 244.35 33.795 246.615 33.795C248.88 33.795 250.605 34.185 250.605 35.13C250.605 36.075 248.88 36.45 246.615 36.45ZM265.139 33.66H266.684V25.2H255.524V26.595H265.139V33.66ZM261.044 35.55V29.835H259.514V35.55H254.744V36.945H267.539V35.55H261.044ZM282.568 29.94H280.768V24.75H279.283V37.56H280.768V31.365H282.568V29.94ZM269.638 26.58H275.098V28.335C275.098 32.625 273.118 35.34 269.638 35.355V36.765C273.988 36.765 276.613 33.405 276.613 28.305V25.215H269.638V26.58ZM297.405 35.58V32.58H299.925V31.23H297.66V26.655H299.79V25.29H288.6V26.655H290.73V31.23H288.465V32.58H291V35.58H287.805V36.945H300.6V35.58H297.405ZM292.23 26.655H296.16V31.23H292.23V26.655ZM292.485 32.58H295.92V35.58H292.485V32.58ZM312.704 24.75V37.56H314.189V24.75H312.704ZM307.964 25.125L306.449 25.065C306.434 30.45 305.024 34.89 302.459 35.295V36.795C304.484 36.645 306.044 34.935 306.989 32.115L310.394 36.765L311.594 35.91L307.454 30.39C307.784 28.86 307.949 27.09 307.964 25.125ZM327.163 24.75V32.13H328.648V24.75H327.163ZM326.098 31.515V30.33C325.213 30.72 323.653 30.84 321.898 30.84H321.838V29.415H324.988V28.26H318.868V26.145H324.838V24.99H317.413V29.415H320.368V30.84H316.663V32.025H321.853C323.683 32.025 325.288 31.875 326.098 31.515ZM327.178 33.915H319.303V32.835H317.818V37.395H328.648V32.835H327.178V33.915ZM319.303 36.24V35.055H327.178V36.24H319.303ZM341.562 37.575L343.047 37.56V24.75H341.562V37.575ZM331.827 36.795H337.062C338.292 36.795 339.597 36.555 340.377 36.165V34.8C339.597 35.175 338.277 35.43 337.062 35.43H333.342V25.14H331.827V36.795ZM358.915 29.94H357.115V24.75H355.63V37.56H357.115V31.365H358.915V29.94ZM347.635 35.445V26.565H353.515V25.215H346.12V36.795H351.13C352.36 36.795 353.74 36.57 354.52 36.18V34.83C353.74 35.205 352.42 35.445 351.205 35.445H347.635ZM361.059 37.44C361.659 37.44 362.109 36.975 362.109 36.375C362.109 35.775 361.659 35.31 361.059 35.31C360.459 35.31 359.994 35.775 359.994 36.375C359.994 36.975 360.459 37.44 361.059 37.44Z" fill="white"/>
<circle cx="442" cy="42" r="24" fill="white" fill-opacity="0.5"/>
<circle r="24" transform="matrix(-1 0 0 1 125 42)" fill="white" fill-opacity="0.5"/>
<circle cx="466" cy="67" r="17" fill="white" fill-opacity="0.8"/>
<circle r="17" transform="matrix(-1 0 0 1 101 67)" fill="white" fill-opacity="0.8"/>
<circle cx="486" cy="25" r="10" fill="white"/>
<circle r="10" transform="matrix(-1 0 0 1 81 25)" fill="white"/>
<path d="M500.965 44.585H498.175V41.72H496.705V44.585H493.915V45.905H496.705V48.77H498.175V45.905H500.965V44.585Z" fill="white"/>
<path d="M67.035 47.585H69.825V44.72H71.295V47.585H74.085V48.905H71.295V51.77H69.825V48.905H67.035V47.585Z" fill="white"/>
<path d="M444.965 78.585H442.175V75.72H440.705V78.585H437.915V79.905H440.705V82.77H442.175V79.905H444.965V78.585Z" fill="white"/>
<path d="M123.035 81.585H125.825V78.72H127.295V81.585H130.085V82.905H127.295V85.77H125.825V82.905H123.035V81.585Z" fill="white"/>
<path d="M406.965 27.585H404.175V24.72H402.705V27.585H399.915V28.905H402.705V31.77H404.175V28.905H406.965V27.585Z" fill="white"/>
<path d="M161.035 30.585H163.825V27.72H165.295V30.585H168.085V31.905H165.295V34.77H163.825V31.905H161.035V30.585Z" fill="white"/>
</svg>
