<svg width="568" height="100" viewBox="0 0 568 100" fill="none" xmlns="http://www.w3.org/2000/svg">
<rect width="568" height="100" fill="#FBEC64"/>
<path d="M130.932 33.936V22.596H132.892V26.572H141.376V22.596H143.336V33.936H130.932ZM146.304 39.872L151.764 46.424H149.244L143.644 39.872H141.628L134.88 46.424H131.744L138.632 39.872H131.94V38.024H140.872L142.356 35.168H144.876L143.392 38.024H151.26V39.872H146.304ZM141.376 32.088V28.42H132.892V32.088H141.376ZM151.036 35.14H149.076V22.428H151.036V35.14ZM168.519 45.556H156.647V22.596H158.663V43.708H168.519V45.556ZM179.075 34.02H174.511V45.836H172.551V22.428H174.511V32.172H179.075V34.02ZM202.69 34.496V36.344H180.066V34.496H202.69ZM182.278 38.64H184.238V44.576H200.87V46.424H182.278V38.64ZM200.59 31.192H182.278V22.456H184.238V29.344H200.59V31.192ZM218.679 46.424C217.821 46.4053 217.065 46.2467 216.411 45.948C215.777 45.668 215.235 45.2947 214.787 44.828C214.358 44.3613 214.031 43.8293 213.807 43.232C213.583 42.6533 213.471 42.056 213.471 41.44C213.471 40.8053 213.574 40.1893 213.779 39.592C213.985 38.9947 214.293 38.472 214.703 38.024C215.133 37.5573 215.674 37.184 216.327 36.904C216.999 36.6053 217.802 36.4467 218.735 36.428C219.594 36.4093 220.378 36.4 221.087 36.4C221.815 36.4 222.515 36.4 223.187 36.4C223.878 36.4 224.578 36.4 225.287 36.4C226.015 36.4 226.809 36.4093 227.667 36.428C228.582 36.428 229.375 36.5773 230.047 36.876C230.719 37.156 231.261 37.5293 231.671 37.996C232.101 38.4627 232.418 38.9947 232.623 39.592C232.829 40.1893 232.931 40.8053 232.931 41.44C232.931 42.056 232.819 42.6533 232.595 43.232C232.371 43.8293 232.035 44.3613 231.587 44.828C231.158 45.2947 230.617 45.668 229.963 45.948C229.31 46.2467 228.554 46.4053 227.695 46.424C226.837 46.4427 226.043 46.452 225.315 46.452C224.606 46.4707 223.897 46.48 223.187 46.48C222.497 46.48 221.787 46.4707 221.059 46.452C220.331 46.452 219.538 46.4427 218.679 46.424ZM235.731 29.456H231.727V35H229.767V22.428H231.727V27.608H235.731V29.456ZM218.903 44.576C220.229 44.5947 221.657 44.604 223.187 44.604C224.737 44.604 226.174 44.5947 227.499 44.576C228.153 44.5573 228.694 44.4547 229.123 44.268C229.571 44.0813 229.926 43.8387 230.187 43.54C230.467 43.26 230.663 42.9333 230.775 42.56C230.906 42.2053 230.971 41.8413 230.971 41.468C230.971 41.076 230.915 40.6933 230.803 40.32C230.71 39.9467 230.533 39.6107 230.271 39.312C230.01 39.0133 229.646 38.7707 229.179 38.584C228.731 38.3973 228.162 38.304 227.471 38.304C226.146 38.2853 224.718 38.276 223.187 38.276C221.675 38.276 220.257 38.2853 218.931 38.304C218.222 38.304 217.643 38.3973 217.195 38.584C216.747 38.7707 216.393 39.0133 216.131 39.312C215.87 39.6107 215.683 39.9467 215.571 40.32C215.478 40.6933 215.431 41.076 215.431 41.468C215.431 41.8413 215.487 42.2053 215.599 42.56C215.73 42.9333 215.926 43.26 216.187 43.54C216.467 43.8387 216.822 44.0813 217.251 44.268C217.699 44.4547 218.25 44.5573 218.903 44.576ZM225.483 34.132H212.799V22.736H224.783V24.584H214.759V32.284H225.483V34.132ZM258.114 39.396H256.154V22.428H258.114V39.396ZM239.326 37.996H241.286V44.604H258.702V46.452H239.326V37.996ZM239.046 35.728H236.946L241.65 22.596H246.858L251.562 35.728H249.462L245.486 24.444H243.106L239.046 35.728ZM283.101 45.836H281.141V22.428H283.101V45.836ZM278.621 43.708V45.556H261.933V43.708H278.621ZM276.241 27.524C276.222 27.972 276.185 28.56 276.129 29.288C276.092 29.9973 276.045 30.7253 275.989 31.472C275.933 32.2187 275.868 32.9187 275.793 33.572C275.718 34.2067 275.644 34.692 275.569 35.028C275.382 35.8307 275.074 36.4933 274.645 37.016C274.216 37.52 273.702 37.9213 273.105 38.22C272.526 38.5187 271.882 38.724 271.173 38.836C270.482 38.948 269.773 39.004 269.045 39.004C268.037 39.004 267.141 38.8827 266.357 38.64C265.573 38.3787 264.92 38.0147 264.397 37.548C263.874 37.0813 263.482 36.512 263.221 35.84C262.978 35.1493 262.894 34.3653 262.969 33.488C262.988 33.2267 263.016 32.788 263.053 32.172C263.09 31.556 263.128 30.9027 263.165 30.212C263.221 29.5027 263.277 28.8213 263.333 28.168C263.389 27.5147 263.464 27.02 263.557 26.684C263.781 25.8253 264.126 25.1253 264.593 24.584C265.06 24.0427 265.592 23.6227 266.189 23.324C266.805 23.0067 267.458 22.792 268.149 22.68C268.84 22.568 269.521 22.512 270.193 22.512C271.257 22.512 272.172 22.6427 272.937 22.904C273.721 23.1653 274.356 23.5293 274.841 23.996C275.345 24.444 275.709 24.976 275.933 25.592C276.176 26.1893 276.278 26.8333 276.241 27.524ZM273.525 34.776C273.6 34.5147 273.674 34.076 273.749 33.46C273.824 32.8253 273.889 32.1533 273.945 31.444C274.001 30.716 274.048 30.0253 274.085 29.372C274.122 28.7 274.15 28.2053 274.169 27.888C274.188 27.104 274.085 26.488 273.861 26.04C273.637 25.5733 273.329 25.2187 272.937 24.976C272.545 24.7147 272.097 24.5467 271.593 24.472C271.108 24.3973 270.604 24.36 270.081 24.36C269.689 24.36 269.26 24.388 268.793 24.444C268.345 24.5 267.897 24.6307 267.449 24.836C267.02 25.0227 266.628 25.3027 266.273 25.676C265.937 26.0307 265.694 26.5253 265.545 27.16C265.489 27.4213 265.424 27.8693 265.349 28.504C265.293 29.1387 265.237 29.8107 265.181 30.52C265.144 31.2107 265.106 31.8733 265.069 32.508C265.032 33.124 265.013 33.572 265.013 33.852C264.994 34.58 265.097 35.1587 265.321 35.588C265.564 36.0173 265.881 36.3533 266.273 36.596C266.684 36.82 267.141 36.9693 267.645 37.044C268.149 37.1187 268.653 37.156 269.157 37.156C269.512 37.156 269.904 37.1373 270.333 37.1C270.781 37.044 271.21 36.9413 271.621 36.792C272.05 36.624 272.433 36.3813 272.769 36.064C273.105 35.7467 273.357 35.3173 273.525 34.776ZM151.792 79.836H149.832V68.328H145.464V79.836H143.504V56.428H145.464V66.48H149.832V56.428H151.792V79.836ZM140.788 79.556H131.436V56.456H133.452V77.708H140.788V79.556ZM168.267 60.768C168.248 61.1787 168.22 61.5333 168.183 61.832C168.164 62.112 168.136 62.3733 168.099 62.616C168.062 62.8587 168.015 63.092 167.959 63.316C167.922 63.5213 167.875 63.7453 167.819 63.988C167.632 64.716 167.334 65.3133 166.923 65.78C166.512 66.228 166.018 66.592 165.439 66.872C164.879 67.1333 164.254 67.32 163.563 67.432C162.872 67.5253 162.163 67.572 161.435 67.572C159.4 67.572 157.888 67.1427 156.899 66.284C155.91 65.4067 155.49 64.184 155.639 62.616C155.658 62.392 155.676 62.1867 155.695 62C155.714 61.7947 155.742 61.5987 155.779 61.412C155.816 61.2067 155.854 61.0013 155.891 60.796C155.947 60.572 156.022 60.3107 156.115 60.012C156.339 59.228 156.666 58.5933 157.095 58.108C157.524 57.6227 158.028 57.24 158.607 56.96C159.186 56.68 159.811 56.4933 160.483 56.4C161.155 56.288 161.827 56.232 162.499 56.232C163.507 56.232 164.375 56.3533 165.103 56.596C165.85 56.8387 166.456 57.1653 166.923 57.576C167.408 57.9867 167.763 58.472 167.987 59.032C168.211 59.5733 168.304 60.152 168.267 60.768ZM176.247 75.44H159.867V78.604H176.667V80.452H157.907V73.592H174.287V70.82H157.907V68.972H176.247V75.44ZM165.719 63.596C165.831 63.2787 165.934 62.9147 166.027 62.504C166.12 62.0933 166.176 61.6173 166.195 61.076C166.214 60.4227 166.12 59.9 165.915 59.508C165.71 59.116 165.43 58.8173 165.075 58.612C164.739 58.388 164.338 58.248 163.871 58.192C163.404 58.1173 162.91 58.08 162.387 58.08C161.995 58.08 161.575 58.108 161.127 58.164C160.698 58.2013 160.287 58.304 159.895 58.472C159.503 58.6213 159.148 58.8547 158.831 59.172C158.514 59.4707 158.271 59.8907 158.103 60.432C158.01 60.768 157.916 61.132 157.823 61.524C157.748 61.8973 157.702 62.28 157.683 62.672C157.664 63.3253 157.758 63.848 157.963 64.24C158.168 64.632 158.448 64.94 158.803 65.164C159.176 65.388 159.596 65.5373 160.063 65.612C160.548 65.6867 161.043 65.724 161.547 65.724C161.902 65.724 162.284 65.7053 162.695 65.668C163.124 65.612 163.535 65.5093 163.927 65.36C164.319 65.2107 164.674 64.996 164.991 64.716C165.308 64.436 165.551 64.0627 165.719 63.596ZM176.247 67.516H174.287V56.428H176.247V67.516ZM181.858 60.32C181.858 59.1253 182.259 58.22 183.062 57.604C183.883 56.9693 185.059 56.5867 186.59 56.456C187.281 56.4 188.027 56.3627 188.83 56.344C189.651 56.3067 190.473 56.288 191.294 56.288C192.115 56.288 192.927 56.3067 193.73 56.344C194.551 56.3627 195.307 56.4 195.998 56.456C197.547 56.5867 198.723 56.9693 199.526 57.604C200.347 58.22 200.758 59.1253 200.758 60.32C200.758 61.5147 200.347 62.4293 199.526 63.064C198.723 63.6987 197.547 64.0813 195.998 64.212C195.307 64.268 194.551 64.3147 193.73 64.352C192.927 64.3707 192.115 64.38 191.294 64.38C190.473 64.38 189.651 64.3707 188.83 64.352C188.027 64.3147 187.281 64.268 186.59 64.212C185.059 64.0813 183.883 63.6987 183.062 63.064C182.259 62.4293 181.858 61.5147 181.858 60.32ZM200.45 76.084H184.238V78.576H200.87V80.424H182.278V74.236H198.49V72.08H182.278V70.232H200.45V76.084ZM183.818 60.32C183.818 60.9733 184.042 61.4587 184.49 61.776C184.957 62.0933 185.694 62.2893 186.702 62.364C187.355 62.4013 188.083 62.4387 188.886 62.476C189.689 62.4947 190.501 62.504 191.322 62.504C192.162 62.504 192.974 62.4947 193.758 62.476C194.561 62.4573 195.289 62.42 195.942 62.364C196.95 62.2707 197.678 62.0653 198.126 61.748C198.574 61.4307 198.798 60.9547 198.798 60.32C198.798 59.6853 198.574 59.2187 198.126 58.92C197.678 58.6027 196.95 58.3973 195.942 58.304C195.289 58.248 194.561 58.2107 193.758 58.192C192.974 58.1547 192.162 58.136 191.322 58.136C190.501 58.136 189.689 58.1547 188.886 58.192C188.083 58.2107 187.355 58.248 186.702 58.304C185.694 58.3787 184.957 58.5747 184.49 58.892C184.042 59.1907 183.818 59.6667 183.818 60.32ZM202.69 66.284V68.132H180.066V66.284H202.69ZM234.135 67.684V69.532H211.511V67.684H234.135ZM218.287 80.452C216.57 80.396 215.273 79.9573 214.395 79.136C213.518 78.3333 213.079 77.3067 213.079 76.056C213.079 75.4213 213.182 74.8427 213.387 74.32C213.593 73.7787 213.901 73.312 214.311 72.92C214.741 72.528 215.282 72.22 215.935 71.996C216.607 71.772 217.41 71.6507 218.343 71.632C219.202 71.6133 219.986 71.604 220.695 71.604C221.423 71.604 222.123 71.604 222.795 71.604C223.486 71.604 224.186 71.604 224.895 71.604C225.623 71.604 226.417 71.6133 227.275 71.632C228.19 71.632 228.983 71.744 229.655 71.968C230.327 72.192 230.869 72.5 231.279 72.892C231.709 73.284 232.026 73.7507 232.231 74.292C232.437 74.8333 232.539 75.4213 232.539 76.056C232.539 77.3067 232.101 78.3333 231.223 79.136C230.346 79.9573 229.039 80.396 227.303 80.452C226.445 80.4707 225.651 80.48 224.923 80.48C224.214 80.4987 223.505 80.508 222.795 80.508C222.105 80.508 221.395 80.4987 220.667 80.48C219.939 80.48 219.146 80.4707 218.287 80.452ZM218.511 78.604C219.837 78.6227 221.265 78.632 222.795 78.632C224.345 78.632 225.782 78.6227 227.107 78.604C228.414 78.5667 229.319 78.324 229.823 77.876C230.327 77.4467 230.579 76.8493 230.579 76.084C230.579 75.692 230.523 75.3373 230.411 75.02C230.318 74.7027 230.141 74.432 229.879 74.208C229.618 73.984 229.254 73.816 228.787 73.704C228.339 73.5733 227.77 73.508 227.079 73.508C225.754 73.4893 224.326 73.48 222.795 73.48C221.283 73.48 219.865 73.4893 218.539 73.508C217.83 73.508 217.251 73.5733 216.803 73.704C216.355 73.8347 216.001 74.012 215.739 74.236C215.478 74.46 215.291 74.7307 215.179 75.048C215.086 75.3467 215.039 75.692 215.039 76.084C215.039 76.8493 215.291 77.4467 215.795 77.876C216.299 78.324 217.205 78.5667 218.511 78.604ZM213.303 60.88C213.303 59.536 213.705 58.5 214.507 57.772C215.329 57.044 216.505 56.6147 218.035 56.484C218.726 56.428 219.473 56.3907 220.275 56.372C221.097 56.3347 221.918 56.316 222.739 56.316C223.561 56.316 224.373 56.3347 225.175 56.372C225.997 56.3907 226.753 56.428 227.443 56.484C228.993 56.6147 230.169 57.044 230.971 57.772C231.793 58.5 232.203 59.536 232.203 60.88C232.203 62.224 231.793 63.26 230.971 63.988C230.169 64.716 228.993 65.1453 227.443 65.276C226.753 65.332 225.997 65.3787 225.175 65.416C224.373 65.4347 223.561 65.444 222.739 65.444C221.918 65.444 221.097 65.4347 220.275 65.416C219.473 65.3787 218.726 65.332 218.035 65.276C216.505 65.1453 215.329 64.716 214.507 63.988C213.705 63.26 213.303 62.224 213.303 60.88ZM215.263 60.88C215.263 61.664 215.487 62.2707 215.935 62.7C216.402 63.1107 217.139 63.3533 218.147 63.428C218.801 63.4653 219.529 63.5027 220.331 63.54C221.134 63.5587 221.946 63.568 222.767 63.568C223.607 63.568 224.419 63.5587 225.203 63.54C226.006 63.5213 226.734 63.484 227.387 63.428C228.395 63.3347 229.123 63.0827 229.571 62.672C230.019 62.2613 230.243 61.664 230.243 60.88C230.243 60.096 230.019 59.4987 229.571 59.088C229.123 58.6773 228.395 58.4253 227.387 58.332C226.734 58.276 226.006 58.2387 225.203 58.22C224.419 58.1827 223.607 58.164 222.767 58.164C221.946 58.164 221.134 58.1827 220.331 58.22C219.529 58.2387 218.801 58.276 218.147 58.332C217.139 58.4067 216.402 58.6587 215.935 59.088C215.487 59.4987 215.263 60.096 215.263 60.88ZM236.194 61.216C236.194 60.264 236.352 59.48 236.67 58.864C236.987 58.2293 237.398 57.7347 237.902 57.38C238.424 57.0067 239.012 56.7453 239.666 56.596C240.319 56.4467 240.982 56.372 241.654 56.372H244.622C245.238 56.3907 245.844 56.4653 246.442 56.596C247.058 56.7267 247.618 56.9507 248.122 57.268C248.626 57.5667 249.046 57.9773 249.382 58.5C249.736 59.004 249.96 59.648 250.054 60.432H254.618V56.428H256.578V73.956H254.618V62.28H250.026C249.914 63.008 249.68 63.6147 249.326 64.1C248.971 64.5853 248.542 64.968 248.038 65.248C247.552 65.528 247.011 65.7333 246.414 65.864C245.816 65.976 245.228 66.0413 244.65 66.06H241.654C240.963 66.0413 240.291 65.9573 239.638 65.808C238.984 65.6587 238.396 65.4067 237.874 65.052C237.37 64.6787 236.959 64.184 236.642 63.568C236.343 62.952 236.194 62.168 236.194 61.216ZM238.238 61.216C238.238 62.1867 238.518 62.9333 239.078 63.456C239.638 63.9787 240.636 64.268 242.074 64.324H244.258C245.658 64.2867 246.638 64.0067 247.198 63.484C247.758 62.9427 248.038 62.1867 248.038 61.216C248.038 60.2453 247.748 59.4893 247.17 58.948C246.61 58.388 245.62 58.108 244.202 58.108H242.074C240.636 58.164 239.638 58.4533 239.078 58.976C238.518 59.4987 238.238 60.2453 238.238 61.216ZM237.622 72.836H239.582V78.604H257.082V80.452H237.622V72.836ZM251.818 67.908V69.756H244.51V73.844H242.55V69.756H235.438V67.908H251.818ZM264.653 73.816H278.877V70.876H280.837V80.452H262.693V70.876H264.653V73.816ZM265.185 69.336C264.475 69.3173 263.859 69.2053 263.337 69C262.833 68.7947 262.413 68.524 262.077 68.188C261.741 67.852 261.489 67.46 261.321 67.012C261.153 66.564 261.069 66.088 261.069 65.584C261.069 65.08 261.143 64.6133 261.293 64.184C261.442 63.736 261.675 63.3533 261.993 63.036C262.329 62.7 262.758 62.4387 263.281 62.252C263.822 62.0467 264.475 61.9347 265.241 61.916C265.801 61.8973 266.295 61.888 266.725 61.888C267.173 61.888 267.602 61.888 268.013 61.888C268.423 61.888 268.843 61.8973 269.273 61.916C269.702 61.916 270.187 61.916 270.729 61.916C271.494 61.916 272.138 62.0187 272.661 62.224C273.202 62.4107 273.631 62.672 273.949 63.008C274.285 63.3253 274.527 63.708 274.677 64.156C274.826 64.604 274.901 65.08 274.901 65.584C274.901 66.088 274.817 66.564 274.649 67.012C274.481 67.46 274.229 67.852 273.893 68.188C273.557 68.524 273.127 68.7947 272.605 69C272.082 69.2053 271.475 69.3173 270.785 69.336C270.15 69.3547 269.618 69.3733 269.189 69.392C268.759 69.392 268.358 69.392 267.985 69.392C267.611 69.392 267.21 69.392 266.781 69.392C266.351 69.3733 265.819 69.3547 265.185 69.336ZM278.877 75.664H264.653V78.604H278.877V75.664ZM270.841 67.46C271.419 67.4227 271.895 67.2547 272.269 66.956C272.642 66.6387 272.829 66.1813 272.829 65.584C272.829 64.9493 272.642 64.4827 272.269 64.184C271.895 63.8853 271.419 63.7267 270.841 63.708C269.833 63.6707 268.881 63.652 267.985 63.652C267.089 63.652 266.137 63.6707 265.129 63.708C264.55 63.7267 264.074 63.8853 263.701 64.184C263.327 64.4827 263.141 64.9493 263.141 65.584C263.141 66.1813 263.327 66.6387 263.701 66.956C264.074 67.2547 264.55 67.4227 265.129 67.46C266.137 67.516 267.089 67.544 267.985 67.544C268.881 67.544 269.833 67.516 270.841 67.46ZM284.841 63.792H280.837V69.7H278.877V56.428H280.837V61.944H284.841V63.792ZM260.537 60.348V58.5H267.005L267.705 55.784H269.833L269.189 58.5H275.405V60.348H260.537ZM300.56 79.556H287.848V56.596H289.864V77.708H300.56V79.556ZM306.944 79.836H304.984V56.428H306.944V79.836ZM324.762 79.556H312.33V56.736H324.37V58.584H314.29V77.708H324.762V79.556ZM335.262 68.02H330.754V79.836H328.794V56.428H330.754V66.172H335.262V68.02Z" fill="black"/>
<rect x="366" y="32" width="27" height="27" rx="13.5" fill="#ADD2F9"/>
<rect x="355" y="37" width="22" height="22" rx="11" fill="#ADD2F9"/>
<circle cx="410" cy="46" r="29" fill="#F6C358"/>
<circle cx="410.5" cy="46.5" r="23.5" fill="#FF9B53"/>
<path d="M464.582 40.2884L462.61 38.3156L464.635 36.2897L463.596 35.2503L461.57 37.2761L459.597 35.3033L458.664 36.2367L460.637 38.2095L458.611 40.2354L459.65 41.2748L461.676 39.249L463.649 41.2218L464.582 40.2884Z" fill="white"/>
<path d="M506.582 57.2884L504.61 55.3156L506.635 53.2897L505.596 52.2503L503.57 54.2761L501.597 52.3033L500.664 53.2367L502.637 55.2095L500.611 57.2354L501.65 58.2748L503.676 56.249L505.649 58.2218L506.582 57.2884Z" fill="#F6C358"/>
<path d="M327.582 41.2884L325.61 39.3156L327.635 37.2897L326.596 36.2503L324.57 38.2761L322.597 36.3033L321.664 37.2367L323.637 39.2095L321.611 41.2354L322.65 42.2748L324.676 40.249L326.649 42.2218L327.582 41.2884Z" fill="#FBBC05"/>
<path d="M104.582 39.2884L102.61 37.3156L104.635 35.2897L103.596 34.2503L101.57 36.2761L99.5973 34.3033L98.6639 35.2367L100.637 37.2095L98.6109 39.2354L99.6503 40.2748L101.676 38.249L103.649 40.2218L104.582 39.2884Z" fill="white"/>
<path d="M349.582 29.2884L347.61 27.3156L349.635 25.2897L348.596 24.2503L346.57 26.2761L344.597 24.3033L343.664 25.2367L345.637 27.2095L343.611 29.2354L344.65 30.2748L346.676 28.249L348.649 30.2218L349.582 29.2884Z" fill="white"/>
<path d="M392.582 85.2884L390.61 83.3156L392.635 81.2897L391.596 80.2503L389.57 82.2761L387.597 80.3033L386.664 81.2367L388.637 83.2095L386.611 85.2354L387.65 86.2748L389.676 84.249L391.649 86.2218L392.582 85.2884Z" fill="#FBBC05"/>
<path d="M71.5824 73.2884L69.6095 71.3156L71.6354 69.2897L70.596 68.2503L68.5701 70.2761L66.5973 68.3033L65.6639 69.2367L67.6367 71.2095L65.6109 73.2354L66.6503 74.2748L68.6762 72.249L70.649 74.2218L71.5824 73.2884Z" fill="#F6C358"/>
<rect x="432" y="50" width="34" height="36" rx="17" fill="#C4E2FF"/>
<rect x="450" y="58" width="28" height="27" rx="13.5" fill="#C4E2FF"/>
<rect x="418" y="58" width="28" height="27" rx="13.5" fill="#C4E2FF"/>
<circle cx="439" cy="27" r="10" fill="white" fill-opacity="0.5"/>
<circle cx="429" cy="33" r="5" fill="white" fill-opacity="0.7"/>
</svg>
