<svg width="36" height="36" viewBox="0 0 36 36" fill="none" xmlns="http://www.w3.org/2000/svg">
<g clip-path="url(#clip0)">
<path d="M18 28.35C23.7162 28.35 28.35 23.7161 28.35 18C28.35 12.2838 23.7162 7.64999 18 7.64999C12.2839 7.64999 7.65002 12.2838 7.65002 18C7.65002 23.7161 12.2839 28.35 18 28.35Z" fill="#FCD462"/>
<path d="M22.905 8.86505C23.3551 10.305 23.67 11.835 23.715 13.4101C23.985 19.6651 19.755 25.2001 14.265 27.6301C15.435 28.0802 16.695 28.3502 18 28.3502C23.715 28.3502 28.35 23.7152 28.35 18.0002C28.35 14.04 26.145 10.62 22.905 8.86505Z" fill="#F6C358"/>
<path d="M18 0C17.1449 0 16.47 0.674979 16.47 1.53V4.05002C16.47 4.90504 17.1449 5.58002 18 5.58002C18.855 5.58002 19.53 4.90504 19.53 4.05002V1.53C19.53 0.674979 18.855 0 18 0Z" fill="#F6C358"/>
<path d="M18 30.4201C17.1449 30.4201 16.47 31.0951 16.47 31.9501V34.4701C16.47 35.3251 17.1449 36.0001 18 36.0001C18.855 36.0001 19.53 35.3251 19.53 34.4701V31.9501C19.53 31.0951 18.855 30.4201 18 30.4201Z" fill="#F6C358"/>
<path d="M36 18C36 17.145 35.325 16.47 34.47 16.47H31.95C31.095 16.47 30.42 17.145 30.42 18C30.42 18.855 31.095 19.53 31.95 19.53H34.47C35.325 19.53 36 18.855 36 18Z" fill="#F6C358"/>
<path d="M5.58002 18C5.58002 17.145 4.90504 16.47 4.05002 16.47H1.53C0.674979 16.47 0 17.145 0 18C0 18.855 0.674979 19.53 1.53 19.53H4.05002C4.90497 19.53 5.58002 18.855 5.58002 18Z" fill="#F6C358"/>
<path d="M30.735 5.26498C30.15 4.67994 29.16 4.67994 28.575 5.26498L26.775 7.06497C26.19 7.65 26.19 8.63994 26.775 9.22497C27.36 9.81001 28.35 9.81001 28.935 9.22497L30.735 7.42498C31.32 6.84003 31.32 5.85001 30.735 5.26498Z" fill="#F6C358"/>
<path d="M9.225 26.775C8.63997 26.19 7.65003 26.19 7.065 26.775L5.26501 28.575C4.67998 29.16 4.67998 30.15 5.26501 30.735C5.85004 31.32 6.83998 31.32 7.42501 30.735L9.225 28.935C9.81004 28.35 9.81004 27.405 9.225 26.775Z" fill="#F6C358"/>
<path d="M30.735 30.735C31.32 30.15 31.32 29.16 30.735 28.575L28.935 26.775C28.35 26.19 27.36 26.19 26.775 26.775C26.19 27.36 26.19 28.35 26.775 28.935L28.575 30.735C29.16 31.32 30.15 31.32 30.735 30.735Z" fill="#F6C358"/>
<path d="M9.225 9.22497C9.81004 8.63994 9.81004 7.65 9.225 7.06497L7.42501 5.26498C6.83998 4.67994 5.85004 4.67994 5.26501 5.26498C4.67998 5.85001 4.67998 6.83995 5.26501 7.42498L7.065 9.22497C7.65003 9.81001 8.595 9.81001 9.225 9.22497Z" fill="#F6C358"/>
</g>
<defs>
<clipPath id="clip0">
<rect width="36" height="36" fill="white"/>
</clipPath>
</defs>
</svg>
