<svg width="40" height="40" viewBox="0 0 40 40" fill="none" xmlns="http://www.w3.org/2000/svg">
<g clip-path="url(#clip0)">
<path d="M32.258 16.7742C32.247 16.7742 32.2365 16.7758 32.2256 16.7758C31.893 11.7326 27.708 7.74194 22.5806 7.74194C19.6359 7.74194 17.0035 9.06163 15.2285 11.1366C14.6855 11.0262 14.1239 10.9678 13.5484 10.9678C9.69375 10.9678 6.45484 13.5715 5.47328 17.1137C2.30484 18.0834 0 21.0299 0 24.5161C0 28.7918 3.46617 32.258 7.74195 32.258H32.258C36.5338 32.258 40 28.7919 40 24.5161C40 20.2404 36.5338 16.7742 32.258 16.7742Z" fill="#EDEBED"/>
<path d="M31.6129 29.6774H15.7428C11.471 29.6774 7.80886 26.329 7.74292 22.0577C7.69332 18.845 9.603 16.0773 12.3531 14.8599C12.9616 14.5905 13.456 14.1255 13.7252 13.5169C14.109 12.6489 14.6172 11.8483 15.2258 11.1361C14.6838 11.0261 14.123 10.9677 13.5484 10.9677C9.69378 10.9677 6.45488 13.5713 5.47331 17.1135C2.24707 18.1012 -0.0838721 21.1382 0.00237793 24.7076C0.1048 28.9507 3.7505 32.258 7.9948 32.258H31.6129C32.3256 32.258 32.9032 31.6803 32.9032 30.9677C32.9032 30.2551 32.3256 29.6774 31.6129 29.6774Z" fill="#DBD9DC"/>
</g>
<defs>
<clipPath id="clip0">
<rect width="40" height="40" fill="white"/>
</clipPath>
</defs>
</svg>
