<svg width="30" height="30" viewBox="0 0 30 30" fill="none" xmlns="http://www.w3.org/2000/svg">
<path d="M14.4827 22.7586C9.91205 22.7586 6.20682 19.0534 6.20682 14.4828C6.20682 9.91214 9.91205 6.20691 14.4827 6.20691C19.0533 6.20691 22.7585 9.91214 22.7585 14.4828C22.7585 19.0534 19.0533 22.7586 14.4827 22.7586Z" fill="#444444"/>
<circle cx="2.34375" cy="19.2188" r="2.34375" transform="rotate(90 2.34375 19.2188)" fill="#444444"/>
<ellipse cx="9.84375" cy="26.7188" rx="3.28125" ry="3.28125" transform="rotate(90 9.84375 26.7188)" fill="#444444"/>
<ellipse cx="26.7188" cy="11.7188" rx="3.28125" ry="3.28125" transform="rotate(90 26.7188 11.7188)" fill="#444444"/>
<path d="M18.75 5.625C17.1967 5.625 15.9375 4.3658 15.9375 2.8125C15.9375 1.2592 17.1967 -1.00276e-07 18.75 -6.45992e-08C20.3033 -2.8922e-08 21.5625 1.2592 21.5625 2.8125C21.5625 4.3658 20.3033 5.625 18.75 5.625Z" fill="#444444"/>
<circle cx="4.21875" cy="4.21875" r="4.21875" transform="rotate(90 4.21875 4.21875)" fill="#444444"/>
<path fill-rule="evenodd" clip-rule="evenodd" d="M17.8378 13.3195L10.8923 27.2418L8.79507 26.1955L13.3167 17.1318L2.68222 20.3406L2.00518 18.0968L17.8378 13.3195Z" fill="#444444"/>
<path fill-rule="evenodd" clip-rule="evenodd" d="M19.0271 2.14264C19.656 2.29568 20.0417 2.92954 19.8886 3.55839L18.1878 10.5469H26.25C26.8972 10.5469 27.4219 11.0716 27.4219 11.7188C27.4219 12.366 26.8972 12.8907 26.25 12.8907H17.6174L17.0854 15.0766L24.7935 22.7847C25.2511 23.2423 25.2511 23.9843 24.7935 24.4419C24.3358 24.8996 23.5938 24.8996 23.1362 24.4419L14.969 16.2748L3.87229 5.52939C3.40735 5.07916 3.39541 4.33727 3.84564 3.87232C4.29587 3.40737 5.03776 3.39544 5.50271 3.84567L15.1362 13.1742L17.6114 3.00416C17.7644 2.37531 18.3983 1.98959 19.0271 2.14264Z" fill="#444444"/>
<ellipse cx="24.8438" cy="24.8438" rx="5.15625" ry="5.15625" transform="rotate(90 24.8438 24.8438)" fill="#444444"/>
</svg>
