<svg width="72" height="24" viewBox="0 0 72 24" fill="none" xmlns="http://www.w3.org/2000/svg">
<path d="M23.1457 14.762C23.1255 14.762 17.963 14.762 17.963 14.762C17.963 14.762 23.8995 8.18599 23.8995 8.17926C24.4312 7.58695 24.3841 6.83311 24.3841 6.83311C24.3841 6.83311 24.3841 6.81964 24.3841 6.79272C24.3707 6.34849 24.1957 5.93791 23.9197 5.62157L23.913 5.61484C23.5697 5.23791 23.0784 4.99561 22.5264 4.99561H22.5197C22.513 4.99561 22.513 4.99561 22.5062 4.99561C22.5062 4.99561 14.1668 4.99561 14.1601 4.99561C14.1534 4.99561 14.1466 4.99561 14.1466 4.99561C13.413 5.00234 12.8005 5.42637 12.4976 6.03887C12.4909 6.04561 12.4909 6.05234 12.4841 6.05907C12.4841 6.0658 12.4774 6.07253 12.4774 6.07926C12.3697 6.31484 12.3024 6.58407 12.3024 6.86003V6.86676C12.3024 6.87349 12.3024 6.87349 12.3024 6.87349C12.3024 7.74176 12.888 8.44176 13.6822 8.65041C13.6889 8.65041 13.6889 8.65041 13.6957 8.65714C13.7024 8.65714 13.7159 8.66387 13.7226 8.66387C13.8639 8.69753 14.0053 8.71099 14.1534 8.71099H18.3197C18.138 8.91291 12.6659 15.0177 12.4168 15.287C12.1207 15.6437 11.9995 16.0677 11.9995 16.4716C11.9995 16.4918 11.9995 16.5052 11.9995 16.5254C11.9995 16.5591 11.9995 16.586 11.9995 16.6196C11.9995 17.6629 12.8072 18.4773 13.8437 18.4773C13.8437 18.4773 13.8505 18.4773 13.8572 18.4773C14.2745 18.4773 23.0918 18.4773 23.1457 18.4773C24.1822 18.4773 25.0034 17.6562 25.0034 16.6196C25.0101 15.5831 24.1822 14.762 23.1457 14.762Z" fill="#1B52ED"/>
<path d="M55.3595 4.82167C53.8316 4.82167 52.6806 5.76398 51.9537 7.1236C51.422 6.12744 50.7691 5.34667 49.746 5.01013C49.3691 4.88225 48.898 4.81494 48.4806 4.81494C47.2691 4.81494 45.8691 5.56206 45.4518 6.85436C45.2162 5.87167 44.5162 4.99667 43.2845 5.0034H43.2778H43.271H43.2643H43.2576C42.0797 5.01686 41.1306 5.97263 41.1172 7.15725V7.46686V7.4736V16.3111C41.1172 16.3111 41.1172 16.3111 41.1172 16.3178C41.1172 16.3246 41.1172 16.3178 41.1172 16.3246V16.3582C41.1172 16.3582 41.1172 16.3582 41.1172 16.3649C41.1172 17.2803 41.7028 18.0476 42.5172 18.3505C42.5239 18.3505 42.5374 18.3572 42.5441 18.3572C42.5508 18.3572 42.5576 18.364 42.5643 18.364C42.7931 18.4447 43.0355 18.4851 43.2845 18.4851C43.3989 18.4851 43.5066 18.4784 43.6143 18.4582C44.6508 18.3034 45.4518 17.4351 45.4518 16.3582V16.3178V10.2534V10.2467C45.4518 9.45244 46.0508 8.72552 46.8451 8.72552C47.6393 8.72552 48.2383 9.45244 48.2383 10.2467V10.2534V16.3044V16.3111V16.3178V16.3447V16.3515C48.2383 17.3678 48.9585 18.2024 49.9076 18.4178C50.0691 18.4582 50.2374 18.4784 50.4056 18.4784C50.5806 18.4784 50.7422 18.4582 50.9037 18.4178C51.8528 18.1957 52.573 17.3678 52.573 16.3515C52.573 16.3515 52.573 16.3515 52.573 16.3447V10.1861V10.1794C52.573 9.38513 53.172 8.71206 53.9662 8.71206C54.7605 8.71206 55.3595 9.10244 55.3595 9.89667C55.3595 9.89667 55.3595 10.2063 55.3595 10.213V16.2774C55.3595 16.2842 55.3595 16.2976 55.3595 16.3044V16.3111V16.3178C55.3595 16.3313 55.3595 16.338 55.3595 16.3515C55.3595 17.3678 56.0797 18.2024 57.0287 18.4178C57.1903 18.4582 57.3518 18.4784 57.5268 18.4784C57.6951 18.4784 57.8633 18.4582 58.0249 18.4178C58.9739 18.1957 59.6941 17.3678 59.6941 16.3515V9.64763C59.5056 4.50533 55.3595 4.82167 55.3595 4.82167Z" fill="#1B52ED"/>
<path d="M37.0851 5.00391C35.887 5.00391 34.9178 5.97314 34.9178 7.17121C34.9178 7.17121 34.9178 7.17121 34.9178 7.17794C34.9178 7.17794 34.9178 7.17794 34.9178 7.18468V12.6231C34.9178 13.8347 33.7399 14.7972 32.5957 14.7972C31.2697 14.7972 30.2736 13.6597 30.2736 12.6231V7.2116C30.2736 7.20487 30.2736 7.19814 30.2736 7.19141C30.2736 7.15102 30.2736 7.11737 30.2736 7.07698C30.2197 5.92602 29.2707 5.00391 28.1063 5.00391C26.9082 5.00391 25.939 5.97314 25.939 7.17121V7.17794V6.99621V11.6876C25.939 14.8779 27.7428 17.5164 30.4217 18.4453C30.6572 18.5328 31.8688 18.8087 32.5957 18.8087C34.137 18.8087 35.6515 18.2433 36.789 17.3078C36.8361 17.2741 37.0111 17.1126 37.0111 17.1126C38.4851 15.7799 39.2524 13.9154 39.2524 11.6876V7.17121V7.16448C39.2524 5.97314 38.2832 5.00391 37.0851 5.00391Z" fill="#1B52ED"/>
</svg>
