<svg width="72" height="24" viewBox="0 0 72 24" fill="none" xmlns="http://www.w3.org/2000/svg">
<path d="M31.4116 12.7251C31.4116 15.8032 29.0133 18.0713 26.0701 18.0713C23.1268 18.0713 20.7285 15.8032 20.7285 12.7251C20.7285 9.62538 23.1268 7.37891 26.0701 7.37891C29.0133 7.37891 31.4116 9.62538 31.4116 12.7251ZM29.0733 12.7251C29.0733 10.8016 27.6833 9.48558 26.0701 9.48558C24.4568 9.48558 23.0668 10.8016 23.0668 12.7251C23.0668 14.6293 24.4568 15.9647 26.0701 15.9647C27.6833 15.9647 29.0733 14.6269 29.0733 12.7251Z" fill="#EA4335"/>
<path d="M42.9351 12.7251C42.9351 15.8032 40.5368 18.0713 37.5935 18.0713C34.6503 18.0713 32.252 15.8032 32.252 12.7251C32.252 9.62779 34.6503 7.37891 37.5935 7.37891C40.5368 7.37891 42.9351 9.62538 42.9351 12.7251ZM40.5968 12.7251C40.5968 10.8016 39.2068 9.48558 37.5935 9.48558C35.9802 9.48558 34.5902 10.8016 34.5902 12.7251C34.5902 14.6293 35.9802 15.9647 37.5935 15.9647C39.2068 15.9647 40.5968 14.6269 40.5968 12.7251Z" fill="#FBBC05"/>
<path d="M53.9788 7.7019V17.3C53.9788 21.2482 51.6597 22.8608 48.9181 22.8608C46.3373 22.8608 44.7841 21.1277 44.1983 19.7104L46.2341 18.8595C46.5966 19.7297 47.4849 20.7565 48.9157 20.7565C50.6706 20.7565 51.7581 19.6694 51.7581 17.623V16.8541H51.6765C51.1531 17.5025 50.1448 18.0689 48.8725 18.0689C46.2101 18.0689 43.771 15.7405 43.771 12.7444C43.771 9.72661 46.2101 7.37891 48.8725 7.37891C50.1424 7.37891 51.1507 7.94534 51.6765 8.57445H51.7581V7.70431H53.9788V7.7019ZM51.9238 12.7444C51.9238 10.8619 50.673 9.48558 49.0813 9.48558C47.4681 9.48558 46.1165 10.8619 46.1165 12.7444C46.1165 14.6076 47.4681 15.9647 49.0813 15.9647C50.673 15.9647 51.9238 14.6076 51.9238 12.7444Z" fill="#4285F4"/>
<path d="M57.64 2.07617V17.7436H55.3594V2.07617H57.64Z" fill="#34A853"/>
<path d="M66.5266 14.4852L68.3415 15.7C67.7558 16.5701 66.3442 18.0694 63.905 18.0694C60.8802 18.0694 58.6211 15.7217 58.6211 12.7232C58.6211 9.54389 60.8994 7.37695 63.6434 7.37695C66.4066 7.37695 67.7582 9.58486 68.1999 10.778L68.4424 11.3854L61.3243 14.3454C61.8692 15.418 62.7167 15.9651 63.905 15.9651C65.0958 15.9651 65.9216 15.377 66.5266 14.4852ZM60.9402 12.5617L65.6984 10.5779C65.4367 9.91026 64.6493 9.44506 63.7226 9.44506C62.5342 9.44506 60.8802 10.4984 60.9402 12.5617Z" fill="#EA4335"/>
<path d="M12.0956 11.3344V9.06623H19.7082C19.7826 9.46154 19.8211 9.92915 19.8211 10.4353C19.8211 12.1371 19.3577 14.2413 17.8645 15.7406C16.4121 17.2591 14.5563 18.069 12.098 18.069C7.54148 18.069 3.70996 14.3426 3.70996 9.76765C3.70996 5.19275 7.54148 1.46631 12.098 1.46631C14.6187 1.46631 16.4145 2.45938 17.7637 3.75376L16.1696 5.35425C15.2021 4.44313 13.8913 3.73448 12.0956 3.73448C8.76823 3.73448 6.16588 6.42687 6.16588 9.76765C6.16588 13.1084 8.76823 15.8008 12.0956 15.8008C14.2538 15.8008 15.483 14.9307 16.2704 14.1401C16.909 13.4989 17.3291 12.583 17.4948 11.332L12.0956 11.3344Z" fill="#4285F4"/>
</svg>
