<svg width="48" height="14" viewBox="0 0 48 14" fill="none" xmlns="http://www.w3.org/2000/svg">
<g clip-path="url(#clip0)">
<path d="M36.0201 0.120605H27.5779C26.9347 0.120605 26.3317 0.643219 26.3317 1.32664C26.3317 1.96985 26.9347 2.53267 27.5779 2.53267H30.6332V12.3015C30.6332 12.9447 31.1558 13.5477 31.8392 13.5477C32.4824 13.5477 33.0452 12.9447 33.0452 12.3015V2.49246H36.0603C36.7035 2.49246 37.3065 1.96985 37.3065 1.28643C37.2663 0.643219 36.7035 0.120605 36.0201 0.120605Z" fill="#EE2923"/>
<path d="M8.92462 12.9447C8.92462 12.9447 9.32663 13.5879 10.1709 13.5879C10.9749 13.5879 11.6583 13.1457 11.6583 12.1005V1.32663C11.6583 0.683409 11.1357 0.0803941 10.4523 0.0803941C9.80905 0.0803941 9.24623 0.683409 9.24623 1.32663V9.32663L2.73367 0.683409C2.73367 0.683409 2.33166 0.0401931 1.48744 0.0401931C0.683417 -7.89098e-06 0 0.442203 0 1.48743V12.3015C0 12.9447 0.522613 13.5477 1.20603 13.5477C1.84925 13.5477 2.41206 12.9447 2.41206 12.3015V4.3015L8.92462 12.9447Z" fill="#EE2923"/>
<path d="M46.7136 11.0151H41.4473V8.00001H46.0704C46.7136 8.00001 47.2764 7.4774 47.2764 6.79398C47.2764 6.15077 46.7136 5.58795 46.0704 5.58795H41.4473V2.61308H46.7136C47.397 2.61308 47.9598 2.05027 47.9598 1.40705C47.9598 0.723632 47.397 0.201019 46.7136 0.201019H40.9648C39.9598 0.201019 39.1156 1.04524 39.1156 2.05027V11.6985C39.1156 12.7035 39.9196 13.5076 40.9648 13.5478H46.7538C47.4372 13.5478 48 12.9849 48 12.3417C48 11.5779 47.397 11.0151 46.7136 11.0151Z" fill="#EE2923"/>
<path d="M27.2563 11.8593L21.7487 0.723618C21.5879 0.281407 21.0251 0 20.5025 0C19.8995 0 19.4171 0.321608 19.1759 0.80402C19.1759 0.80402 14.0301 11.4171 14.0301 11.4573C13.9497 11.6583 13.8693 11.8593 13.8693 12.1005C13.8693 12.7839 14.3517 13.3467 14.9548 13.5075C15.0754 13.5477 15.196 13.5477 15.3166 13.5477H21.0653C21.7085 13.5477 22.3919 13.0251 22.3919 12.3417C22.3919 11.6985 21.7487 11.1357 21.0653 11.1357H16.7638L20.5025 3.49749L25.1256 12.8643C25.407 13.4673 26.211 13.7889 26.7738 13.5075C27.3769 13.2261 27.5377 12.4221 27.2563 11.8593Z" fill="#EE2923"/>
</g>
<defs>
<clipPath id="clip0">
<rect width="48" height="13.6281" fill="white"/>
</clipPath>
</defs>
</svg>
