<svg width="72" height="24" viewBox="0 0 72 24" fill="none" xmlns="http://www.w3.org/2000/svg">
<g clip-path="url(#clip0)">
<path d="M35.4174 18.3783C34.3856 19.0625 33.3651 19.4438 32.2211 19.5335C28.9463 19.7915 26.0639 17.3465 25.8733 14.1053C25.6826 10.7408 28.2397 7.90332 31.5706 7.85846C32.423 7.84724 33.2978 7.92575 34.1165 8.15006C36.6735 8.8454 38.2885 10.9314 38.4119 13.6679C38.4904 15.4175 38.4231 17.1783 38.4343 18.9279C38.4343 19.2643 38.311 19.3989 37.9745 19.3989C37.3577 19.3877 36.7408 19.3653 36.124 19.4101C35.6081 19.4438 35.395 19.2531 35.4623 18.7484C35.4735 18.6587 35.4511 18.569 35.4174 18.3783ZM32.0192 16.7073C33.7239 16.7073 35.1034 15.3502 35.1034 13.6792C35.0922 12.0305 33.7127 10.6735 32.0529 10.6623C30.3706 10.651 28.9575 12.0417 28.9575 13.7016C28.9575 15.3502 30.3482 16.7073 32.0192 16.7073Z" fill="#E83532"/>
<path d="M52.7111 14.812C53.4626 16.5953 55.5822 17.2121 57.2309 16.27C57.5785 16.0681 58.0159 15.9672 58.4197 15.9448C59.2945 15.8999 60.1693 15.9336 61.145 15.9336C61.0328 16.1915 60.9655 16.3822 60.8758 16.5392C59.5748 18.8047 56.8608 19.9822 54.2364 19.4103C51.5784 18.8271 49.7391 16.7523 49.5036 14.0606C49.2456 11.111 51.4887 8.41936 54.6289 7.91467C58.3636 7.30905 61.7618 10.2138 61.6384 13.9148C61.6048 14.8008 61.5936 14.8232 60.7188 14.8232C58.2851 14.8232 55.8626 14.8232 53.4289 14.8232C53.2158 14.812 53.0027 14.812 52.7111 14.812ZM52.7784 12.4793C54.6738 12.4793 56.5243 12.4793 58.3972 12.4793C57.9486 11.3577 56.7598 10.6288 55.5149 10.6512C54.27 10.6848 53.1149 11.4475 52.7784 12.4793Z" fill="#E83532"/>
<path d="M12.0109 13.6904C12.0109 12.0082 12.0221 10.3259 11.9997 8.64359C11.9885 8.15012 12.1119 7.94824 12.6502 7.94824C14.8147 7.97067 16.9793 7.94824 19.155 7.95946C21.8803 7.9931 23.9663 10.0118 24.0224 12.7259C24.0673 14.7559 24.0224 16.7971 24.0449 18.8382C24.0449 19.2756 23.8878 19.4326 23.4504 19.4102C22.699 19.3878 21.9588 19.3878 21.2074 19.4102C20.7588 19.4214 20.6242 19.2644 20.6354 18.827C20.6579 17.1111 20.6466 15.3951 20.6466 13.668C20.6466 12.1764 19.7382 11.2343 18.2578 11.2119C17.4952 11.2007 16.7437 11.2119 15.9587 11.2119C15.4989 11.2119 15.3979 11.3689 15.3979 11.7951C15.4091 14.0942 15.3867 16.3933 15.4203 18.6924C15.4316 19.2532 15.2745 19.4551 14.6914 19.4214C13.9848 19.3766 13.267 19.3878 12.5605 19.4214C12.1343 19.4326 12.0109 19.2644 12.0109 18.8607C12.0221 17.1223 12.0109 15.4064 12.0109 13.6904Z" fill="#E83532"/>
<path d="M44.8268 11.032C44.8268 12.647 44.8044 14.161 44.838 15.6639C44.8492 16.1574 45.2305 16.3592 45.7016 16.3592C46.3184 16.3592 46.9353 16.3704 47.5521 16.3592C47.8886 16.348 48.0231 16.4826 48.0231 16.819C48.0119 17.5256 48.0119 18.2434 48.0231 18.9499C48.0231 19.2864 47.8886 19.4098 47.5521 19.4098C46.4867 19.3986 45.4212 19.4322 44.3558 19.3986C42.8081 19.3425 41.6192 18.1088 41.5968 16.5611C41.5744 14.9685 41.5856 13.3872 41.5856 11.7946C41.5856 11.5703 41.5856 11.346 41.5856 11.032C41.0473 11.032 40.5538 11.0096 40.0603 11.0432C39.5893 11.0656 39.4323 10.8862 39.4547 10.4264C39.4884 9.77589 39.4771 9.11419 39.4547 8.46371C39.4435 8.09361 39.5893 7.95902 39.9482 7.97024C40.3407 7.98145 40.7332 7.95902 41.1258 7.98145C41.4622 8.00388 41.5968 7.8693 41.5856 7.53285C41.5632 6.89358 41.5968 6.26553 41.5744 5.62626C41.5632 5.24494 41.6865 5.07671 42.0791 5.08793C42.8305 5.09914 43.5707 5.09914 44.3221 5.08793C44.681 5.08793 44.8268 5.22251 44.8156 5.5814C44.7932 6.1758 44.838 6.78143 44.8044 7.37583C44.7819 7.82444 44.9053 8.0151 45.3876 7.98145C46.0941 7.94781 46.8119 7.98145 47.5185 7.97024C47.8886 7.95902 48.0119 8.11604 48.0119 8.46371C48.0007 9.13662 47.9895 9.80954 48.0119 10.4824C48.0231 10.8974 47.8773 11.0544 47.4624 11.0432C46.6212 11.0208 45.7577 11.032 44.8268 11.032Z" fill="#E83532"/>
</g>
<defs>
<clipPath id="clip0">
<rect width="49.6498" height="14.4789" fill="white" transform="translate(12 5.07764)"/>
</clipPath>
</defs>
</svg>
