<svg width="59" height="20" viewBox="0 0 59 20" fill="none" xmlns="http://www.w3.org/2000/svg">
<path d="M14.5827 6.82839H12.797H7.29133V8.77936H12.5986C11.9538 11.0941 9.82098 12.797 7.29133 12.797C4.24914 12.797 1.7691 10.3335 1.7691 7.2748C1.7691 4.23261 4.23261 1.75257 7.29133 1.75257C8.77936 1.75257 10.1186 2.33124 11.1106 3.29019L12.4333 2.08324C11.1106 0.810148 9.30844 0 7.29133 0C3.27366 0 0 3.27366 0 7.29133C0 11.3255 3.27366 14.5827 7.29133 14.5827C10.813 14.5827 13.756 12.0861 14.4339 8.77936C14.5331 8.29989 14.5827 7.80388 14.5827 7.29133C14.5992 7.14253 14.5992 6.99373 14.5827 6.82839Z" fill="#3E82F1"/>
<path d="M19.5262 5.27423C16.9139 5.27423 14.8141 7.39054 14.8141 9.98632C14.8141 12.5986 16.9305 14.6984 19.5262 14.6984C22.122 14.6984 24.2383 12.5821 24.2383 9.98632C24.2549 7.39054 22.1385 5.27423 19.5262 5.27423ZM19.5262 12.8301C17.9555 12.8301 16.6824 11.557 16.6824 9.98632C16.6824 8.41562 17.9555 7.14253 19.5262 7.14253C21.0969 7.14253 22.37 8.41562 22.37 9.98632C22.37 11.557 21.0969 12.8301 19.5262 12.8301Z" fill="#EA4335"/>
<path d="M29.992 5.27423C27.3797 5.27423 25.2799 7.39054 25.2799 9.98632C25.2799 12.5986 27.3962 14.6984 29.992 14.6984C32.5878 14.6984 34.7206 12.5986 34.7206 9.98632C34.7206 7.39054 32.6043 5.27423 29.992 5.27423ZM29.992 12.8301C28.4213 12.8301 27.1482 11.557 27.1482 9.98632C27.1482 8.41562 28.4213 7.14253 29.992 7.14253C31.5627 7.14253 32.8358 8.41562 32.8358 9.98632C32.8358 11.557 31.5627 12.8301 29.992 12.8301Z" fill="#FABB05"/>
<path d="M47.9806 0.231476H45.7321V14.4669H47.9806V0.231476Z" fill="#34A853"/>
<path d="M42.4914 5.42303V5.85291C41.8135 5.47263 41.0365 5.27423 40.2098 5.27423C37.5975 5.27423 35.4977 7.39054 35.4977 9.98632C35.4977 12.5986 37.614 14.6984 40.2098 14.6984C41.2514 14.6984 42.2103 14.3512 42.9874 13.7891C43.0205 13.9709 43.037 14.1528 43.037 14.3347C43.037 14.9629 42.8221 15.5582 42.4749 16.0211C41.9623 16.7155 41.1357 17.1619 40.1932 17.1619C39.0028 17.1619 37.9943 16.4344 37.5644 15.3928L35.8945 16.2691C36.6385 17.9059 38.2753 19.0467 40.1932 19.0467C41.3506 19.0467 42.3922 18.6334 43.2189 17.9555L43.2354 17.939C44.2109 17.1288 44.7235 15.8888 44.7235 14.6157V5.42303H42.4914ZM40.2263 12.8301C38.6556 12.8301 37.3825 11.557 37.3825 9.98632C37.3825 8.41562 38.6556 7.14253 40.2263 7.14253C41.797 7.14253 43.0701 8.41562 43.0701 9.98632C43.0536 11.557 41.7805 12.8301 40.2263 12.8301Z" fill="#4285F4"/>
<path d="M53.5525 12.8301C52.577 12.8301 51.7007 12.3341 51.2047 11.5735L58.0166 8.43216C57.8513 7.96921 57.6198 7.52281 57.3222 7.14253C56.4624 6.00171 55.1067 5.27423 53.569 5.27423C50.9567 5.27423 48.8569 7.39054 48.8569 9.98632C48.8569 10.3335 48.89 10.6642 48.9727 10.9949C49.0553 11.3917 49.2041 11.7885 49.386 12.1357C50.1631 13.6568 51.7503 14.6984 53.5856 14.6984C55.272 14.6984 56.7435 13.8056 57.5867 12.4829L56.016 11.4413C55.4869 12.268 54.5776 12.8301 53.5525 12.8301ZM50.7087 9.98632C50.7087 8.41562 51.9818 7.14253 53.5525 7.14253C54.3296 7.14253 55.024 7.45667 55.5365 7.95268L50.7252 10.1682C50.7252 10.1186 50.7087 10.0525 50.7087 9.98632Z" fill="#EA4335"/>
</svg>
