<svg width="48" height="15" viewBox="0 0 48 15" fill="none" xmlns="http://www.w3.org/2000/svg">
<path d="M11.2176 10.0119C11.1973 10.0119 6.00169 10.0119 6.00169 10.0119C6.00169 10.0119 11.9763 3.39373 11.9763 3.38696C12.5114 2.79085 12.464 2.03217 12.464 2.03217C12.464 2.03217 12.464 2.01862 12.464 1.99153C12.4505 1.54445 12.2743 1.13124 11.9966 0.812866L11.9898 0.806093C11.6444 0.426753 11.1499 0.182892 10.5944 0.182892H10.5876C10.5809 0.182892 10.5809 0.182892 10.5741 0.182892C10.5741 0.182892 2.1812 0.182892 2.17443 0.182892C2.16765 0.182892 2.16088 0.182892 2.16088 0.182892C1.42252 0.189666 0.806097 0.616423 0.50127 1.23285C0.494496 1.23962 0.494496 1.2464 0.487722 1.25317C0.487722 1.25995 0.480948 1.26672 0.480948 1.27349C0.372566 1.51058 0.304826 1.78154 0.304826 2.05927V2.06604C0.304826 2.07282 0.304826 2.07282 0.304826 2.07282C0.304826 2.94665 0.894157 3.65114 1.69348 3.86113C1.70025 3.86113 1.70025 3.86113 1.70703 3.8679C1.7138 3.8679 1.72735 3.87468 1.73412 3.87468C1.87638 3.90855 2.01863 3.9221 2.16765 3.9221H6.36071C6.17782 4.12531 0.670618 10.2693 0.419983 10.5402C0.121931 10.8992 0 11.326 0 11.7324C0 11.7527 0 11.7663 0 11.7866C0 11.8205 0 11.8476 0 11.8815C0 12.9314 0.81287 13.7511 1.85605 13.7511C1.85605 13.7511 1.86283 13.7511 1.8696 13.7511C2.28959 13.7511 11.1634 13.7511 11.2176 13.7511C12.2608 13.7511 13.0872 12.9246 13.0872 11.8815C13.094 10.8383 12.2608 10.0119 11.2176 10.0119Z" fill="#1C52ED"/>
<path d="M43.6376 0.00677392C42.0999 0.00677392 40.9415 0.955123 40.21 2.32345C39.6748 1.32091 39.0178 0.53514 37.9881 0.196444C37.6088 0.0677392 37.1346 0 36.7146 0C35.4953 0 34.0863 0.751905 33.6664 2.0525C33.4293 1.06351 32.7248 0.182896 31.4852 0.18967H31.4784H31.4716H31.4648H31.4581C30.2726 0.203218 29.3175 1.16511 29.304 2.35732V2.66893V2.6757V11.5699C29.304 11.5699 29.304 11.5699 29.304 11.5766C29.304 11.5834 29.304 11.5766 29.304 11.5834V11.6173C29.304 11.6173 29.304 11.6173 29.304 11.624C29.304 12.5453 29.8933 13.3175 30.7129 13.6224C30.7197 13.6224 30.7333 13.6291 30.74 13.6291C30.7468 13.6291 30.7536 13.6359 30.7603 13.6359C30.9907 13.7172 31.2345 13.7578 31.4852 13.7578C31.6003 13.7578 31.7087 13.7511 31.8171 13.7307C32.8603 13.5749 33.6664 12.7011 33.6664 11.6173V11.5766V5.47333V5.46655C33.6664 4.66723 34.2692 3.93565 35.0686 3.93565C35.8679 3.93565 36.4708 4.66723 36.4708 5.46655V5.47333V11.5631V11.5699V11.5766V11.6037V11.6105C36.4708 12.6334 37.1956 13.4733 38.1507 13.6901C38.3133 13.7307 38.4826 13.7511 38.652 13.7511C38.8281 13.7511 38.9907 13.7307 39.1532 13.6901C40.1084 13.4666 40.8332 12.6334 40.8332 11.6105C40.8332 11.6105 40.8332 11.6105 40.8332 11.6037V5.40559V5.39881C40.8332 4.59949 41.436 3.9221 42.2354 3.9221C43.0347 3.9221 43.6376 4.31499 43.6376 5.11431C43.6376 5.11431 43.6376 5.42591 43.6376 5.43268V11.536C43.6376 11.5428 43.6376 11.5563 43.6376 11.5631V11.5699V11.5766C43.6376 11.5902 43.6376 11.597 43.6376 11.6105C43.6376 12.6334 44.3624 13.4733 45.3175 13.6901C45.4801 13.7307 45.6427 13.7511 45.8188 13.7511C45.9881 13.7511 46.1575 13.7307 46.32 13.6901C47.2752 13.4666 48 12.6334 48 11.6105V4.86368C47.8103 -0.3116 43.6376 0.00677392 43.6376 0.00677392Z" fill="#1C52ED"/>
<path d="M25.2464 0.189667C24.0407 0.189667 23.0652 1.16511 23.0652 2.37087C23.0652 2.37087 23.0652 2.37087 23.0652 2.37764C23.0652 2.37764 23.0652 2.37764 23.0652 2.38442V7.85774C23.0652 9.07705 21.8798 10.0457 20.7282 10.0457C19.3938 10.0457 18.3912 8.90093 18.3912 7.85774V2.41151C18.3912 2.40474 18.3912 2.39796 18.3912 2.39119C18.3912 2.35055 18.3912 2.31668 18.3912 2.27603C18.337 1.11769 17.3819 0.189667 16.21 0.189667C15.0043 0.189667 14.0288 1.16511 14.0288 2.37087V2.37764V2.19475V6.91617C14.0288 10.127 15.8442 12.7824 18.5402 13.7172C18.7773 13.8052 19.9966 14.083 20.7282 14.083C22.2794 14.083 23.8036 13.514 24.9484 12.5724C24.9958 12.5385 25.1719 12.3759 25.1719 12.3759C26.6554 11.0347 27.4276 9.15834 27.4276 6.91617V2.37087V2.3641C27.4276 1.16511 26.4522 0.189667 25.2464 0.189667Z" fill="#1C52ED"/>
</svg>
