<svg width="72" height="24" viewBox="0 0 72 24" fill="none" xmlns="http://www.w3.org/2000/svg">
<path d="M31.4116 12.7251C31.4116 15.8032 29.0133 18.0713 26.0701 18.0713C23.1268 18.0713 20.7285 15.8032 20.7285 12.7251C20.7285 9.62538 23.1268 7.37891 26.0701 7.37891C29.0133 7.37891 31.4116 9.62538 31.4116 12.7251ZM29.0733 12.7251C29.0733 10.8016 27.6833 9.48558 26.0701 9.48558C24.4568 9.48558 23.0668 10.8016 23.0668 12.7251C23.0668 14.6293 24.4568 15.9647 26.0701 15.9647C27.6833 15.9647 29.0733 14.6269 29.0733 12.7251Z" fill="#CACACA"/>
<path d="M42.9351 12.7251C42.9351 15.8032 40.5368 18.0713 37.5935 18.0713C34.6503 18.0713 32.252 15.8032 32.252 12.7251C32.252 9.62779 34.6503 7.37891 37.5935 7.37891C40.5368 7.37891 42.9351 9.62538 42.9351 12.7251ZM40.5968 12.7251C40.5968 10.8016 39.2068 9.48558 37.5935 9.48558C35.9802 9.48558 34.5902 10.8016 34.5902 12.7251C34.5902 14.6293 35.9802 15.9647 37.5935 15.9647C39.2068 15.9647 40.5968 14.6269 40.5968 12.7251Z" fill="#CACACA"/>
<path d="M53.9785 7.7019V17.3C53.9785 21.2482 51.6594 22.8608 48.9178 22.8608C46.3371 22.8608 44.7838 21.1277 44.1981 19.7104L46.2339 18.8595C46.5964 19.7297 47.4846 20.7565 48.9154 20.7565C50.6704 20.7565 51.7579 19.6694 51.7579 17.623V16.8541H51.6763C51.1529 17.5025 50.1446 18.0689 48.8722 18.0689C46.2099 18.0689 43.7708 15.7405 43.7708 12.7444C43.7708 9.72661 46.2099 7.37891 48.8722 7.37891C50.1422 7.37891 51.1505 7.94534 51.6763 8.57445H51.7579V7.70431H53.9785V7.7019ZM51.9235 12.7444C51.9235 10.8619 50.6728 9.48558 49.0811 9.48558C47.4678 9.48558 46.1162 10.8619 46.1162 12.7444C46.1162 14.6076 47.4678 15.9647 49.0811 15.9647C50.6728 15.9647 51.9235 14.6076 51.9235 12.7444Z" fill="#CACACA"/>
<path d="M57.6395 2.07617V17.7436H55.3589V2.07617H57.6395Z" fill="#CACACA"/>
<path d="M66.5266 14.4852L68.3415 15.7C67.7558 16.5701 66.3442 18.0694 63.905 18.0694C60.8802 18.0694 58.6211 15.7217 58.6211 12.7232C58.6211 9.54389 60.8994 7.37695 63.6434 7.37695C66.4066 7.37695 67.7582 9.58486 68.1999 10.778L68.4424 11.3854L61.3243 14.3454C61.8692 15.418 62.7167 15.9651 63.905 15.9651C65.0958 15.9651 65.9216 15.377 66.5266 14.4852ZM60.9402 12.5617L65.6984 10.5779C65.4367 9.91026 64.6493 9.44506 63.7226 9.44506C62.5342 9.44506 60.8802 10.4984 60.9402 12.5617V12.5617Z" fill="#CACACA"/>
<path d="M12.0954 11.3344V9.06623H19.708C19.7824 9.46154 19.8208 9.92915 19.8208 10.4353C19.8208 12.1371 19.3575 14.2413 17.8642 15.7406C16.4118 17.2591 14.5561 18.069 12.0978 18.069C7.54123 18.069 3.70972 14.3426 3.70972 9.76765C3.70972 5.19275 7.54123 1.46631 12.0978 1.46631C14.6185 1.46631 16.4142 2.45938 17.7634 3.75376L16.1693 5.35425C15.2019 4.44313 13.8911 3.73448 12.0954 3.73448C8.76799 3.73448 6.16563 6.42687 6.16563 9.76765C6.16563 13.1084 8.76799 15.8008 12.0954 15.8008C14.2536 15.8008 15.4827 14.9307 16.2702 14.1401C16.9088 13.4989 17.3289 12.583 17.4945 11.332L12.0954 11.3344Z" fill="#CACACA"/>
</svg>
