<svg width="72" height="24" viewBox="0 0 72 24" fill="none" xmlns="http://www.w3.org/2000/svg">
<g clip-path="url(#clip0)">
<path d="M35.4172 18.3783C34.3854 19.0625 33.3648 19.4438 32.2209 19.5335C28.946 19.7915 26.0637 17.3465 25.873 14.1053C25.6824 10.7408 28.2395 7.90332 31.5704 7.85846C32.4227 7.84724 33.2975 7.92575 34.1162 8.15006C36.6733 8.8454 38.2883 10.9314 38.4117 13.6679C38.4902 15.4175 38.4229 17.1783 38.4341 18.9279C38.4341 19.2643 38.3107 19.3989 37.9743 19.3989C37.3574 19.3877 36.7406 19.3653 36.1238 19.4101C35.6079 19.4438 35.3948 19.2531 35.4621 18.7484C35.4733 18.6587 35.4508 18.569 35.4172 18.3783ZM32.019 16.7073C33.7237 16.7073 35.1032 15.3502 35.1032 13.6792C35.092 12.0305 33.7125 10.6735 32.0526 10.6623C30.3703 10.651 28.9572 12.0417 28.9572 13.7016C28.9572 15.3502 30.3479 16.7073 32.019 16.7073Z" fill="#CACACA"/>
<path d="M52.7111 14.812C53.4626 16.5953 55.5822 17.2121 57.2309 16.27C57.5785 16.0681 58.0159 15.9672 58.4197 15.9448C59.2945 15.8999 60.1693 15.9336 61.145 15.9336C61.0328 16.1915 60.9655 16.3822 60.8758 16.5392C59.5748 18.8046 56.8608 19.9822 54.2364 19.4103C51.5784 18.8271 49.7391 16.7523 49.5036 14.0606C49.2456 11.111 51.4887 8.41936 54.6289 7.91467C58.3636 7.30905 61.7618 10.2138 61.6384 13.9148C61.6048 14.8008 61.5936 14.8232 60.7188 14.8232C58.2851 14.8232 55.8626 14.8232 53.4289 14.8232C53.2158 14.812 53.0027 14.812 52.7111 14.812ZM52.7784 12.4793C54.6738 12.4793 56.5243 12.4793 58.3972 12.4793C57.9486 11.3577 56.7598 10.6288 55.5149 10.6512C54.27 10.6848 53.1149 11.4475 52.7784 12.4793Z" fill="#CACACA"/>
<path d="M12.0109 13.6904C12.0109 12.0082 12.0221 10.3259 11.9997 8.64359C11.9885 8.15012 12.1119 7.94824 12.6502 7.94824C14.8147 7.97067 16.9793 7.94824 19.155 7.95946C21.8803 7.9931 23.9663 10.0118 24.0224 12.7259C24.0673 14.7559 24.0224 16.7971 24.0449 18.8382C24.0449 19.2756 23.8878 19.4326 23.4504 19.4102C22.699 19.3878 21.9588 19.3878 21.2074 19.4102C20.7588 19.4214 20.6242 19.2644 20.6354 18.827C20.6579 17.1111 20.6466 15.3951 20.6466 13.668C20.6466 12.1764 19.7382 11.2343 18.2578 11.2119C17.4952 11.2007 16.7437 11.2119 15.9587 11.2119C15.4989 11.2119 15.3979 11.3689 15.3979 11.7951C15.4091 14.0942 15.3867 16.3933 15.4203 18.6924C15.4316 19.2532 15.2745 19.4551 14.6914 19.4214C13.9848 19.3766 13.267 19.3878 12.5605 19.4214C12.1343 19.4326 12.0109 19.2644 12.0109 18.8607C12.0221 17.1223 12.0109 15.4064 12.0109 13.6904Z" fill="#CACACA"/>
<path d="M44.8269 11.032C44.8269 12.647 44.8045 14.161 44.8381 15.6639C44.8493 16.1574 45.2307 16.3592 45.7017 16.3592C46.3185 16.3592 46.9354 16.3704 47.5522 16.3592C47.8887 16.348 48.0233 16.4826 48.0233 16.819C48.012 17.5256 48.012 18.2434 48.0233 18.9499C48.0233 19.2864 47.8887 19.4098 47.5522 19.4098C46.4868 19.3986 45.4213 19.4322 44.3559 19.3986C42.8082 19.3425 41.6194 18.1088 41.5969 16.5611C41.5745 14.9685 41.5857 13.3872 41.5857 11.7946C41.5857 11.5703 41.5857 11.346 41.5857 11.032C41.0474 11.032 40.5539 11.0096 40.0605 11.0432C39.5894 11.0656 39.4324 10.8862 39.4548 10.4264C39.4885 9.77589 39.4773 9.11419 39.4548 8.46371C39.4436 8.09361 39.5894 7.95902 39.9483 7.97024C40.3408 7.98145 40.7334 7.95902 41.1259 7.98145C41.4624 8.00388 41.5969 7.8693 41.5857 7.53285C41.5633 6.89358 41.5969 6.26553 41.5745 5.62626C41.5633 5.24494 41.6867 5.07671 42.0792 5.08793C42.8306 5.09914 43.5708 5.09914 44.3222 5.08793C44.6811 5.08793 44.8269 5.22251 44.8157 5.5814C44.7933 6.1758 44.8381 6.78143 44.8045 7.37583C44.7821 7.82444 44.9054 8.0151 45.3877 7.98145C46.0942 7.94781 46.812 7.98145 47.5186 7.97024C47.8887 7.95902 48.012 8.11604 48.012 8.46371C48.0008 9.13662 47.9896 9.80954 48.012 10.4824C48.0233 10.8974 47.8775 11.0544 47.4625 11.0432C46.6214 11.0208 45.7578 11.032 44.8269 11.032Z" fill="#CACACA"/>
</g>
<defs>
<clipPath id="clip0">
<rect width="49.6498" height="14.4789" fill="white" transform="translate(12 5.07764)"/>
</clipPath>
</defs>
</svg>
