<svg width="36" height="36" viewBox="0 0 36 36" fill="none" xmlns="http://www.w3.org/2000/svg">
<path d="M27.6967 8.71582C27.6875 8.71582 27.6786 8.71718 27.6695 8.71718C27.3901 4.5207 23.8747 1.20001 19.5677 1.20001C17.0942 1.20001 14.8829 2.29813 13.3919 4.02475C12.9358 3.9329 12.4641 3.88427 11.9806 3.88427C8.74273 3.88427 6.02204 6.0508 5.19753 8.99828C2.53604 9.80523 0.599976 12.257 0.599976 15.1579C0.599976 18.7157 3.51156 21.6 7.10322 21.6H27.6967C31.2884 21.6 34.2 18.7158 34.2 15.1579C34.2 11.6 31.2884 8.71582 27.6967 8.71582Z" fill="#ECF6FE"/>
<path d="M27.6941 19.4909H14.0924C10.4313 19.4909 7.2926 16.7544 7.23609 13.2635C7.19357 10.6379 8.83029 8.37593 11.1873 7.38103C11.7088 7.16088 12.1326 6.78078 12.3633 6.2834C12.6922 5.57403 12.916 4.6197 13.4376 4.03765C12.9731 3.94775 12.4925 3.89999 12 3.89999C8.69636 3.89999 5.94123 6.10507 5.09998 8.99999C2.33489 9.80718 0.528057 12.5121 0.601979 15.4292C0.68976 18.897 3.21435 21.6 6.85196 21.6H27.6941C28.3049 21.6 28.8 21.1278 28.8 20.5455C28.8 19.963 28.3049 19.4909 27.6941 19.4909Z" fill="#DBEBFC"/>
<path d="M11.2733 27.7208C11.2733 28.7476 10.441 29.5799 9.41426 29.5799C8.38754 29.5799 7.55518 28.7476 7.55518 27.7208C7.55518 26.7582 8.52766 25.451 9.06591 24.8012C9.24705 24.5826 9.58147 24.5826 9.7626 24.8012C10.3009 25.451 11.2733 26.7582 11.2733 27.7208Z" fill="#ADD2F9"/>
<path d="M19.3619 27.7208C19.3619 28.7476 18.5295 29.5799 17.5028 29.5799C16.4761 29.5799 15.6437 28.7476 15.6437 27.7208C15.6437 26.7582 16.6162 25.451 17.1545 24.8012C17.3356 24.5826 17.67 24.5826 17.8512 24.8012C18.3894 25.451 19.3619 26.7582 19.3619 27.7208Z" fill="#ADD2F9"/>
<path d="M27.4504 27.7208C27.4504 28.7476 26.618 29.5799 25.5913 29.5799C24.5646 29.5799 23.7322 28.7476 23.7322 27.7208C23.7322 26.7582 24.7047 25.451 25.243 24.8012C25.4241 24.5826 25.7585 24.5826 25.9397 24.8012C26.4779 25.451 27.4504 26.7582 27.4504 27.7208Z" fill="#ADD2F9"/>
<path d="M15.3176 33.9168C15.3176 34.9435 14.4852 35.7759 13.4585 35.7759C12.4318 35.7759 11.5994 34.9435 11.5994 33.9168C11.5994 32.9542 12.5719 31.647 13.1102 30.9972C13.2913 30.7786 13.6257 30.7786 13.8069 30.9972C14.3452 31.647 15.3176 32.9542 15.3176 33.9168Z" fill="#ADD2F9"/>
<path d="M23.4062 33.9168C23.4062 34.9435 22.5738 35.7759 21.5471 35.7759C20.5204 35.7759 19.688 34.9435 19.688 33.9168C19.688 32.9542 20.6605 31.647 21.1988 30.9972C21.3799 30.7786 21.7143 30.7786 21.8955 30.9972C22.4337 31.647 23.4062 32.9542 23.4062 33.9168Z" fill="#ADD2F9"/>
<path d="M10.0413 29.4713C9.84504 29.5416 9.63438 29.5798 9.41432 29.5798C8.38734 29.5798 7.55536 28.7478 7.55536 27.7209C7.55536 26.7585 8.52779 25.4512 9.06572 24.8011C9.24692 24.5823 9.58172 24.5823 9.76291 24.8011C9.84692 24.9026 9.9416 25.0205 10.0413 25.1503C9.50147 25.8512 8.80929 26.9089 8.80929 27.7209C8.80929 28.5278 9.32278 29.2143 10.0413 29.4713Z" fill="#ADD2F9"/>
<path d="M18.1298 29.4713C17.9335 29.5416 17.7229 29.5798 17.5028 29.5798C16.4758 29.5798 15.6439 28.7478 15.6439 27.7209C15.6439 26.7585 16.6163 25.4512 17.1542 24.8011C17.3354 24.5823 17.6702 24.5823 17.8514 24.8011C17.9354 24.9026 18.0301 25.0205 18.1298 25.1503C17.59 25.8512 16.8978 26.9089 16.8978 27.7209C16.8978 28.5278 17.4113 29.2143 18.1298 29.4713Z" fill="#ADD2F9"/>
<path d="M26.2183 29.4713C26.022 29.5416 25.8114 29.5798 25.5913 29.5798C24.5643 29.5798 23.7324 28.7478 23.7324 27.7209C23.7324 26.7585 24.7048 25.4512 25.2427 24.8011C25.4239 24.5823 25.7587 24.5823 25.9399 24.8011C26.0239 24.9026 26.1186 25.0205 26.2183 25.1503C25.6785 25.8512 24.9863 26.9089 24.9863 27.7209C24.9863 28.5278 25.4998 29.2143 26.2183 29.4713Z" fill="#ADD2F9"/>
<path d="M14.0852 35.6676C13.8896 35.7379 13.6783 35.7761 13.4583 35.7761C12.4319 35.7761 11.5993 34.9435 11.5993 33.9165C11.5993 32.9541 12.5717 31.6469 13.1103 30.9974C13.2915 30.7785 13.6257 30.7785 13.8069 30.9974C13.8909 31.0989 13.9855 31.2162 14.0859 31.3453C13.546 32.0463 12.8532 33.104 12.8532 33.9165C12.8532 34.7234 13.3674 35.4106 14.0852 35.6676Z" fill="#ADD2F9"/>
<path d="M22.1744 35.6676C21.9781 35.7379 21.7675 35.7761 21.5474 35.7761C20.5204 35.7761 19.6878 34.9435 19.6878 33.9165C19.6878 32.9541 20.6602 31.6469 21.1988 30.9974C21.38 30.7785 21.7142 30.7785 21.8954 30.9974C21.9794 31.0989 22.074 31.2162 22.1744 31.3453C21.6345 32.0463 20.9417 33.104 20.9417 33.9165C20.9417 34.7234 21.4559 35.4106 22.1744 35.6676Z" fill="#ADD2F9"/>
</svg>
