<svg width="70" height="30" viewBox="0 0 70 30" fill="none" xmlns="http://www.w3.org/2000/svg">
<path d="M18.577 11.6458C17.404 7.48495 13.5435 4.40283 8.97926 4.40283H0V24.1944H8.97926C11.2614 24.1944 13.3516 23.4239 15.0365 22.147C14.8446 21.3985 14.7166 20.6059 14.7166 19.7914V19.3291C14.7166 16.1809 16.2309 13.407 18.577 11.6458ZM8.97926 18.1403H6.0786V10.435H8.95793C11.1121 10.435 12.861 12.1742 12.861 14.2876C12.861 16.4231 11.1121 18.1403 8.97926 18.1403Z" fill="#618FFC"/>
<path d="M18.9398 14.2883C18.9398 13.3637 18.8119 12.4831 18.5772 11.6465C16.2311 13.4077 14.7168 16.1816 14.7168 19.3077V19.7701C14.7168 20.5846 14.8234 21.3772 15.0154 22.1257C17.4042 20.3204 18.9398 17.4805 18.9398 14.2883Z" fill="#3854C6"/>
<path d="M27.6842 10.2809C27.6202 10.2589 27.5776 10.2369 27.5136 10.2149C27.4923 10.2149 27.4709 10.1929 27.4709 10.1929C27.4283 10.1709 27.3856 10.1709 27.343 10.1488C26.4258 9.86264 25.4234 9.68652 24.3996 9.68652C22.2241 9.68652 20.1979 10.413 18.577 11.6239C18.8116 12.4604 18.9396 13.341 18.9396 14.2657C18.9396 17.4579 17.4039 20.2978 15.0151 22.103C16.0816 26.2419 19.878 29.324 24.3783 29.324C26.4898 29.324 28.452 28.6415 30.0517 27.4967C30.9688 28.3113 32.2485 28.8397 34.0614 29.1038V19.9676V19.7694V19.5053V19.3071C34.0614 19.175 34.0401 19.065 34.0401 18.9549C34.0401 18.9329 34.0401 18.9329 34.0401 18.9108V18.8888C34.0401 18.8668 34.0401 18.8448 34.0401 18.8228C30.3929 17.656 27.7269 14.2877 27.6842 10.2809ZM27.9828 19.7694C27.9828 21.7288 26.3619 23.3359 24.3783 23.3359C22.3948 23.3359 20.7738 21.7288 20.7738 19.7694V19.3071C20.7738 17.3478 22.3948 15.7407 24.3783 15.7407C26.3619 15.7407 27.9828 17.3478 27.9828 19.3071V19.7694Z" fill="#ADC900"/>
<path d="M45.8775 6.42841C45.8775 6.42841 45.8989 6.40639 45.8775 6.42841C45.8989 6.40639 45.8989 6.40639 45.8775 6.42841C45.9415 6.38438 45.9842 6.36236 46.0055 6.31833V0H39.9269V10.193C39.9269 11.8882 38.5406 13.2531 36.8343 13.2531C35.128 13.2531 33.7417 11.8882 33.7417 10.193V0H27.6631V10.193V10.215C27.6631 10.237 27.6631 10.259 27.6631 10.2811C31.2463 11.5799 33.827 14.8822 34.019 18.8229C34.0829 18.8449 34.1469 18.8669 34.1896 18.889C34.2109 18.889 34.2322 18.889 34.2536 18.911C34.2962 18.933 34.3389 18.933 34.3815 18.955C35.1494 19.1752 35.9812 19.2852 36.813 19.2852C38.9032 19.2852 40.844 18.5807 42.3797 17.3919C42.4437 17.3479 42.5077 17.3039 42.5503 17.2378V12.9889C42.593 10.3251 43.894 7.94745 45.8775 6.42841Z" fill="#FEBC00"/>
<path d="M61.6392 4.68945C59.613 4.68945 57.7574 5.41595 56.3071 6.60477C54.8568 5.41595 53.0012 4.68945 50.975 4.68945C49.2047 4.68945 47.5411 5.23983 46.1974 6.18648C46.1334 6.23051 46.0908 6.27454 46.0268 6.31857V10.1932C46.0268 12.9891 44.7471 15.4769 42.7422 17.15C42.6996 17.172 42.6569 17.216 42.6143 17.2381V24.1728H48.6715V12.9891C48.6715 11.7343 49.7166 10.6996 50.975 10.6996C52.2547 10.6996 53.2785 11.7123 53.2785 12.9891V24.1728H59.3357V12.9891C59.3357 11.7343 60.3595 10.6996 61.6392 10.6996C62.9189 10.6996 63.9427 11.7123 63.9427 12.9891V24.1728H70V12.9891C70.0213 8.41001 66.2675 4.68945 61.6392 4.68945Z" fill="#F2685E"/>
<path d="M42.721 17.1498C44.7259 15.4766 46.0056 12.9889 46.0056 10.193V6.31836C45.9629 6.34037 45.9203 6.3844 45.8776 6.40642C43.8941 7.92546 42.593 10.3031 42.593 12.9889V17.2379C42.6357 17.2158 42.6783 17.1938 42.721 17.1498Z" fill="#DD3343"/>
<path d="M27.6843 10.2808C27.727 14.2875 30.393 17.6558 34.0402 18.8226C33.8482 14.9039 31.2675 11.5797 27.6843 10.2808Z" fill="#5C9236"/>
</svg>
