<svg width="90" height="18" viewBox="0 0 90 18" fill="none" xmlns="http://www.w3.org/2000/svg">
<path d="M25.9068 0L19.1365 17.2059H24.8878L25.6995 14.9347H32.1935L33.0052 17.2059H38.7565L32.0035 0H25.9068ZM27.0294 10.7881L28.9638 5.41986L30.8981 10.7881H27.0294Z" fill="#03CF5D"/>
<path d="M62.7286 10.6677H70.6042V6.53824H62.7286V4.21545H70.6906V0H57.2363V17.2059H70.8633V12.9905H62.7286V10.6677Z" fill="#03CF5D"/>
<path d="M45.6303 11.3215L41.5716 0H35.8203L42.5906 17.2059H48.6873L55.4576 0H49.6891L45.6303 11.3215Z" fill="#03CF5D"/>
<path d="M11.7617 9.20516L5.33679 0H0V17.2059H5.59586V8.00074L12.0207 17.2059H17.3575V0H11.7617V9.20516Z" fill="#03CF5D"/>
<path d="M85.6305 11.3043L86.1486 11.0806C88.1521 10.2375 89.1711 8.43089 89.1711 6.14251C89.1711 3.97456 88.3766 2.35721 86.8049 1.35927C85.3541 0.430147 83.4716 0 80.8636 0H73.5752V17.2059H78.9983V12.4055H80.95L84.2488 17.2059H90.0001L85.6305 11.3043ZM81.8654 8.01795H78.8947V4.3875H81.8654C82.8671 4.3875 83.6788 5.19618 83.6788 6.19412C83.6961 7.20927 82.8671 8.01795 81.8654 8.01795Z" fill="#03CF5D"/>
</svg>
