<svg width="24" height="25" viewBox="0 0 24 25" fill="none" xmlns="http://www.w3.org/2000/svg">
<path d="M24 12.517C24 11.5102 23.9183 10.7755 23.7415 10.0136H12.2449V14.5578H18.9931C18.8571 15.6871 18.1224 17.3878 16.4897 18.5306L16.4669 18.6827L20.1019 21.4987L20.3537 21.5238C22.6666 19.3878 24 16.2449 24 12.517" fill="#4285F4"/>
<path d="M12.2449 24.4898C15.551 24.4898 18.3265 23.4013 20.3537 21.5238L16.4898 18.5305C15.4558 19.2516 14.068 19.755 12.2449 19.755C9.00683 19.755 6.25855 17.619 5.27886 14.6667L5.13526 14.6789L1.35552 17.604L1.30609 17.7414C3.31968 21.7414 7.45574 24.4898 12.2449 24.4898Z" fill="#34A853"/>
<path d="M5.27886 14.6667C5.02036 13.9048 4.87076 13.0884 4.87076 12.2449C4.87076 11.4013 5.02036 10.585 5.26526 9.82312L5.25841 9.66086L1.43131 6.68869L1.30609 6.74825C0.476196 8.40813 0 10.2721 0 12.2449C0 14.2177 0.476196 16.0816 1.30609 17.7415L5.27886 14.6667" fill="#FBBC05"/>
<path d="M12.2449 4.73466C14.5442 4.73466 16.0952 5.72786 16.9796 6.55785L20.4353 3.18367C18.3129 1.21089 15.551 0 12.2449 0C7.45574 0 3.31968 2.74828 1.30609 6.74825L5.26526 9.82312C6.25855 6.87074 9.00682 4.73466 12.2449 4.73466" fill="#EB4335"/>
</svg>
