<svg width="78" height="26" viewBox="0 0 78 26" fill="none" xmlns="http://www.w3.org/2000/svg">
<path d="M19.6056 9.18038H17.2049H9.80278V11.8033H16.9381C16.0712 14.9153 13.2037 17.2049 9.80278 17.2049C5.71273 17.2049 2.37845 13.8928 2.37845 9.78055C2.37845 5.6905 5.6905 2.35622 9.80278 2.35622C11.8033 2.35622 13.6039 3.13422 14.9376 4.42348L16.7159 2.8008C14.9376 1.0892 12.5147 0 9.80278 0C4.40125 0 0 4.40125 0 9.80278C0 15.2265 4.40125 19.6056 9.80278 19.6056C14.5375 19.6056 18.4941 16.2491 19.4055 11.8033C19.5389 11.1587 19.6056 10.4919 19.6056 9.80278C19.6278 9.60273 19.6278 9.40267 19.6056 9.18038Z" fill="#3E82F1"/>
<path d="M26.2521 7.09131C22.74 7.09131 19.917 9.93656 19.917 13.4264C19.917 16.9385 22.7622 19.7616 26.2521 19.7616C29.742 19.7616 32.5873 16.9163 32.5873 13.4264C32.6095 9.93656 29.7642 7.09131 26.2521 7.09131ZM26.2521 17.2497C24.1404 17.2497 22.4288 15.5381 22.4288 13.4264C22.4288 11.3147 24.1404 9.60313 26.2521 9.60313C28.3638 9.60313 30.0754 11.3147 30.0754 13.4264C30.0754 15.5381 28.3638 17.2497 26.2521 17.2497Z" fill="#EA4335"/>
<path d="M40.3222 7.09131C36.8101 7.09131 33.9871 9.93656 33.9871 13.4264C33.9871 16.9385 36.8323 19.7616 40.3222 19.7616C43.8121 19.7616 46.6796 16.9385 46.6796 13.4264C46.6796 9.93656 43.8343 7.09131 40.3222 7.09131ZM40.3222 17.2497C38.2105 17.2497 36.4989 15.5381 36.4989 13.4264C36.4989 11.3147 38.2105 9.60313 40.3222 9.60313C42.4339 9.60313 44.1455 11.3147 44.1455 13.4264C44.1455 15.5381 42.4339 17.2497 40.3222 17.2497Z" fill="#FABB05"/>
<path d="M64.5072 0.311523H61.4841V19.4503H64.5072V0.311523Z" fill="#34A853"/>
<path d="M57.1278 7.29137V7.86931C56.2164 7.35805 55.1717 7.09131 54.0602 7.09131C50.5481 7.09131 47.7251 9.93656 47.7251 13.4264C47.7251 16.9385 50.5704 19.7616 54.0602 19.7616C55.4606 19.7616 56.7499 19.2948 57.7946 18.539C57.8391 18.7835 57.8613 19.028 57.8613 19.2725C57.8613 20.1172 57.5723 20.9175 57.1055 21.5399C56.4165 22.4735 55.305 23.0736 54.038 23.0736C52.4375 23.0736 51.0816 22.0956 50.5037 20.6952L48.2586 21.8733C49.2589 24.0739 51.4595 25.6077 54.038 25.6077C55.594 25.6077 56.9944 25.052 58.1058 24.1406L58.1281 24.1184C59.4395 23.0292 60.1286 21.362 60.1286 19.6504V7.29137H57.1278ZM54.0825 17.2497C51.9707 17.2497 50.2592 15.5381 50.2592 13.4264C50.2592 11.3147 51.9707 9.60313 54.0825 9.60313C56.1942 9.60313 57.9058 11.3147 57.9058 13.4264C57.8835 15.5381 56.1719 17.2497 54.0825 17.2497Z" fill="#4285F4"/>
<path d="M71.9982 17.2497C70.6867 17.2497 69.5086 16.5829 68.8418 15.5604L77.9999 11.337C77.7777 10.7146 77.4665 10.1144 77.0663 9.60313C75.9105 8.06936 74.0877 7.09131 72.0205 7.09131C68.5083 7.09131 65.6853 9.93656 65.6853 13.4264C65.6853 13.8932 65.7298 14.3378 65.8409 14.7824C65.952 15.3159 66.1521 15.8493 66.3966 16.3161C67.4414 18.3612 69.5753 19.7616 72.0427 19.7616C74.31 19.7616 76.2883 18.5612 77.422 16.7829L75.3103 15.3825C74.599 16.494 73.3764 17.2497 71.9982 17.2497ZM68.1749 13.4264C68.1749 11.3147 69.8865 9.60313 71.9982 9.60313C73.043 9.60313 73.9766 10.0255 74.6657 10.6923L68.1971 13.671C68.1971 13.6043 68.1749 13.5154 68.1749 13.4264Z" fill="#EA4335"/>
</svg>
