<svg width="32" height="32" viewBox="0 0 32 32" fill="none" xmlns="http://www.w3.org/2000/svg">
<path d="M30.7142 19.394L26.8604 20.4268L24.0262 18.7905V13.2095L26.8604 11.5732L30.7142 12.606C31.2244 12.7432 31.7488 12.4402 31.886 11.9299C32.0225 11.4194 31.7195 10.8945 31.2093 10.7581L29.2037 10.2205L30.7857 9.30688C31.243 9.04297 31.4 8.45801 31.1358 8C30.8719 7.54272 30.2862 7.38574 29.8289 7.6499L28.2469 8.56323L28.784 6.55786C28.9212 6.04761 28.6182 5.52246 28.108 5.38599C27.597 5.24902 27.0728 5.552 26.9361 6.06226L25.9036 9.91602L23.0696 11.5522L18.2364 8.76172V5.48999L21.0577 2.6687C21.4315 2.29492 21.4315 1.68896 21.0577 1.31519C20.6839 0.942139 20.0787 0.942139 19.7049 1.31519L18.2364 2.78369V0.956787C18.2364 0.428711 17.8079 0 17.2796 0C16.7515 0 16.3228 0.428711 16.3228 0.956787V2.78369L14.8546 1.31519C14.4808 0.942139 13.8755 0.942139 13.5018 1.31519C13.128 1.68896 13.128 2.29492 13.5018 2.6687L16.3228 5.48999V8.76172L11.4898 11.5522L8.65582 9.91602L7.62311 6.06226C7.48663 5.552 6.96246 5.24902 6.45148 5.38599C5.94122 5.52246 5.63824 6.04761 5.77521 6.55786L6.31232 8.56323L4.73053 7.6499C4.27325 7.38574 3.68756 7.54272 3.42364 8C3.15948 8.45801 3.31647 9.04297 3.77374 9.30688L5.35553 10.2205L3.35016 10.7581C2.8399 10.8945 2.53693 11.4194 2.6734 11.9299C2.81061 12.4402 3.33478 12.7432 3.84528 12.606L7.69904 11.5732L10.533 13.2095V18.7905L7.69904 20.4268L3.84528 19.394C3.33478 19.2568 2.80988 19.5598 2.6734 20.0701C2.53693 20.5806 2.8399 21.1055 3.35016 21.2419L5.35553 21.7795L3.77374 22.6931C3.31647 22.957 3.15948 23.542 3.42364 24C3.68756 24.4573 4.27325 24.6143 4.73053 24.3501L6.31232 23.4368L5.77521 25.4421C5.63824 25.9524 5.94122 26.4775 6.45148 26.614C6.96173 26.751 7.48663 26.448 7.62311 25.9377L8.65582 22.084L11.4898 20.4478L16.3228 23.2383V26.51L13.5018 29.3313C13.128 29.7051 13.128 30.311 13.5018 30.6848C13.8755 31.0579 14.4808 31.0579 14.8546 30.6848L16.3228 29.2163V31.0432C16.3228 31.5713 16.7515 32 17.2796 32C17.8079 32 18.2364 31.5713 18.2364 31.0432V29.2163L19.7049 30.6848C20.0787 31.0579 20.6839 31.0579 21.0577 30.6848C21.4315 30.311 21.4315 29.7051 21.0577 29.3313L18.2364 26.51V23.2383L23.0696 20.4478L25.9036 22.084L26.9361 25.9377C27.0728 26.448 27.5977 26.751 28.108 26.614C28.6182 26.4775 28.9212 25.9524 28.784 25.4421L28.2469 23.4368L29.8289 24.3501C30.2862 24.6143 30.8719 24.4573 31.1358 24C31.4 23.542 31.243 22.957 30.7857 22.6931L29.2037 21.7795L31.2093 21.2419C31.7195 21.1055 32.0225 20.5806 31.886 20.0701C31.7488 19.5598 31.2244 19.2568 30.7142 19.394ZM12.4466 14.3142L15.366 16L12.4466 17.6858V14.3142ZM16.3228 21.0288L13.4034 19.343L16.3228 17.6572V21.0288ZM16.3228 14.3428L13.4034 12.657L16.3228 10.9712V14.3428ZM18.2364 10.9712L21.1561 12.657L18.2364 14.3428V10.9712ZM18.2364 21.0288V17.6572L21.1561 19.343L18.2364 21.0288ZM22.1129 17.6858L19.1932 16L22.1129 14.3142V17.6858Z" fill="#ADD2F9"/>
<path d="M29.4485 19.394L25.5947 20.4268L22.7605 18.7905V13.2095L25.5947 11.5732L29.4485 12.606C29.9587 12.7432 30.4832 12.4402 30.6204 11.9299C30.7568 11.4194 30.4539 10.8945 29.9436 10.7581L27.938 10.2205L29.52 9.30688C29.9773 9.04297 30.1343 8.45801 29.8701 8C29.6062 7.54272 29.0205 7.38574 28.5632 7.6499L26.9812 8.56323L27.5183 6.55786C27.6555 6.04761 27.3525 5.52246 26.8423 5.38599C26.3313 5.24902 25.8071 5.552 25.6704 6.06226L24.6379 9.91602L21.804 11.5522L16.9707 8.76172V5.48999L19.792 2.6687C20.1658 2.29492 20.1658 1.68896 19.792 1.31519C19.4182 0.942139 18.813 0.942139 18.4392 1.31519L16.9707 2.78369V0.956787C16.9707 0.428711 16.5422 0 16.0139 0C15.4858 0 15.0571 0.428711 15.0571 0.956787V2.78369L13.5889 1.31519C13.2151 0.942139 12.6099 0.942139 12.2361 1.31519C11.8623 1.68896 11.8623 2.29492 12.2361 2.6687L15.0571 5.48999V8.76172L10.2241 11.5522L7.39014 9.91602L6.35742 6.06226C6.22095 5.552 5.69678 5.24902 5.18579 5.38599C4.67554 5.52246 4.37256 6.04761 4.50952 6.55786L5.04663 8.56323L3.46484 7.6499C3.00757 7.38574 2.42187 7.54272 2.15796 8C1.8938 8.45801 2.05078 9.04297 2.50806 9.30688L4.08984 10.2205L2.08447 10.7581C1.57422 10.8945 1.27124 11.4194 1.40771 11.9299C1.54492 12.4402 2.06909 12.7432 2.57959 12.606L6.43335 11.5732L9.26733 13.2095V18.7905L6.43335 20.4268L2.57959 19.394C2.06909 19.2568 1.54419 19.5598 1.40771 20.0701C1.27124 20.5806 1.57422 21.1055 2.08447 21.2419L4.08984 21.7795L2.50806 22.6931C2.05078 22.957 1.8938 23.542 2.15796 24C2.42187 24.4573 3.00757 24.6143 3.46484 24.3501L5.04663 23.4368L4.50952 25.4421C4.37256 25.9524 4.67554 26.4775 5.18579 26.614C5.69604 26.751 6.22095 26.448 6.35742 25.9377L7.39014 22.084L10.2241 20.4478L15.0571 23.2383V26.51L12.2361 29.3313C11.8623 29.7051 11.8623 30.311 12.2361 30.6848C12.6099 31.0579 13.2151 31.0579 13.5889 30.6848L15.0571 29.2163V31.0432C15.0571 31.5713 15.4858 32 16.0139 32C16.5422 32 16.9707 31.5713 16.9707 31.0432V29.2163L18.4392 30.6848C18.813 31.0579 19.4182 31.0579 19.792 30.6848C20.1658 30.311 20.1658 29.7051 19.792 29.3313L16.9707 26.51V23.2383L21.804 20.4478L24.6379 22.084L25.6704 25.9377C25.8071 26.448 26.332 26.751 26.8423 26.614C27.3525 26.4775 27.6555 25.9524 27.5183 25.4421L26.9812 23.4368L28.5632 24.3501C29.0205 24.6143 29.6062 24.4573 29.8701 24C30.1343 23.542 29.9773 22.957 29.52 22.6931L27.938 21.7795L29.9436 21.2419C30.4539 21.1055 30.7568 20.5806 30.6204 20.0701C30.4832 19.5598 29.9587 19.2568 29.4485 19.394ZM11.1809 14.3142L14.1003 16L11.1809 17.6858V14.3142ZM15.0571 21.0288L12.1377 19.343L15.0571 17.6572V21.0288ZM15.0571 14.3428L12.1377 12.657L15.0571 10.9712V14.3428ZM16.9707 10.9712L19.8904 12.657L16.9707 14.3428V10.9712ZM16.9707 21.0288V17.6572L19.8904 19.343L16.9707 21.0288ZM20.8472 17.6858L17.9275 16L20.8472 14.3142V17.6858Z" fill="#C4E2FF"/>
<path d="M22.3694 7.01294C22.3694 7.64233 21.8591 8.15259 21.2297 8.15259C20.6001 8.15259 20.0901 7.64233 20.0901 7.01294C20.0901 6.38354 20.6001 5.87329 21.2297 5.87329C21.8591 5.87329 22.3694 6.38354 22.3694 7.01294Z" fill="#ADD2F9"/>
<path d="M7.3631 16C7.3631 16.6294 6.85284 17.1396 6.22345 17.1396C5.59406 17.1396 5.0838 16.6294 5.0838 16C5.0838 15.3706 5.59406 14.8604 6.22345 14.8604C6.85284 14.8604 7.3631 15.3706 7.3631 16Z" fill="#ADD2F9"/>
<path d="M26.9443 16C26.9443 16.6294 26.4341 17.1396 25.8047 17.1396C25.1753 17.1396 24.665 16.6294 24.665 16C24.665 15.3706 25.1753 14.8604 25.8047 14.8604C26.4341 14.8604 26.9443 15.3706 26.9443 16Z" fill="#ADD2F9"/>
<path d="M12.1123 7.01294C12.1123 7.64233 11.6021 8.15259 10.9727 8.15259C10.3433 8.15259 9.83301 7.64233 9.83301 7.01294C9.83301 6.38354 10.3433 5.87329 10.9727 5.87329C11.6021 5.87329 12.1123 6.38354 12.1123 7.01294Z" fill="#ADD2F9"/>
<path d="M22.2822 24.9871C22.2822 25.6165 21.772 26.1267 21.1426 26.1267C20.5132 26.1267 20.0029 25.6165 20.0029 24.9871C20.0029 24.3577 20.5132 23.8474 21.1426 23.8474C21.772 23.8474 22.2822 24.3577 22.2822 24.9871Z" fill="#ADD2F9"/>
<path d="M12.0252 24.9871C12.0252 25.6165 11.515 26.1267 10.8856 26.1267C10.2562 26.1267 9.74591 25.6165 9.74591 24.9871C9.74591 24.3577 10.2562 23.8474 10.8856 23.8474C11.515 23.8474 12.0252 24.3577 12.0252 24.9871Z" fill="#ADD2F9"/>
</svg>
